<svg xmlns="http://www.w3.org/2000/svg" width="35" height="35" viewBox="0 0 35 35">
  <g id="brain" transform="translate(-56 -79)">
    <g id="Group_18" data-name="Group 18" transform="translate(56 79)">
      <circle id="Ellipse_21" data-name="Ellipse 21" cx="17.5" cy="17.5" r="17.5" fill="#f8f8fa"/>
      <g id="idea_1_1" data-name="idea (1) 1" transform="translate(9.4 6.995)">
        <g id="Group" transform="translate(0)">
          <path id="Vector" d="M13.442,2.439A3.277,3.277,0,0,0,8.088.835a3.277,3.277,0,0,0-5.354,1.6A4.146,4.146,0,0,0,.77,8.744a4.146,4.146,0,0,0,1.964,6.3A3.287,3.287,0,0,0,4.809,17.3v1.281a1.532,1.532,0,0,0,.874,1.382v.017a2.4,2.4,0,1,0,4.809,0v-.017a1.532,1.532,0,0,0,.874-1.382V17.3a3.287,3.287,0,0,0,2.075-2.251,4.146,4.146,0,0,0,1.964-6.3,4.146,4.146,0,0,0-1.964-6.3ZM9.837,18.8h-3.5a.219.219,0,0,1-.219-.219V17.488h3.935v1.093A.219.219,0,0,1,9.837,18.8ZM3.946,3.073A2.011,2.011,0,0,1,5.9,1.312a1.963,1.963,0,0,1,1.53.733V10.4A1.613,1.613,0,0,1,6.121,8.962a.656.656,0,0,0-1.312,0,2.982,2.982,0,0,0,2.623,2.785v4.429H5.9A2.016,2.016,0,0,1,3.945,14.41a1.971,1.971,0,0,1,.566-1.592.656.656,0,0,0-.927-.927,3.273,3.273,0,0,0-.9,1.689A2.835,2.835,0,0,1,2.094,9.2a.656.656,0,0,0,0-.9,2.835,2.835,0,0,1,.592-4.384,3.281,3.281,0,0,0,.9,1.689.656.656,0,1,0,.927-.927A1.973,1.973,0,0,1,3.946,3.073Zm4.143,18A1.094,1.094,0,0,1,7,20.111h2.17A1.094,1.094,0,0,1,8.088,21.073Zm4.143-18a1.973,1.973,0,0,1-.565,1.6.656.656,0,1,0,.927.927,3.282,3.282,0,0,0,.9-1.689,2.835,2.835,0,0,1,.592,4.385.656.656,0,0,0,0,.9,2.835,2.835,0,0,1-.593,4.385,3.268,3.268,0,0,0-.9-1.69.656.656,0,0,0-.927.927,1.97,1.97,0,0,1,.566,1.592,2.016,2.016,0,0,1-1.957,1.766H8.744V7.083a1.613,1.613,0,0,1,1.312,1.442.656.656,0,1,0,1.312,0A2.982,2.982,0,0,0,8.744,5.741v-3.7a1.963,1.963,0,0,1,1.53-.733A2.011,2.011,0,0,1,12.231,3.073Z" fill="#75797c"/>
        </g>
      </g>
    </g>
  </g>
</svg>
