<svg xmlns="http://www.w3.org/2000/svg" width="35" height="35" viewBox="0 0 35 35">
  <g id="courseblue" transform="translate(-203 -79)">
    <circle id="Ellipse_22" data-name="Ellipse 22" cx="17.5" cy="17.5" r="17.5" transform="translate(203 79)" fill="#1e73be"/>
    <path id="Vector" d="M25.4,5.8a.763.763,0,0,0,0-1.437L13.2.043a.755.755,0,0,0-.5,0L.506,4.364A.763.763,0,0,0,.5,5.8L5.334,7.525V12.5c0,.821.852,1.515,2.533,2.062a16.9,16.9,0,0,0,5.083.741,16.9,16.9,0,0,0,5.083-.741c1.681-.548,2.533-1.242,2.533-2.062V7.525l1.994-.712V13.7a2.3,2.3,0,0,0,0,4.324v2.911a.759.759,0,1,0,1.518,0V18.027a2.3,2.3,0,0,0,0-4.324V6.271ZM23.319,16.633a.769.769,0,1,1,.765-.769A.768.768,0,0,1,23.319,16.633ZM12.95,1.57l9.918,3.515L12.95,8.627,3.032,5.085Zm6.1,10.812a4.678,4.678,0,0,1-1.841.837,15.931,15.931,0,0,1-4.257.557,15.932,15.932,0,0,1-4.257-.557,4.677,4.677,0,0,1-1.841-.837V8.067L12.7,10.154a.755.755,0,0,0,.508,0l5.844-2.087v4.315Z" transform="translate(206.5 88.1)" fill="#fff"/>
  </g>
</svg>
