<svg xmlns="http://www.w3.org/2000/svg" width="35" height="35" viewBox="0 0 35 35">
  <g id="moreblue" transform="translate(-351 -79)">
    <circle id="Ellipse_24" data-name="Ellipse 24" cx="17.5" cy="17.5" r="17.5" transform="translate(351 79)" fill="#1e73be"/>
    <g id="dashboard_1" data-name="dashboard 1" transform="translate(360.1 88.8)">
      <g id="Vector" fill="#fff">
        <path d="M 6.744749069213867 5.333378791809082 L 1.275998950004578 5.333378791809082 C 0.8481089472770691 5.333378791809082 0.499998927116394 4.985208988189697 0.499998927116394 4.557249069213867 L 0.499998927116394 1.275998950004578 C 0.499998927116394 0.8481089472770691 0.8481089472770691 0.499998927116394 1.275998950004578 0.499998927116394 L 6.744749069213867 0.499998927116394 C 7.172708988189697 0.499998927116394 7.520878791809082 0.8481089472770691 7.520878791809082 1.275998950004578 L 7.520878791809082 4.557249069213867 C 7.520878791809082 4.985208988189697 7.172708988189697 5.333378791809082 6.744749069213867 5.333378791809082 Z M 1.275998950004578 0.593748927116394 C 0.899808943271637 0.593748927116394 0.593748927116394 0.899808943271637 0.593748927116394 1.275998950004578 L 0.593748927116394 4.557249069213867 C 0.593748927116394 4.933518886566162 0.899808943271637 5.239628791809082 1.275998950004578 5.239628791809082 L 6.744749069213867 5.239628791809082 C 7.121018886566162 5.239628791809082 7.427128791809082 4.933518886566162 7.427128791809082 4.557249069213867 L 7.427128791809082 1.275998950004578 C 7.427128791809082 0.899808943271637 7.121018886566162 0.593748927116394 6.744749069213867 0.593748927116394 L 1.275998950004578 0.593748927116394 Z" stroke="none"/>
        <path d="M 6.744749069213867 5.833378791809082 L 1.275998950004578 5.833378791809082 C 0.572378933429718 5.833378791809082 -1.080932634067722e-06 5.260998725891113 -1.080932634067722e-06 4.557249069213867 L -1.080932634067722e-06 1.275998950004578 C -1.080932634067722e-06 0.572378933429718 0.572378933429718 -1.080932634067722e-06 1.275998950004578 -1.080932634067722e-06 L 6.744749069213867 -1.080932634067722e-06 C 7.448498725891113 -1.080932634067722e-06 8.020878791809082 0.572378933429718 8.020878791809082 1.275998950004578 L 8.020878791809082 4.557249069213867 C 8.020878791809082 5.260998725891113 7.448498725891113 5.833378791809082 6.744749069213867 5.833378791809082 Z M 1.275998950004578 1.093748927116394 C 1.175458908081055 1.093748927116394 1.093748927116394 1.175458908081055 1.093748927116394 1.275998950004578 L 1.093748927116394 4.557249069213867 C 1.093748927116394 4.657918930053711 1.175458908081055 4.739628791809082 1.275998950004578 4.739628791809082 L 6.744749069213867 4.739628791809082 C 6.845418930053711 4.739628791809082 6.927128791809082 4.657918930053711 6.927128791809082 4.557249069213867 L 6.927128791809082 1.275998950004578 C 6.927128791809082 1.175458908081055 6.845418930053711 1.093748927116394 6.744749069213867 1.093748927116394 L 1.275998950004578 1.093748927116394 Z" stroke="none" fill="#fff"/>
      </g>
      <g id="Vector-2" data-name="Vector" transform="translate(0 7.292)" fill="#fff">
        <path d="M 6.744749069213867 9.708376884460449 L 1.275998950004578 9.708376884460449 C 0.8481089472770691 9.708376884460449 0.499998927116394 9.36026668548584 0.499998927116394 8.932376861572266 L 0.499998927116394 1.276126503944397 C 0.499998927116394 0.8481665253639221 0.8481089472770691 0.499996542930603 1.275998950004578 0.499996542930603 L 6.744749069213867 0.499996542930603 C 7.172708988189697 0.499996542930603 7.520878791809082 0.8481665253639221 7.520878791809082 1.276126503944397 L 7.520878791809082 8.932376861572266 C 7.520878791809082 9.36026668548584 7.172708988189697 9.708376884460449 6.744749069213867 9.708376884460449 Z M 1.275998950004578 0.593746542930603 C 0.899808943271637 0.593746542930603 0.593748927116394 0.8998565077781677 0.593748927116394 1.276126503944397 L 0.593748927116394 8.932376861572266 C 0.593748927116394 9.308566093444824 0.899808943271637 9.614626884460449 1.275998950004578 9.614626884460449 L 6.744749069213867 9.614626884460449 C 7.121018886566162 9.614626884460449 7.427128791809082 9.308566093444824 7.427128791809082 8.932376861572266 L 7.427128791809082 1.276126503944397 C 7.427128791809082 0.8998565077781677 7.121018886566162 0.593746542930603 6.744749069213867 0.593746542930603 L 1.275998950004578 0.593746542930603 Z" stroke="none"/>
        <path d="M 6.744749069213867 10.20837688446045 L 1.275998950004578 10.20837688446045 C 0.572378933429718 10.20837688446045 -1.080932634067722e-06 9.63599681854248 -1.080932634067722e-06 8.932376861572266 L -1.080932634067722e-06 1.276126503944397 C -1.080932634067722e-06 0.572376549243927 0.572378933429718 -3.465118425083347e-06 1.275998950004578 -3.465118425083347e-06 L 6.744749069213867 -3.465118425083347e-06 C 7.448498725891113 -3.465118425083347e-06 8.020878791809082 0.572376549243927 8.020878791809082 1.276126503944397 L 8.020878791809082 8.932376861572266 C 8.020878791809082 9.63599681854248 7.448498725891113 10.20837688446045 6.744749069213867 10.20837688446045 Z M 1.275998950004578 1.093746542930603 C 1.175458908081055 1.093746542930603 1.093748927116394 1.175456523895264 1.093748927116394 1.276126503944397 L 1.093748927116394 8.932376861572266 C 1.093748927116394 9.032916069030762 1.175458908081055 9.114626884460449 1.275998950004578 9.114626884460449 L 6.744749069213867 9.114626884460449 C 6.845418930053711 9.114626884460449 6.927128791809082 9.032916069030762 6.927128791809082 8.932376861572266 L 6.927128791809082 1.276126503944397 C 6.927128791809082 1.175456523895264 6.845418930053711 1.093746542930603 6.744749069213867 1.093746542930603 L 1.275998950004578 1.093746542930603 Z" stroke="none" fill="#fff"/>
      </g>
      <g id="Vector-3" data-name="Vector" transform="translate(9.479 11.667)" fill="#fff">
        <path d="M 6.744880199432373 5.333364009857178 L 1.276130318641663 5.333364009857178 C 0.8481703400611877 5.333364009857178 0.5000003576278687 4.985254287719727 0.5000003576278687 4.557374000549316 L 0.5000003576278687 1.276124119758606 C 0.5000003576278687 0.8481741547584534 0.8481703400611877 0.5000041723251343 1.276130318641663 0.5000041723251343 L 6.744880199432373 0.5000041723251343 C 7.172770500183105 0.5000041723251343 7.520880222320557 0.8481741547584534 7.520880222320557 1.276124119758606 L 7.520880222320557 4.557374000549316 C 7.520880222320557 4.985254287719727 7.172770500183105 5.333364009857178 6.744880199432373 5.333364009857178 Z M 1.276130318641663 0.593744158744812 C 0.8998603224754333 0.593744158744812 0.5937503576278687 0.8998541235923767 0.5937503576278687 1.276124119758606 L 0.5937503576278687 4.557374000549316 C 0.5937503576278687 4.933564186096191 0.8998603224754333 5.2396240234375 1.276130318641663 5.2396240234375 L 6.744880199432373 5.2396240234375 C 7.121070384979248 5.2396240234375 7.427130222320557 4.933564186096191 7.427130222320557 4.557374000549316 L 7.427130222320557 1.276124119758606 C 7.427130222320557 0.8998541235923767 7.121070384979248 0.593744158744812 6.744880199432373 0.593744158744812 L 1.276130318641663 0.593744158744812 Z" stroke="none"/>
        <path d="M 6.744880199432373 5.833364009857178 L 1.276130318641663 5.833364009857178 C 0.5723803639411926 5.833364009857178 3.495788689633628e-07 5.260993957519531 3.495788689633628e-07 4.557374000549316 L 3.495788689633628e-07 1.276124119758606 C 3.495788689633628e-07 0.572374165058136 0.5723803639411926 4.150695986027131e-06 1.276130318641663 4.150695986027131e-06 L 6.744880199432373 4.150695986027131e-06 C 7.448500156402588 4.150695986027131e-06 8.020880699157715 0.572374165058136 8.020880699157715 1.276124119758606 L 8.020880699157715 4.557374000549316 C 8.020880699157715 5.260993957519531 7.448500156402588 5.833364009857178 6.744880199432373 5.833364009857178 Z M 1.276130318641663 1.093744158744812 C 1.175460338592529 1.093744158744812 1.093750357627869 1.175454139709473 1.093750357627869 1.276124119758606 L 1.093750357627869 4.557374000549316 C 1.093750357627869 4.657914161682129 1.175460338592529 4.7396240234375 1.276130318641663 4.7396240234375 L 6.744880199432373 4.7396240234375 C 6.845420360565186 4.7396240234375 6.927130222320557 4.657914161682129 6.927130222320557 4.557374000549316 L 6.927130222320557 1.276124119758606 C 6.927130222320557 1.175454139709473 6.845420360565186 1.093744158744812 6.744880199432373 1.093744158744812 L 1.276130318641663 1.093744158744812 Z" stroke="none" fill="#fff"/>
      </g>
      <g id="Vector-4" data-name="Vector" transform="translate(9.479 0)" fill="#fff">
        <path d="M 6.744880199432373 9.708378791809082 L 1.276130318641663 9.708378791809082 C 0.8481703400611877 9.708378791809082 0.5000003576278687 9.360208511352539 0.5000003576278687 8.932249069213867 L 0.5000003576278687 1.275998950004578 C 0.5000003576278687 0.8481089472770691 0.8481703400611877 0.499998927116394 1.276130318641663 0.499998927116394 L 6.744880199432373 0.499998927116394 C 7.172770500183105 0.499998927116394 7.520880222320557 0.8481089472770691 7.520880222320557 1.275998950004578 L 7.520880222320557 8.932249069213867 C 7.520880222320557 9.360208511352539 7.172770500183105 9.708378791809082 6.744880199432373 9.708378791809082 Z M 1.276130318641663 0.593748927116394 C 0.8998603224754333 0.593748927116394 0.5937503576278687 0.899808943271637 0.5937503576278687 1.275998950004578 L 0.5937503576278687 8.932249069213867 C 0.5937503576278687 9.30851936340332 0.8998603224754333 9.614628791809082 1.276130318641663 9.614628791809082 L 6.744880199432373 9.614628791809082 C 7.121070384979248 9.614628791809082 7.427130222320557 9.30851936340332 7.427130222320557 8.932249069213867 L 7.427130222320557 1.275998950004578 C 7.427130222320557 0.899808943271637 7.121070384979248 0.593748927116394 6.744880199432373 0.593748927116394 L 1.276130318641663 0.593748927116394 Z" stroke="none"/>
        <path d="M 6.744880199432373 10.20837879180908 L 1.276130318641663 10.20837879180908 C 0.5723803639411926 10.20837879180908 3.495788689633628e-07 9.635998725891113 3.495788689633628e-07 8.932249069213867 L 3.495788689633628e-07 1.275998950004578 C 3.495788689633628e-07 0.572378933429718 0.5723803639411926 -1.080932634067722e-06 1.276130318641663 -1.080932634067722e-06 L 6.744880199432373 -1.080932634067722e-06 C 7.448500156402588 -1.080932634067722e-06 8.020880699157715 0.572378933429718 8.020880699157715 1.275998950004578 L 8.020880699157715 8.932249069213867 C 8.020880699157715 9.635998725891113 7.448500156402588 10.20837879180908 6.744880199432373 10.20837879180908 Z M 1.276130318641663 1.093748927116394 C 1.175460338592529 1.093748927116394 1.093750357627869 1.175458908081055 1.093750357627869 1.275998950004578 L 1.093750357627869 8.932249069213867 C 1.093750357627869 9.032918930053711 1.175460338592529 9.114628791809082 1.276130318641663 9.114628791809082 L 6.744880199432373 9.114628791809082 C 6.845420360565186 9.114628791809082 6.927130222320557 9.032918930053711 6.927130222320557 8.932249069213867 L 6.927130222320557 1.275998950004578 C 6.927130222320557 1.175458908081055 6.845420360565186 1.093748927116394 6.744880199432373 1.093748927116394 L 1.276130318641663 1.093748927116394 Z" stroke="none" fill="#fff"/>
      </g>
    </g>
  </g>
</svg>
