<svg xmlns="http://www.w3.org/2000/svg" width="35" height="35" viewBox="0 0 35 35">
  <g id="result" transform="translate(-127 -79)">
    <circle id="Ellipse_21" data-name="Ellipse 21" cx="17.5" cy="17.5" r="17.5" transform="translate(127 79)" fill="#f8f8fa"/>
    <path id="Vector" d="M13.945,1.559H12.018V.82A.82.82,0,0,0,11.2,0H3.568a.82.82,0,0,0-.82.82v.738H.82a.82.82,0,0,0-.82.82v15a.82.82,0,0,0,.82.82H13.945a.82.82,0,0,0,.82-.82v-15A.82.82,0,0,0,13.945,1.559Zm-9.557.082h5.988V3.117H4.389Zm8.736,14.919H1.641V3.2H2.748v.738a.82.82,0,0,0,.82.82H11.2a.82.82,0,0,0,.82-.82V3.2h1.107ZM12.018,9.6a.82.82,0,0,1-.82.82c-1.648,0-1.934-1.641-2.543-1.641s-.9,1.641-2.543,1.641S4.177,8.777,3.568,8.777a.82.82,0,0,1,0-1.641c1.648,0,1.934,1.641,2.543,1.641s.9-1.641,2.543-1.641S10.589,8.777,11.2,8.777A.82.82,0,0,1,12.018,9.6ZM4.942,13.7a.82.82,0,0,1,0-1.641H9.823a.82.82,0,0,1,0,1.641Z" transform="translate(137.117 88.1)" fill="#75797c"/>
  </g>
</svg>
