<svg xmlns="http://www.w3.org/2000/svg" xmlns:xlink="http://www.w3.org/1999/xlink" width="295.712" height="320.35" viewBox="0 0 295.712 320.35">
  <defs>
    <filter id="Rectangle_32" x="16" y="0" width="279.712" height="320.35" filterUnits="userSpaceOnUse">
      <feOffset dx="-4" dy="4" input="SourceAlpha"/>
      <feGaussianBlur stdDeviation="6" result="blur"/>
      <feFlood flood-opacity="0.149"/>
      <feComposite operator="in" in2="blur"/>
      <feComposite in="SourceGraphic"/>
    </filter>
  </defs>
  <g id="emptyQuizScreen" transform="translate(-52 -245)">
    <rect id="Rectangle_30" data-name="Rectangle 30" width="199.264" height="250.748" rx="14" transform="translate(52 289.757) rotate(-11.216)" fill="#69cdcd"/>
    <g transform="matrix(1, 0, 0, 1, 52, 245)" filter="url(#Rectangle_32)">
      <path id="Rectangle_32-2" data-name="Rectangle 32" d="M14,0H185.264a14,14,0,0,1,14,14V236.748a14,14,0,0,1-14,14H14a14,14,0,0,1-14-14V14A14,14,0,0,1,14,0Z" transform="translate(86.16 14) rotate(11.07)" fill="#edf3fe"/>
    </g>
    <g id="Frame" transform="translate(113.423 254) rotate(11.154)">
      <path id="Vector" d="M31.294,2.824,29.7,7.163,22.35,27.173a17.522,17.522,0,0,1-10.149,3.2c-.461,0-1.017-.113-1.487-.141A19.26,19.26,0,0,1,0,25.884L2.194,1.751,2.354,0C14.207,4.593,28.027,3.821,31.294,2.824Z" transform="translate(91.509 207.062)" fill="#a0505a"/>
      <path id="Vector-2" data-name="Vector" d="M29.091,2.824l-3.116,8.471C16.466,12.584,2.533,4.81,0,1.751L.16,0C12,4.593,25.824,3.821,29.091,2.824Z" transform="translate(93.712 207.062)" fill="#73325a"/>
      <path id="Vector-3" data-name="Vector" d="M23.94,1.139,21.69,24.7c-.4,6.212-5.169,10.965-10.817,10.965-.254,0-.508-.009-.772-.028C4.113,35.183-.4,29.545.028,23.051L1.393,2.231,1.534,0A16.809,16.809,0,0,0,5.7,2.852a17.972,17.972,0,0,0,6.449,1.732c.471.038.932.056,1.393.056a17.581,17.581,0,0,0,3.888-.433l.122-.028a16.292,16.292,0,0,0,6.223-2.918A.783.783,0,0,0,23.94,1.139Z" transform="translate(90.07 233.068)" fill="#fff"/>
      <path id="Vector-4" data-name="Vector" d="M24.167,1.666l-.235-.019-2.25,23.559a11.959,11.959,0,0,1-3.37,7.662A10.168,10.168,0,0,1,11.1,35.955c-.245,0-.5-.009-.753-.028a10.24,10.24,0,0,1-7.033-3.652,12.091,12.091,0,0,1-2.843-7.85c0-.273.009-.555.028-.828L1.864,2.777,2.005.546,1.77.527,1.61.7a17.005,17.005,0,0,0,4.218,2.89,18.244,18.244,0,0,0,6.534,1.751c.48.038.941.056,1.412.056a17.534,17.534,0,0,0,3.945-.442,1.228,1.228,0,0,1,.122-.028L17.784,4.7l.056.226a16.507,16.507,0,0,0,6.317-2.965l-.141-.188.113.207a.859.859,0,0,0,.217-.16l-.179-.151-.235-.019.235.019L24,1.5a.869.869,0,0,1-.122.085l-.009.009-.009.009a16,16,0,0,1-6.129,2.871,1.229,1.229,0,0,1-.122.028l.056.226L17.605,4.5a17.075,17.075,0,0,1-3.832.424c-.452,0-.913-.019-1.375-.056A17.7,17.7,0,0,1,6.035,3.153,16.362,16.362,0,0,1,1.93.339L1.563,0,1.393,2.73.028,23.55c-.019.292-.028.574-.028.857a12.54,12.54,0,0,0,2.956,8.161,10.718,10.718,0,0,0,7.362,3.812c.273.019.527.028.791.028a10.6,10.6,0,0,0,7.541-3.219,12.432,12.432,0,0,0,3.512-7.963l-.235-.019.235.019L24.478,1.017l-.461.461Z" transform="translate(89.843 232.541)" fill="#ffcf2d"/>
      <path id="Vector-5" data-name="Vector" d="M19.94,1.3,18.349,20.152a10.062,10.062,0,0,1-2.843,6.457,8.548,8.548,0,0,1-6.072,2.6c-.207,0-.424-.009-.631-.028A8.631,8.631,0,0,1,2.881,26.1a10.158,10.158,0,0,1-2.4-6.617c0-.235.009-.461.019-.7L1.751.028,1.28,0,.028,18.759C.009,19,0,19.248,0,19.484a10.676,10.676,0,0,0,2.514,6.927,9.107,9.107,0,0,0,6.242,3.238l.019-.235-.019.235c.226.019.442.028.668.028a9.015,9.015,0,0,0,6.411-2.739A10.527,10.527,0,0,0,18.81,20.18l-.235-.019.235.019L20.4,1.327Z" transform="translate(91.679 234.32)" fill="#ffcf2d"/>
      <path id="Vector-6" data-name="Vector" d="M12.534,6.947a20.453,20.453,0,0,1-3.982.3c-.461,0-.923-.019-1.393-.047A19.043,19.043,0,0,1,.709,5.611L.088,2.561A1.978,1.978,0,0,1,2.046,0l9.038.264A1.982,1.982,0,0,1,13,2.43Z" transform="translate(95.065 230.093)" fill="#ffcf2d"/>
      <path id="Vector-7" data-name="Vector" d="M12.5,1.252,11.358,15.568a4.745,4.745,0,0,1-5.319,4.377l-.2-.019a7.557,7.557,0,0,1-5.79-8.292L.767,0A19.1,19.1,0,0,0,7.216,1.591c.471.038.932.047,1.393.047A18.788,18.788,0,0,0,12.5,1.252Z" transform="translate(95.007 235.694)" fill="#ffcf2d"/>
      <path id="Vector-8" data-name="Vector" d="M11.354,16.549,1.045,14.2a.718.718,0,0,1-.424-.264A.7.7,0,0,1,.48,13.5a.768.768,0,0,1,.16-.471.685.685,0,0,1,.48-.254l9.857-1.158a1.318,1.318,0,0,0,.876-.471,1.384,1.384,0,0,0,.3-.866,1.357,1.357,0,0,0-.226-.753,1.294,1.294,0,0,0-.706-.508L1.779,6.026a1.223,1.223,0,0,1-.65-.471A1.272,1.272,0,0,1,1.177,4.1a1.2,1.2,0,0,1,.744-.452l-.047-.235.038.235L12.728,1.771a.247.247,0,0,0,.2-.264.239.239,0,0,0-.254-.207h-.019c-.151.009-1.459.122-3.2.122A33.131,33.131,0,0,1,5.046,1.16,12.068,12.068,0,0,1,1.073.03.236.236,0,1,0,.847.444,12.53,12.53,0,0,0,4.98,1.63,34.369,34.369,0,0,0,9.452,1.9c1.883,0,3.257-.122,3.257-.122l-.019-.235-.038-.235L1.836,3.183H1.826A1.662,1.662,0,0,0,.8,3.814,1.7,1.7,0,0,0,.452,4.859a1.722,1.722,0,0,0,.292.969,1.653,1.653,0,0,0,.894.649l9.443,2.993a.805.805,0,0,1,.452.329.884.884,0,0,1,.151.489.861.861,0,0,1-.2.565.818.818,0,0,1-.574.3L1.054,12.313a1.154,1.154,0,0,0-.791.424A1.21,1.21,0,0,0,0,13.5a1.239,1.239,0,0,0,.226.715,1.171,1.171,0,0,0,.7.442L11.232,17.01a.236.236,0,0,0,.282-.179A.22.22,0,0,0,11.354,16.549Z" transform="translate(94.823 235.683)" fill="#fff"/>
      <path id="Vector-9" data-name="Vector" d="M53.173,20.924,33.723,73.868c-3.267,1-18.678,2.315-33.723-4.659L11.834,14.476A16.672,16.672,0,0,1,28.366,0h8.7A16.653,16.653,0,0,1,53.173,20.924Z" transform="translate(89.08 136.018)" fill="#fe5244"/>
      <path id="Vector-10" data-name="Vector" d="M35.236,4.76a11.945,11.945,0,0,1-1.214.273,45.35,45.35,0,0,1-7.155.489A64.8,64.8,0,0,1,.4.026.286.286,0,0,0,.026.167.286.286,0,0,0,.167.543,65.2,65.2,0,0,0,26.876,6.1c2.09,0,3.907-.1,5.357-.245.725-.075,1.365-.16,1.892-.254a12.117,12.117,0,0,0,1.28-.282.28.28,0,0,0,.188-.348A.283.283,0,0,0,35.236,4.76Z" transform="translate(89.742 199.205)" fill="#fff"/>
      <path id="Vector-11" data-name="Vector" d="M37.686,1.186,35.728,4.659,23.2,26.58A28,28,0,0,1,7.569,28.124l-.64-.179A16.271,16.271,0,0,1,0,24.425L9.142,0H9.16C12.314,1.045,23.16,3.981,37.686,1.186Z" transform="translate(111.054 209.744)" fill="#a0505a"/>
      <path id="Vector-12" data-name="Vector" d="M29.063,1.177,24.93,8.452C9.019,10.994,0,1.421,0,1.421L.527,0C3.691,1.035,14.536,3.972,29.063,1.177Z" transform="translate(119.678 209.754)" fill="#73325a"/>
      <path id="Vector-13" data-name="Vector" d="M55.348,28.453,33.648,73.03C15.28,77.624,3.135,73.906,0,72.87L22.708,12.151A19.872,19.872,0,0,1,41.019,0C56.139,0,62.654,15.21,55.348,28.453Z" transform="translate(120.205 136.884)" fill="#fe5244"/>
      <path id="Vector-14" data-name="Vector" d="M34.236.174A72.038,72.038,0,0,1,16.744,2.4,58.2,58.2,0,0,1,6.058,1.454,42.835,42.835,0,0,1,.372.014.281.281,0,0,0,.014.193.281.281,0,0,0,.193.55,43.628,43.628,0,0,0,5.955,2.009a59.255,59.255,0,0,0,10.789.96A72.619,72.619,0,0,0,34.368.72a.281.281,0,1,0-.132-.546Z" transform="translate(121.989 204.667)" fill="#fff"/>
      <path id="Vector-15" data-name="Vector" d="M33.375,0,0,89.944l.527.188L33.9.188" transform="translate(109.274 148.941)" fill="#fff"/>
      <path id="Vector-16" data-name="Vector" d="M33.1,2.09l-.734,1.93L24.046,25.79c-2.382,7.464-10.215,11.9-17.1,10.194l-.377-.122c-4.83-1.2-7.9-7.012-6.006-12.151L10.075.48l.2-.48a14.413,14.413,0,0,0,4.142,2.6,15.672,15.672,0,0,0,2.617.809l.64.179a25.743,25.743,0,0,0,8.238.348A28.667,28.667,0,0,0,33.1,2.09Z" transform="translate(100.96 234.301)" fill="#fff"/>
      <path id="Vector-17" data-name="Vector" d="M33.337,2.494,33.12,2.41l-.744,1.939L24.054,26.11v.009a15.109,15.109,0,0,1-5.47,7.558A14.31,14.31,0,0,1,10.2,36.51a12.044,12.044,0,0,1-2.956-.358l-.056.226.075-.226-.386-.122H6.863a8.131,8.131,0,0,1-4.594-3.2A9.524,9.524,0,0,1,.471,27.3a8.981,8.981,0,0,1,.555-3.106L.81,24.105l.217.085L10.535.96l.2-.48L10.516.386l-.16.179A14.889,14.889,0,0,0,14.564,3.21a15.266,15.266,0,0,0,2.655.819l.047-.226-.066.226.65.179h.009a25.547,25.547,0,0,0,5.216.536,26.173,26.173,0,0,0,3.1-.179A28.722,28.722,0,0,0,33.422,2.7l-.085-.207L33.12,2.41l.217.085-.085-.216A28.213,28.213,0,0,1,26.116,4.1a25.5,25.5,0,0,1-3.05.179,24.481,24.481,0,0,1-5.112-.527l-.047.226.066-.226-.65-.179h-.009a15.23,15.23,0,0,1-2.58-.8A14.274,14.274,0,0,1,10.657.226L10.412,0l-.32.791L.584,24.02v.009A9.458,9.458,0,0,0,0,27.3a9.964,9.964,0,0,0,1.892,5.817A8.619,8.619,0,0,0,6.75,36.492l.056-.226-.075.226.386.122h.009a12.558,12.558,0,0,0,3.069.367,14.838,14.838,0,0,0,8.671-2.927,15.505,15.505,0,0,0,5.639-7.793l-.226-.075.217.085L32.819,4.5l.923-2.428-.5.2Z" transform="translate(100.726 233.897)" fill="#ffcf2d"/>
      <path id="Vector-18" data-name="Vector" d="M27.443,2.185l-7.3,19.286v.009a12.55,12.55,0,0,1-4.566,6.306,11.961,11.961,0,0,1-7,2.372,9.943,9.943,0,0,1-2.467-.3l-.056.226.075-.226-.32-.1H5.8A6.843,6.843,0,0,1,1.968,27.09a7.964,7.964,0,0,1-1.5-4.621,7.369,7.369,0,0,1,.461-2.588L.716,19.8l.217.094L8.991.331A.243.243,0,0,0,8.859.02a.235.235,0,0,0-.311.132L.49,19.711A8.027,8.027,0,0,0,0,22.46a8.354,8.354,0,0,0,1.591,4.894,7.348,7.348,0,0,0,4.1,2.852l.056-.226-.075.226.32.1H6a10.866,10.866,0,0,0,2.58.311,12.5,12.5,0,0,0,7.287-2.457A13.082,13.082,0,0,0,20.6,21.622l-.226-.075.217.085,7.3-19.277a.234.234,0,0,0-.141-.3A.229.229,0,0,0,27.443,2.185Z" transform="translate(103.71 235.128)" fill="#ffcf2d"/>
      <path id="Vector-19" data-name="Vector" d="M13.209,4.843,11.5,7.742a25.766,25.766,0,0,1-8.238-.348l-.64-.179A14.1,14.1,0,0,1,0,6.405L.678,1.7A1.985,1.985,0,0,1,3.05.043L11.9,1.9A1.976,1.976,0,0,1,13.209,4.843Z" transform="translate(115.366 230.475)" fill="#ffcf2d"/>
      <path id="Vector-20" data-name="Vector" d="M16.691,1.337l-.047.075L12.219,13.1a7.557,7.557,0,0,1-8.69,5.177l-.188-.066a4.736,4.736,0,0,1-3.05-6.175L5.177.179,5.206,0A15.672,15.672,0,0,0,7.823.809l.64.179A25.43,25.43,0,0,0,16.691,1.337Z" transform="translate(110.17 236.88)" fill="#ffcf2d"/>
      <path id="Vector-21" data-name="Vector" d="M.226,14.613l10.168,1.1a.968.968,0,0,0,.16.009,1.425,1.425,0,0,0,.574-.122,1.316,1.316,0,0,0,.593-.537,1.509,1.509,0,0,0,.207-.753,1.319,1.319,0,0,0-.179-.668,1.432,1.432,0,0,0-.555-.527L3.276,8.89A.868.868,0,0,1,2.8,8.1a.937.937,0,0,1,.245-.64.786.786,0,0,1,.282-.207A.96.96,0,0,1,3.7,7.177h.047l10,.452h.085a1.5,1.5,0,0,0,.621-.132,1.459,1.459,0,0,0,.64-.574,1.546,1.546,0,0,0,.226-.809,1.457,1.457,0,0,0-.2-.734,1.543,1.543,0,0,0-.6-.574L5.545.024,5.432.231l-.1.216a21.41,21.41,0,0,0,8.407,1.544,25.668,25.668,0,0,0,3.192-.2.237.237,0,1,0-.056-.471,24.694,24.694,0,0,1-3.135.2,23.659,23.659,0,0,1-6-.753A17.168,17.168,0,0,1,6.091.25C5.9.184,5.762.118,5.668.08,5.62.062,5.583.043,5.564.033A.035.035,0,0,0,5.536.024H5.526a.234.234,0,0,0-.311.1.234.234,0,0,0,.1.311L14.291,5.22a.939.939,0,0,1,.414.4,1.012,1.012,0,0,1,.132.5,1.085,1.085,0,0,1-.273.725.914.914,0,0,1-.32.235,1,1,0,0,1-.424.085h-.056l-10-.452H3.691a1.425,1.425,0,0,0-.574.122,1.352,1.352,0,0,0-.593.527,1.475,1.475,0,0,0-.207.744,1.378,1.378,0,0,0,.179.678A1.432,1.432,0,0,0,3.05,9.3l7.918,4.226a.941.941,0,0,1,.367.348.874.874,0,0,1,.113.433,1.009,1.009,0,0,1-.245.649.786.786,0,0,1-.282.207.96.96,0,0,1-.377.075.458.458,0,0,1-.113-.009L.264,14.133A.241.241,0,0,0,0,14.34.284.284,0,0,0,.226,14.613Z" transform="translate(109.924 236.621)" fill="#fff"/>
      <path id="Vector-22" data-name="Vector" d="M138.846,69.407A69.423,69.423,0,1,1,69.423,0,69.415,69.415,0,0,1,138.846,69.407Z" transform="translate(16.89)" fill="#d0f0e4"/>
      <path id="Vector-23" data-name="Vector" d="M50.377,69.1A73.024,73.024,0,0,1,14.687,42.977,72.505,72.505,0,0,1,.659,0H0A73.2,73.2,0,0,0,14.15,43.372,73.614,73.614,0,0,0,50.17,69.727Z" transform="translate(12.785 69.416)" fill="#ffcf2d"/>
      <path id="Vector-24" data-name="Vector" d="M45.18.941h.132q1.412,0,2.8.085a.467.467,0,0,0,.5-.442.467.467,0,0,0-.442-.5Q46.753,0,45.312,0H45.18a.471.471,0,1,0,0,.941Zm-6.035.424c.913-.132,1.845-.226,2.777-.3a.468.468,0,0,0,.433-.508.468.468,0,0,0-.508-.433c-.951.075-1.9.169-2.834.3a.475.475,0,0,0,.132.941ZM33.224,2.607q1.342-.381,2.711-.678a.467.467,0,1,0-.2-.913c-.932.2-1.855.433-2.768.687a.477.477,0,0,0-.33.584A.468.468,0,0,0,33.224,2.607Zm-5.7,2.042c.847-.376,1.713-.715,2.589-1.035a.47.47,0,1,0-.32-.885c-.894.329-1.779.678-2.645,1.064a.468.468,0,1,0,.377.857Zm-5.366,2.8q1.186-.734,2.429-1.384a.474.474,0,1,0-.442-.838c-.838.442-1.666.913-2.476,1.412a.473.473,0,1,0,.49.809Zm-4.933,3.511c.725-.593,1.459-1.158,2.222-1.7a.472.472,0,1,0-.555-.762c-.772.555-1.525,1.139-2.269,1.741a.465.465,0,0,0-.066.659A.487.487,0,0,0,17.229,10.956ZM12.813,15.1c.631-.687,1.29-1.346,1.968-1.986a.473.473,0,1,0-.65-.687c-.687.659-1.365,1.327-2.005,2.024a.473.473,0,0,0,.687.649ZM9,19.794c.537-.762,1.1-1.506,1.685-2.231a.469.469,0,0,0-.734-.584c-.593.744-1.167,1.506-1.713,2.287A.464.464,0,1,0,9,19.794ZM5.865,24.98c.433-.828.885-1.647,1.365-2.447a.473.473,0,0,0-.81-.489c-.49.819-.951,1.647-1.393,2.494a.474.474,0,0,0,.838.442Zm-2.41,5.563c.311-.885.65-1.751,1.017-2.607a.472.472,0,0,0-.866-.376c-.377.875-.716,1.76-1.036,2.664a.471.471,0,0,0,.885.32Zm-1.61,5.826c.188-.913.4-1.826.65-2.72a.468.468,0,0,0-.9-.245c-.245.913-.471,1.845-.659,2.777a.466.466,0,1,0,.913.188Zm-.81,6.005c.056-.932.151-1.864.273-2.786a.47.47,0,0,0-.932-.122C.254,40.407.16,41.348.1,42.308a.467.467,0,0,0,.932.066Zm.009,6.052c-.066-.922-.1-1.854-.1-2.8a.471.471,0,0,0-.941,0q.014,1.44.113,2.852a.465.465,0,0,0,.5.433A.451.451,0,0,0,1.045,48.426Zm.838,6c-.188-.9-.348-1.826-.48-2.748a.471.471,0,0,0-.932.141c.132.951.3,1.882.5,2.814A.478.478,0,0,0,1.525,55,.51.51,0,0,0,1.883,54.422Zm1.638,5.817c-.311-.875-.6-1.76-.857-2.664a.471.471,0,0,0-.9.264c.264.922.555,1.826.876,2.72a.464.464,0,0,0,.6.282A.472.472,0,0,0,3.521,60.239Zm2.42,5.544c-.433-.819-.838-1.666-1.214-2.513a.47.47,0,0,0-.857.386c.386.875.8,1.732,1.233,2.57a.474.474,0,0,0,.838-.442ZM9.1,70.941c-.537-.762-1.054-1.534-1.544-2.325a.471.471,0,0,0-.8.5c.5.809,1.026,1.6,1.582,2.381A.47.47,0,0,0,9,71.609.5.5,0,0,0,9.1,70.941Zm3.822,4.687c-.64-.678-1.252-1.384-1.845-2.1a.468.468,0,0,0-.725.593c.6.734,1.233,1.45,1.883,2.146a.475.475,0,0,0,.668.019A.463.463,0,0,0,12.926,75.628ZM17.36,79.76c-.725-.584-1.431-1.2-2.118-1.826a.473.473,0,1,0-.64.7c.7.649,1.422,1.271,2.156,1.873a.474.474,0,0,0,.659-.066A.468.468,0,0,0,17.36,79.76Zm4.952,3.483q-1.2-.734-2.344-1.525a.473.473,0,1,0-.546.772c.781.546,1.582,1.064,2.391,1.562a.475.475,0,0,0,.65-.16A.464.464,0,0,0,22.312,83.243ZM27.7,86.029c-.857-.367-1.7-.772-2.533-1.2a.469.469,0,1,0-.424.838c.847.433,1.713.838,2.589,1.214a.466.466,0,1,0,.367-.857ZM33.4,88.043c-.9-.254-1.789-.527-2.664-.838a.473.473,0,1,0-.311.894c.894.311,1.808.593,2.73.847a.477.477,0,0,0,.584-.329A.485.485,0,0,0,33.4,88.043Zm5.931,1.224c-.932-.122-1.845-.282-2.758-.461a.471.471,0,1,0-.188.922c.932.188,1.864.339,2.815.471a.468.468,0,0,0,.527-.4A.444.444,0,0,0,39.334,89.267Zm6.044.4h-.066c-.913,0-1.826-.028-2.73-.085a.471.471,0,1,0-.056.941c.923.056,1.855.085,2.787.085h.066a.466.466,0,0,0,.471-.471A.472.472,0,0,0,45.378,89.662Zm6.035-.414c-.923.122-1.845.226-2.777.292a.472.472,0,1,0,.075.941c.951-.075,1.9-.169,2.843-.3a.471.471,0,1,0-.141-.932Zm5.931-1.233c-.894.254-1.8.471-2.711.668a.467.467,0,1,0,.2.913c.932-.2,1.855-.424,2.768-.687a.473.473,0,0,0,.33-.584A.478.478,0,0,0,57.344,88.015Zm5.7-2.033c-.847.367-1.713.715-2.589,1.035a.47.47,0,1,0,.32.885c.894-.329,1.779-.678,2.645-1.054a.477.477,0,0,0,.245-.621A.469.469,0,0,0,63.04,85.982Zm5.366-2.8q-1.186.72-2.429,1.384a.474.474,0,1,0,.442.838c.847-.442,1.666-.913,2.476-1.412a.473.473,0,1,0-.49-.809Zm4.933-3.492c-.725.593-1.459,1.158-2.222,1.694a.473.473,0,1,0,.546.772c.772-.555,1.535-1.129,2.269-1.732A.465.465,0,0,0,74,79.77.45.45,0,0,0,73.339,79.694Zm4.425-4.141c-.64.678-1.29,1.346-1.968,1.986a.473.473,0,1,0,.65.687c.687-.649,1.365-1.327,2.015-2.024a.474.474,0,0,0-.019-.668A.486.486,0,0,0,77.764,75.553Zm3.822-4.7c-.537.762-1.1,1.506-1.685,2.231a.469.469,0,0,0,.734.584c.593-.744,1.167-1.506,1.723-2.278a.469.469,0,0,0-.113-.659A.489.489,0,0,0,81.586,70.856Zm3.144-5.177c-.433.828-.885,1.647-1.365,2.438a.473.473,0,0,0,.81.489c.49-.819.951-1.647,1.393-2.494a.464.464,0,0,0-.2-.631A.477.477,0,0,0,84.731,65.679Zm2.42-5.553c-.311.885-.65,1.751-1.017,2.607A.472.472,0,0,0,87,63.11c.377-.875.725-1.76,1.045-2.664a.475.475,0,0,0-.894-.32ZM88.77,54.29c-.188.913-.4,1.826-.65,2.72a.468.468,0,0,0,.9.245c.254-.913.471-1.835.668-2.777a.47.47,0,0,0-.367-.555A.478.478,0,0,0,88.77,54.29Zm.81-6c-.066.932-.151,1.864-.273,2.786a.47.47,0,0,0,.932.122c.122-.941.217-1.882.282-2.843a.472.472,0,0,0-.941-.066Zm0-6.052c.066.922.094,1.854.1,2.8a.471.471,0,0,0,.941,0c-.009-.96-.038-1.911-.1-2.852a.465.465,0,0,0-.5-.433A.453.453,0,0,0,89.579,42.243Zm-.819-6c.188.9.348,1.826.48,2.758a.471.471,0,0,0,.932-.141c-.132-.951-.3-1.882-.49-2.814a.472.472,0,1,0-.923.2Zm-1.638-5.826c.311.875.593,1.76.857,2.664a.471.471,0,0,0,.9-.264c-.264-.922-.555-1.826-.876-2.72a.464.464,0,0,0-.6-.282A.479.479,0,0,0,87.122,30.421Zm-2.41-5.544c.424.828.828,1.666,1.205,2.513a.472.472,0,0,0,.866-.376c-.386-.875-.8-1.732-1.233-2.57a.472.472,0,0,0-.838.433Zm-3.154-5.167c.537.762,1.054,1.534,1.544,2.334a.471.471,0,0,0,.8-.5c-.5-.809-1.026-1.6-1.572-2.381a.47.47,0,0,0-.659-.113A.481.481,0,0,0,81.558,19.709Zm-3.822-4.687c.64.678,1.252,1.384,1.845,2.1a.468.468,0,0,0,.725-.593c-.6-.734-1.233-1.45-1.883-2.146a.474.474,0,0,0-.668-.019A.463.463,0,0,0,77.736,15.022ZM73.311,10.89c.725.593,1.431,1.2,2.109,1.835a.473.473,0,1,0,.64-.7c-.7-.649-1.422-1.271-2.156-1.873a.474.474,0,0,0-.659.066A.485.485,0,0,0,73.311,10.89Zm-4.943-3.5c.8.489,1.582,1,2.344,1.534a.473.473,0,1,0,.546-.772c-.781-.546-1.582-1.064-2.391-1.562a.475.475,0,0,0-.65.16A.453.453,0,0,0,68.368,7.389ZM62.983,4.6c.857.376,1.7.772,2.533,1.2a.469.469,0,1,0,.424-.838c-.847-.433-1.7-.838-2.58-1.224a.477.477,0,0,0-.621.245A.485.485,0,0,0,62.983,4.6ZM57.278,2.57c.9.254,1.789.527,2.664.838a.473.473,0,1,0,.311-.894c-.894-.311-1.808-.6-2.721-.857a.474.474,0,1,0-.254.913ZM51.356,1.346c.932.122,1.845.282,2.758.461a.478.478,0,0,0,.555-.367A.478.478,0,0,0,54.3.885C53.371.7,52.439.537,51.488.414a.462.462,0,0,0-.527.4A.449.449,0,0,0,51.356,1.346Z" transform="translate(41 24.105)" fill="#fff"/>
      <path id="Vector-25" data-name="Vector" d="M0,.706V8.17a.711.711,0,0,0,.706.706.711.711,0,0,0,.706-.706V.706A.711.711,0,0,0,.706,0,.711.711,0,0,0,0,.706Z" transform="translate(85.606 23.879)" fill="#fff"/>
      <path id="Vector-26" data-name="Vector" d="M0,.706V8.179a.711.711,0,0,0,.706.706.711.711,0,0,0,.706-.706V.706A.711.711,0,0,0,.706,0,.711.711,0,0,0,0,.706Z" transform="translate(85.606 106.058)" fill="#fff"/>
      <path id="Vector-27" data-name="Vector" d="M.2,1.2l5.281,5.28a.706.706,0,1,0,1-1L1.2.2a.706.706,0,1,0-1,1Z" transform="translate(112.026 95.123)" fill="#fff"/>
      <path id="Vector-28" data-name="Vector" d="M.706,1.412H8.172A.711.711,0,0,0,8.878.706.711.711,0,0,0,8.172,0H.706A.711.711,0,0,0,0,.706.711.711,0,0,0,.706,1.412Z" transform="translate(122.973 68.701)" fill="#fff"/>
      <path id="Vector-29" data-name="Vector" d="M1.2,6.492,6.484,1.2a.706.706,0,0,0-1-1L.2,5.494a.706.706,0,0,0,1,1Z" transform="translate(112.026 37.002)" fill="#fff"/>
      <path id="Vector-30" data-name="Vector" d="M47.666,95.13A47.618,47.618,0,0,1,0,47.476C0,34.27,5.122,22.147,14.338,13.78l3.794,4.179A35.07,35.07,0,0,0,9.076,30.694,43.146,43.146,0,0,0,5.639,47.466a42.043,42.043,0,0,0,58.38,38.7A42.146,42.146,0,0,0,86.388,63.816a41.658,41.658,0,0,0,3.3-16.349,40.466,40.466,0,0,0-3.417-16.321,42.226,42.226,0,0,0-9.283-13.356,43.5,43.5,0,0,0-13.66-9.026A38.435,38.435,0,0,0,47.685,5.647V0A44.124,44.124,0,0,1,65.506,3.548a49.011,49.011,0,0,1,15.43,10.194A47.872,47.872,0,0,1,91.453,28.877a46.123,46.123,0,0,1,3.9,18.58A47.68,47.68,0,0,1,47.666,95.13Z" transform="translate(38.647 21.931)" fill="#d0f0e4"/>
      <path id="Vector-31" data-name="Vector" d="M48.372,95.836V95.13A47.136,47.136,0,0,1,5.065,29.8a42.12,42.12,0,0,1,10.45-14.787l-.471-.527-.527.471,3.794,4.179.527-.471-.471-.527a35.712,35.712,0,0,0-9.236,12.98A43.82,43.82,0,0,0,5.639,48.163,42.712,42.712,0,0,0,48.372,90.876,42.36,42.36,0,0,0,65,87.516,42.838,42.838,0,0,0,87.743,64.785,42.333,42.333,0,0,0,91.1,48.163a41.185,41.185,0,0,0-3.474-16.6A43.108,43.108,0,0,0,78.2,17.978,44.266,44.266,0,0,0,64.32,8.81a40.12,40.12,0,0,0-7.8-2.419A41.035,41.035,0,0,0,48.4,5.638v.706h.706V.7h-.716V1.4a45.692,45.692,0,0,1,8.953.828,44.557,44.557,0,0,1,8.6,2.664,48.281,48.281,0,0,1,15.2,10.043A47.143,47.143,0,0,1,91.509,29.847a45.4,45.4,0,0,1,3.841,18.3A46.969,46.969,0,0,1,48.372,95.112v1.431A48.352,48.352,0,0,0,96.763,48.163,46.842,46.842,0,0,0,92.808,29.3,48.754,48.754,0,0,0,82.142,13.94,49.742,49.742,0,0,0,66.485,3.6,46.075,46.075,0,0,0,57.617.857,47.164,47.164,0,0,0,48.391,0a.707.707,0,0,0-.706.706V6.353a.707.707,0,0,0,.706.706,37.686,37.686,0,0,1,15.374,3.068,42.781,42.781,0,0,1,13.444,8.885,41.5,41.5,0,0,1,9.132,13.13A39.747,39.747,0,0,1,89.7,48.182,41.34,41.34,0,0,1,32.3,86.236,41.262,41.262,0,0,1,7.061,48.182a42.472,42.472,0,0,1,3.38-16.5,34.429,34.429,0,0,1,8.887-12.49.7.7,0,0,0,.047-1l-3.794-4.179a.7.7,0,0,0-.49-.235.718.718,0,0,0-.508.179A43.543,43.543,0,0,0,3.766,29.244a48.418,48.418,0,0,0,44.606,67.3Z" transform="translate(37.941 21.225)" fill="#fff"/>
      <path id="Vector-32" data-name="Vector" d="M.091.552,29.681,30.9a.326.326,0,0,0,.471-.452L.562.1A.326.326,0,0,0,.091.552Z" transform="translate(62.487 45.145)" fill="#fe5244"/>
      <path id="Vector-33" data-name="Vector" d="M2.344,0A2.344,2.344,0,1,1,0,2.344,2.338,2.338,0,0,1,2.344,0Z" transform="translate(84.288 67.374)" fill="#d0f0e4"/>
      <path id="Vector-34" data-name="Vector" d="M3.041.706v.706a1.622,1.622,0,0,1,.64.132,1.651,1.651,0,0,1,.725.593A1.618,1.618,0,0,1,4.557,3.69a1.651,1.651,0,0,1-.593.725,1.619,1.619,0,0,1-1.553.151,1.651,1.651,0,0,1-.725-.593,1.618,1.618,0,0,1-.151-1.553,1.651,1.651,0,0,1,.593-.725,1.613,1.613,0,0,1,.913-.282V0A3.1,3.1,0,0,0,1.855.235a3.069,3.069,0,0,0-1.337,1.1A3.032,3.032,0,0,0,0,3.04,3.1,3.1,0,0,0,.235,4.226a3.069,3.069,0,0,0,1.1,1.337,3.034,3.034,0,0,0,1.7.518,3.1,3.1,0,0,0,1.186-.235,3.069,3.069,0,0,0,1.337-1.1,3.032,3.032,0,0,0,.518-1.7,3.1,3.1,0,0,0-.235-1.186A3.069,3.069,0,0,0,4.745.518,3.034,3.034,0,0,0,3.041,0Z" transform="translate(83.592 66.668)" fill="#fff"/>
      <path id="Vector-35" data-name="Vector" d="M.565,121.56V.565H109.8v121h.565V0H0V121.56Z" transform="translate(78.96 149.073)" fill="#66b0f0"/>
      <path id="Vector-36" data-name="Vector" d="M122.389,27.945H4.811A4.813,4.813,0,0,1,0,23.136V4.81A4.813,4.813,0,0,1,4.811,0H122.389A4.813,4.813,0,0,1,127.2,4.81V23.136A4.813,4.813,0,0,1,122.389,27.945Z" transform="translate(70.543 125.466)" fill="#fff"/>
      <path id="Vector-37" data-name="Vector" d="M122.671,28.228v-.282H5.093A4.532,4.532,0,0,1,.565,23.418V5.092A4.532,4.532,0,0,1,5.093.565H122.671A4.532,4.532,0,0,1,127.2,5.092V23.418a4.532,4.532,0,0,1-4.528,4.527v.565a5.11,5.11,0,0,0,5.093-5.092V5.092A5.11,5.11,0,0,0,122.671,0H5.093A5.11,5.11,0,0,0,0,5.092V23.418A5.11,5.11,0,0,0,5.093,28.51H122.671Z" transform="translate(70.261 125.184)" fill="#66b0f0"/>
      <path id="Vector-38" data-name="Vector" d="M122.954,27.945H4.811A4.813,4.813,0,0,1,0,23.136V4.81A4.813,4.813,0,0,1,4.811,0H122.954a4.813,4.813,0,0,1,4.811,4.81V23.136A4.813,4.813,0,0,1,122.954,27.945Z" transform="translate(70.261 122.172)" fill="#66b0f0"/>
      <path id="Vector-39" data-name="Vector" d="M.565,23.512V9.149a8.586,8.586,0,1,1,17.172,0V23.512H18.3V9.149a9.151,9.151,0,0,0-18.3,0V23.512Z" transform="translate(192.198 199.975)" fill="#ffcf2d"/>
      <path id="Vector-40" data-name="Vector" d="M6.976,59.957H40.012a6.978,6.978,0,0,0,6.976-6.975V6.975A6.978,6.978,0,0,0,40.012,0H6.976A6.978,6.978,0,0,0,0,6.975V52.982A6.972,6.972,0,0,0,6.976,59.957Z" transform="translate(176.739 210.761)" fill="#3fb1b5"/>
      <path id="Vector-41" data-name="Vector" d="M42.271,8.264A8.26,8.26,0,0,0,34.005,0H8.266A8.26,8.26,0,0,0,0,8.264V40.059H.565V8.264a7.714,7.714,0,0,1,7.7-7.7H34.005a7.714,7.714,0,0,1,7.7,7.7Z" transform="translate(181.729 213.18)" fill="#fff"/>
      <path id="Vector-42" data-name="Vector" d="M29.392,54.7H6.863A6.858,6.858,0,0,1,0,47.833V6.862A6.858,6.858,0,0,1,6.863,0H29.392a6.858,6.858,0,0,1,6.863,6.862V47.833A6.858,6.858,0,0,1,29.392,54.7Z" transform="translate(187.462 216.023)" fill="#fff"/>
      <path id="Vector-43" data-name="Vector" d="M29.675,54.977V54.7H7.146A6.589,6.589,0,0,1,.565,48.116V7.144A6.589,6.589,0,0,1,7.146.565H29.675a6.589,6.589,0,0,1,6.581,6.579V48.116A6.589,6.589,0,0,1,29.675,54.7v.565a7.135,7.135,0,0,0,7.146-7.144V7.144A7.135,7.135,0,0,0,29.675,0H7.146A7.135,7.135,0,0,0,0,7.144V48.116A7.135,7.135,0,0,0,7.146,55.26H29.675Z" transform="translate(187.18 215.74)" fill="#ffcf2d"/>
      <path id="Vector-44" data-name="Vector" d="M.565,23.512V9.149a8.586,8.586,0,1,1,17.172,0V23.512H18.3V9.149a9.151,9.151,0,0,0-18.3,0V23.512Z" transform="translate(197.159 203.203)" fill="#ffcf2d"/>
      <path id="Vector-45" data-name="Vector" d="M25.419,23.446H3.257A3.258,3.258,0,0,1,0,20.189V3.257A3.258,3.258,0,0,1,3.257,0H25.419a3.258,3.258,0,0,1,3.257,3.257V20.189A3.246,3.246,0,0,1,25.419,23.446Z" transform="translate(191.36 241.878)" fill="#ffcf2d"/>
      <path id="Vector-46" data-name="Vector" d="M2.787,0H0V.565H2.787" transform="translate(180.637 252.957)" fill="#ffcf2d"/>
      <path id="Vector-47" data-name="Vector" d="M10.921,0c0,13.723-15.007,34.082-9.838,40.6,4.933,6.222,9.838-.009,9.838-.009Z" transform="translate(166.251 223.788)" fill="#fff"/>
      <path id="Vector-48" data-name="Vector" d="M11.2.019h-.282a33.036,33.036,0,0,1-1.695,9.4C7.7,14.4,5.395,19.625,3.474,24.416c-.96,2.4-1.826,4.7-2.457,6.8A20.533,20.533,0,0,0,0,36.906a8.029,8.029,0,0,0,.264,2.127,5.021,5.021,0,0,0,.876,1.751,8.269,8.269,0,0,0,2.523,2.231,5.079,5.079,0,0,0,2.438.64A5.628,5.628,0,0,0,8.238,43.2a8.232,8.232,0,0,0,2.307-1.515,7.842,7.842,0,0,0,.876-.913l.056-.075V.009h-.555V40.6H11.2l-.226-.179.028.019-.028-.019.028.019-.028-.019a8.86,8.86,0,0,1-1.422,1.355,7.4,7.4,0,0,1-1.544.9,4.914,4.914,0,0,1-1.9.4,4.447,4.447,0,0,1-2.165-.574,7.872,7.872,0,0,1-2.354-2.09,4.3,4.3,0,0,1-.772-1.553A7.194,7.194,0,0,1,.574,36.9a24.952,24.952,0,0,1,1.695-7.68c1.525-4.4,3.832-9.5,5.752-14.58a72.615,72.615,0,0,0,2.457-7.558A28.986,28.986,0,0,0,11.5,0H11.2Z" transform="translate(165.969 223.769)" fill="#3fb1b5"/>
      <path id="Vector-49" data-name="Vector" d="M.235.471h24.9a.233.233,0,0,0,.235-.235A.233.233,0,0,0,25.137,0H.235A.233.233,0,0,0,0,.235.233.233,0,0,0,.235.471Z" transform="translate(192.894 247.93)" fill="#fff"/>
      <path id="Vector-50" data-name="Vector" d="M.282.282V.565h3.3V1.713H.565V.282H.282v0H0v2H4.142V0H0V.282Z" transform="translate(195.37 226.15)" fill="#ffcf2d"/>
      <path id="Vector-51" data-name="Vector" d="M.282.282V.565h3.3V1.713H.565V.282H.282v0H0v2H4.142V0H0V.282Z" transform="translate(213.041 226.15)" fill="#ffcf2d"/>
      <path id="Vector-52" data-name="Vector" d="M.471,1.384V.235A.233.233,0,0,0,.235,0,.233.233,0,0,0,0,.235V1.384a.233.233,0,0,0,.235.235A.233.233,0,0,0,.471,1.384Z" transform="translate(192.894 247.93)" fill="#fff"/>
      <path id="Vector-53" data-name="Vector" d="M.471,1.384V.235A.233.233,0,0,0,.235,0,.233.233,0,0,0,0,.235V1.384a.233.233,0,0,0,.235.235A.233.233,0,0,0,.471,1.384Z" transform="translate(195.154 247.93)" fill="#fff"/>
      <path id="Vector-54" data-name="Vector" d="M.471,1.384V.235A.233.233,0,0,0,.235,0,.233.233,0,0,0,0,.235V1.384a.233.233,0,0,0,.235.235A.233.233,0,0,0,.471,1.384Z" transform="translate(197.423 247.93)" fill="#fff"/>
      <path id="Vector-55" data-name="Vector" d="M.471,1.384V.235A.233.233,0,0,0,.235,0,.233.233,0,0,0,0,.235V1.384a.233.233,0,0,0,.235.235A.233.233,0,0,0,.471,1.384Z" transform="translate(199.682 247.93)" fill="#fff"/>
      <path id="Vector-56" data-name="Vector" d="M.471,1.384V.235A.233.233,0,0,0,.235,0,.233.233,0,0,0,0,.235V1.384a.233.233,0,0,0,.235.235A.233.233,0,0,0,.471,1.384Z" transform="translate(201.951 247.93)" fill="#fff"/>
      <path id="Vector-57" data-name="Vector" d="M.471,1.384V.235A.233.233,0,0,0,.235,0,.233.233,0,0,0,0,.235V1.384a.233.233,0,0,0,.235.235A.233.233,0,0,0,.471,1.384Z" transform="translate(204.211 247.93)" fill="#fff"/>
      <path id="Vector-58" data-name="Vector" d="M.471,1.384V.235A.233.233,0,0,0,.235,0,.233.233,0,0,0,0,.235V1.384a.233.233,0,0,0,.235.235A.233.233,0,0,0,.471,1.384Z" transform="translate(206.583 247.93)" fill="#fff"/>
      <path id="Vector-59" data-name="Vector" d="M.471,1.384V.235A.233.233,0,0,0,.235,0,.233.233,0,0,0,0,.235V1.384a.233.233,0,0,0,.235.235A.233.233,0,0,0,.471,1.384Z" transform="translate(208.852 247.93)" fill="#fff"/>
      <path id="Vector-60" data-name="Vector" d="M.471,1.384V.235A.233.233,0,0,0,.235,0,.233.233,0,0,0,0,.235V1.384a.233.233,0,0,0,.235.235A.233.233,0,0,0,.471,1.384Z" transform="translate(211.008 247.93)" fill="#fff"/>
      <path id="Vector-61" data-name="Vector" d="M.471,1.384V.235A.233.233,0,0,0,.235,0,.233.233,0,0,0,0,.235V1.384a.233.233,0,0,0,.235.235A.233.233,0,0,0,.471,1.384Z" transform="translate(213.267 247.93)" fill="#fff"/>
      <path id="Vector-62" data-name="Vector" d="M.471,1.384V.235A.233.233,0,0,0,.235,0,.233.233,0,0,0,0,.235V1.384a.233.233,0,0,0,.235.235A.233.233,0,0,0,.471,1.384Z" transform="translate(215.536 247.93)" fill="#fff"/>
      <path id="Vector-63" data-name="Vector" d="M.471,1.384V.235A.233.233,0,0,0,.235,0,.233.233,0,0,0,0,.235V1.384a.233.233,0,0,0,.235.235A.233.233,0,0,0,.471,1.384Z" transform="translate(217.796 247.93)" fill="#fff"/>
      <path id="Vector-64" data-name="Vector" d="M1.006,5.083a1.008,1.008,0,0,1-1-1.139L.507,0h1L2,3.944A1,1,0,0,1,1.006,5.083Z" transform="translate(194.75 248.156)" fill="#fff"/>
      <path id="Vector-65" data-name="Vector" d="M1.271,5.365V5.083a.725.725,0,0,1-.518-.216.711.711,0,0,1-.207-.508.32.32,0,0,1,.009-.094l.471-3.7h.5L2,4.264a.386.386,0,0,1,.009.1.689.689,0,0,1-.207.5.725.725,0,0,1-.518.216v.565a1.3,1.3,0,0,0,.913-.376,1.274,1.274,0,0,0,.377-.9,1.139,1.139,0,0,0-.009-.179l-.282.038.282-.038L2.034,0H.537L.009,4.189A.968.968,0,0,0,0,4.349a1.289,1.289,0,0,0,.367.9,1.272,1.272,0,0,0,.913.386V5.365Z" transform="translate(194.485 247.874)" fill="#3fb1b5"/>
      <path id="Vector-66" data-name="Vector" d="M0,0H42.13V22.279H0Z" transform="translate(116.58 122.163)" fill="#fff"/>
      <path id="Vector-67" data-name="Vector" d="M1.751.875A.876.876,0,1,1,.876,0,.875.875,0,0,1,1.751.875Z" transform="translate(152.902 137.938)" fill="#fe5244"/>
      <path id="Vector-68" data-name="Vector" d="M1.111.235V.471A.643.643,0,1,1,.659.659.64.64,0,0,1,1.111.471V0A1.065,1.065,0,0,0,.33.329,1.119,1.119,0,0,0,0,1.111a1.111,1.111,0,0,0,2.222,0,1.064,1.064,0,0,0-.33-.781A1.119,1.119,0,0,0,1.111,0Z" transform="translate(152.666 137.702)" fill="#fe5244"/>
      <path id="Vector-69" data-name="Vector" d="M.876,0a.88.88,0,0,1,.876.875A.876.876,0,0,1,0,.875.88.88,0,0,1,.876,0Z" transform="translate(149.663 137.938)" fill="#fff"/>
      <path id="Vector-70" data-name="Vector" d="M1.111.235V.471A.643.643,0,1,1,.659.659.64.64,0,0,1,1.111.471V0A1.113,1.113,0,0,0,0,1.111a1.064,1.064,0,0,0,.33.781,1.119,1.119,0,0,0,.781.329,1.065,1.065,0,0,0,.781-.329,1.119,1.119,0,0,0,.33-.781,1.064,1.064,0,0,0-.33-.781A1.119,1.119,0,0,0,1.111,0Z" transform="translate(149.427 137.702)" fill="#fe5244"/>
      <path id="Vector-71" data-name="Vector" d="M1.751.875A.876.876,0,1,1,.876,0,.875.875,0,0,1,1.751.875Z" transform="translate(146.434 137.938)" fill="#fff"/>
      <path id="Vector-72" data-name="Vector" d="M1.111.235V.471A.643.643,0,1,1,.659.659.64.64,0,0,1,1.111.471V0A1.113,1.113,0,0,0,0,1.111a1.064,1.064,0,0,0,.33.781,1.119,1.119,0,0,0,.781.329A1.113,1.113,0,0,0,2.222,1.111a1.064,1.064,0,0,0-.33-.781A1.119,1.119,0,0,0,1.111,0Z" transform="translate(146.198 137.702)" fill="#fe5244"/>
      <path id="Vector-73" data-name="Vector" d="M.876,0a.88.88,0,0,1,.876.875A.876.876,0,0,1,0,.875.88.88,0,0,1,.876,0Z" transform="translate(152.902 134.672)" fill="#fe5244"/>
      <path id="Vector-74" data-name="Vector" d="M1.111.235V.471A.643.643,0,1,1,.659.659.64.64,0,0,1,1.111.471V0A1.065,1.065,0,0,0,.33.329,1.119,1.119,0,0,0,0,1.111a1.064,1.064,0,0,0,.33.781,1.119,1.119,0,0,0,.781.329,1.065,1.065,0,0,0,.781-.329,1.119,1.119,0,0,0,.33-.781,1.064,1.064,0,0,0-.33-.781A1.119,1.119,0,0,0,1.111,0Z" transform="translate(152.666 134.436)" fill="#fe5244"/>
      <path id="Vector-75" data-name="Vector" d="M.876,0a.88.88,0,0,1,.876.875A.876.876,0,0,1,0,.875.88.88,0,0,1,.876,0Z" transform="translate(149.663 134.672)" fill="#fff"/>
      <path id="Vector-76" data-name="Vector" d="M1.111.235V.471A.643.643,0,1,1,.659.659.64.64,0,0,1,1.111.471V0A1.113,1.113,0,0,0,0,1.111a1.064,1.064,0,0,0,.33.781,1.119,1.119,0,0,0,.781.329A1.113,1.113,0,0,0,2.222,1.111a1.064,1.064,0,0,0-.33-.781A1.119,1.119,0,0,0,1.111,0Z" transform="translate(149.427 134.436)" fill="#fe5244"/>
      <path id="Vector-77" data-name="Vector" d="M.876,0a.88.88,0,0,1,.876.875A.876.876,0,0,1,0,.875.88.88,0,0,1,.876,0Z" transform="translate(146.434 134.672)" fill="#fff"/>
      <path id="Vector-78" data-name="Vector" d="M1.111.235V.471A.643.643,0,1,1,.659.659.64.64,0,0,1,1.111.471V0A1.113,1.113,0,0,0,0,1.111a1.064,1.064,0,0,0,.33.781,1.119,1.119,0,0,0,.781.329,1.065,1.065,0,0,0,.781-.329,1.119,1.119,0,0,0,.33-.781,1.064,1.064,0,0,0-.33-.781A1.119,1.119,0,0,0,1.111,0Z" transform="translate(146.198 134.436)" fill="#fe5244"/>
      <path id="Vector-79" data-name="Vector" d="M.876,0a.88.88,0,0,1,.876.875A.876.876,0,0,1,0,.875.88.88,0,0,1,.876,0Z" transform="translate(152.902 128.158)" fill="#fff"/>
      <path id="Vector-80" data-name="Vector" d="M1.111.235V.471A.643.643,0,1,1,.659.659.64.64,0,0,1,1.111.471V0A1.113,1.113,0,0,0,0,1.111a1.064,1.064,0,0,0,.33.781,1.119,1.119,0,0,0,.781.329,1.065,1.065,0,0,0,.781-.329,1.119,1.119,0,0,0,.33-.781A1.113,1.113,0,0,0,1.111,0Z" transform="translate(152.666 127.923)" fill="#fe5244"/>
      <path id="Vector-81" data-name="Vector" d="M.876,0a.88.88,0,0,1,.876.875A.876.876,0,0,1,0,.875.88.88,0,0,1,.876,0Z" transform="translate(149.663 128.158)" fill="#fe5244"/>
      <path id="Vector-82" data-name="Vector" d="M1.111.235V.471A.643.643,0,1,1,.659.659.64.64,0,0,1,1.111.471V0A1.065,1.065,0,0,0,.33.329,1.119,1.119,0,0,0,0,1.111a1.064,1.064,0,0,0,.33.781,1.119,1.119,0,0,0,.781.329A1.113,1.113,0,0,0,2.222,1.111a1.064,1.064,0,0,0-.33-.781A1.119,1.119,0,0,0,1.111,0Z" transform="translate(149.427 127.923)" fill="#fe5244"/>
      <path id="Vector-83" data-name="Vector" d="M.876,0a.88.88,0,0,1,.876.875A.876.876,0,0,1,0,.875.88.88,0,0,1,.876,0Z" transform="translate(146.434 128.158)" fill="#fff"/>
      <path id="Vector-84" data-name="Vector" d="M1.111.235V.471A.643.643,0,1,1,.659.659.64.64,0,0,1,1.111.471V0A1.065,1.065,0,0,0,.33.329,1.119,1.119,0,0,0,0,1.111a1.064,1.064,0,0,0,.33.781,1.119,1.119,0,0,0,.781.329,1.065,1.065,0,0,0,.781-.329,1.119,1.119,0,0,0,.33-.781A1.113,1.113,0,0,0,1.111,0Z" transform="translate(146.198 127.923)" fill="#fe5244"/>
      <path id="Vector-85" data-name="Vector" d="M1.751.875A.876.876,0,1,1,.876,0,.875.875,0,0,1,1.751.875Z" transform="translate(152.902 131.415)" fill="#fff"/>
      <path id="Vector-86" data-name="Vector" d="M1.111.235V.471A.643.643,0,1,1,.659.659.64.64,0,0,1,1.111.471V0A1.111,1.111,0,1,0,2.222,1.111,1.113,1.113,0,0,0,1.111,0Z" transform="translate(152.666 131.18)" fill="#fe5244"/>
      <path id="Vector-87" data-name="Vector" d="M.876,0a.88.88,0,0,1,.876.875A.876.876,0,0,1,0,.875.88.88,0,0,1,.876,0Z" transform="translate(149.663 131.415)" fill="#fff"/>
      <path id="Vector-88" data-name="Vector" d="M1.111.235V.471A.643.643,0,1,1,.659.659.64.64,0,0,1,1.111.471V0A1.065,1.065,0,0,0,.33.329,1.119,1.119,0,0,0,0,1.111a1.064,1.064,0,0,0,.33.781,1.119,1.119,0,0,0,.781.329,1.065,1.065,0,0,0,.781-.329,1.119,1.119,0,0,0,.33-.781,1.064,1.064,0,0,0-.33-.781A1.119,1.119,0,0,0,1.111,0Z" transform="translate(149.427 131.18)" fill="#fe5244"/>
      <path id="Vector-89" data-name="Vector" d="M1.751.875A.876.876,0,1,1,.876,0,.875.875,0,0,1,1.751.875Z" transform="translate(146.434 131.415)" fill="#fe5244"/>
      <path id="Vector-90" data-name="Vector" d="M1.111.235V.471A.643.643,0,1,1,.659.659.64.64,0,0,1,1.111.471V0A1.065,1.065,0,0,0,.33.329,1.119,1.119,0,0,0,0,1.111a1.064,1.064,0,0,0,.33.781,1.119,1.119,0,0,0,.781.329A1.111,1.111,0,1,0,1.111,0Z" transform="translate(146.198 131.18)" fill="#fe5244"/>
      <path id="Vector-91" data-name="Vector" d="M1.751.875A.876.876,0,1,1,.876,0,.875.875,0,0,1,1.751.875Z" transform="translate(127.388 131.415)" fill="#fe5244"/>
      <path id="Vector-92" data-name="Vector" d="M1.111.235V.471A.643.643,0,1,1,.659.659.64.64,0,0,1,1.111.471V0A1.111,1.111,0,1,0,2.222,1.111,1.113,1.113,0,0,0,1.111,0Z" transform="translate(127.153 131.18)" fill="#fe5244"/>
      <path id="Vector-93" data-name="Vector" d="M.876,0a.88.88,0,0,1,.876.875A.876.876,0,0,1,0,.875.88.88,0,0,1,.876,0Z" transform="translate(124.149 131.415)" fill="#fff"/>
      <path id="Vector-94" data-name="Vector" d="M1.111.235V.471A.643.643,0,1,1,.659.659.64.64,0,0,1,1.111.471V0A1.065,1.065,0,0,0,.33.329,1.119,1.119,0,0,0,0,1.111a1.064,1.064,0,0,0,.33.781,1.12,1.12,0,0,0,.781.329,1.065,1.065,0,0,0,.781-.329,1.119,1.119,0,0,0,.33-.781,1.064,1.064,0,0,0-.33-.781A1.12,1.12,0,0,0,1.111,0Z" transform="translate(123.914 131.18)" fill="#fe5244"/>
      <path id="Vector-95" data-name="Vector" d="M.876,0a.88.88,0,0,1,.876.875A.876.876,0,0,1,0,.875.88.88,0,0,1,.876,0Z" transform="translate(120.92 124.902)" fill="#fff"/>
      <path id="Vector-96" data-name="Vector" d="M1.111.235V.471A.643.643,0,1,1,.659.659.64.64,0,0,1,1.111.471V0A1.065,1.065,0,0,0,.33.329,1.119,1.119,0,0,0,0,1.111a1.064,1.064,0,0,0,.33.781,1.119,1.119,0,0,0,.781.329,1.065,1.065,0,0,0,.781-.329,1.119,1.119,0,0,0,.33-.781A1.113,1.113,0,0,0,1.111,0Z" transform="translate(120.685 124.666)" fill="#fe5244"/>
      <path id="Vector-97" data-name="Vector" d="M.876,0a.88.88,0,0,1,.876.875A.876.876,0,0,1,0,.875.88.88,0,0,1,.876,0Z" transform="translate(127.388 128.158)" fill="#fff"/>
      <path id="Vector-98" data-name="Vector" d="M1.111.235V.471A.643.643,0,1,1,.659.659.64.64,0,0,1,1.111.471V0A1.113,1.113,0,0,0,0,1.111a1.064,1.064,0,0,0,.33.781,1.119,1.119,0,0,0,.781.329,1.065,1.065,0,0,0,.781-.329,1.119,1.119,0,0,0,.33-.781A1.113,1.113,0,0,0,1.111,0Z" transform="translate(127.153 127.923)" fill="#fe5244"/>
      <path id="Vector-99" data-name="Vector" d="M.876,0a.88.88,0,0,1,.876.875A.876.876,0,0,1,0,.875.88.88,0,0,1,.876,0Z" transform="translate(124.149 128.158)" fill="#fff"/>
      <path id="Vector-100" data-name="Vector" d="M1.111.235V.471A.643.643,0,1,1,.659.659.64.64,0,0,1,1.111.471V0A1.065,1.065,0,0,0,.33.329,1.119,1.119,0,0,0,0,1.111a1.064,1.064,0,0,0,.33.781,1.12,1.12,0,0,0,.781.329A1.113,1.113,0,0,0,2.222,1.111a1.064,1.064,0,0,0-.33-.781A1.12,1.12,0,0,0,1.111,0Z" transform="translate(123.914 127.923)" fill="#fe5244"/>
      <path id="Vector-101" data-name="Vector" d="M.876,0a.88.88,0,0,1,.876.875A.876.876,0,0,1,0,.875.88.88,0,0,1,.876,0Z" transform="translate(120.92 128.158)" fill="#fe5244"/>
      <path id="Vector-102" data-name="Vector" d="M1.111.235V.471A.643.643,0,1,1,.659.659.64.64,0,0,1,1.111.471V0A1.065,1.065,0,0,0,.33.329,1.119,1.119,0,0,0,0,1.111a1.064,1.064,0,0,0,.33.781,1.119,1.119,0,0,0,.781.329,1.065,1.065,0,0,0,.781-.329,1.119,1.119,0,0,0,.33-.781A1.113,1.113,0,0,0,1.111,0Z" transform="translate(120.685 127.923)" fill="#fe5244"/>
      <path id="Vector-103" data-name="Vector" d="M.876,0a.88.88,0,0,1,.876.875A.876.876,0,0,1,0,.875.88.88,0,0,1,.876,0Z" transform="translate(139.627 134.672)" fill="#fff"/>
      <path id="Vector-104" data-name="Vector" d="M1.111.235V.471A.643.643,0,1,1,.659.659.64.64,0,0,1,1.111.471V0A1.065,1.065,0,0,0,.33.329,1.119,1.119,0,0,0,0,1.111a1.064,1.064,0,0,0,.33.781,1.119,1.119,0,0,0,.781.329,1.065,1.065,0,0,0,.781-.329,1.119,1.119,0,0,0,.33-.781,1.064,1.064,0,0,0-.33-.781A1.119,1.119,0,0,0,1.111,0Z" transform="translate(139.392 134.436)" fill="#fe5244"/>
      <path id="Vector-105" data-name="Vector" d="M.876,0a.88.88,0,0,1,.876.875A.876.876,0,0,1,0,.875.88.88,0,0,1,.876,0Z" transform="translate(136.388 134.672)" fill="#fff"/>
      <path id="Vector-106" data-name="Vector" d="M1.111.235V.471A.643.643,0,1,1,.659.659.64.64,0,0,1,1.111.471V0A1.113,1.113,0,0,0,0,1.111a1.064,1.064,0,0,0,.33.781,1.119,1.119,0,0,0,.781.329A1.113,1.113,0,0,0,2.222,1.111a1.064,1.064,0,0,0-.33-.781A1.119,1.119,0,0,0,1.111,0Z" transform="translate(136.153 134.436)" fill="#fe5244"/>
      <path id="Vector-107" data-name="Vector" d="M.876,0a.88.88,0,0,1,.876.875A.876.876,0,0,1,0,.875.88.88,0,0,1,.876,0Z" transform="translate(133.159 134.672)" fill="#fe5244"/>
      <path id="Vector-108" data-name="Vector" d="M1.111.235V.471A.643.643,0,1,1,.659.659.64.64,0,0,1,1.111.471V0A1.113,1.113,0,0,0,0,1.111a1.064,1.064,0,0,0,.33.781,1.119,1.119,0,0,0,.781.329,1.065,1.065,0,0,0,.781-.329,1.119,1.119,0,0,0,.33-.781,1.064,1.064,0,0,0-.33-.781A1.119,1.119,0,0,0,1.111,0Z" transform="translate(132.924 134.436)" fill="#fe5244"/>
      <path id="Vector-109" data-name="Vector" d="M.876,0a.88.88,0,0,1,.876.875A.876.876,0,0,1,0,.875.88.88,0,0,1,.876,0Z" transform="translate(139.627 128.158)" fill="#fe5244"/>
      <path id="Vector-110" data-name="Vector" d="M1.111.235V.471A.643.643,0,1,1,.659.659.64.64,0,0,1,1.111.471V0A1.113,1.113,0,0,0,0,1.111a1.064,1.064,0,0,0,.33.781,1.119,1.119,0,0,0,.781.329,1.065,1.065,0,0,0,.781-.329,1.119,1.119,0,0,0,.33-.781A1.113,1.113,0,0,0,1.111,0Z" transform="translate(139.392 127.923)" fill="#fe5244"/>
      <path id="Vector-111" data-name="Vector" d="M.876,0a.88.88,0,0,1,.876.875A.876.876,0,0,1,0,.875.88.88,0,0,1,.876,0Z" transform="translate(136.388 128.158)" fill="#fff"/>
      <path id="Vector-112" data-name="Vector" d="M1.111.235V.471A.643.643,0,1,1,.659.659.64.64,0,0,1,1.111.471V0A1.065,1.065,0,0,0,.33.329,1.119,1.119,0,0,0,0,1.111a1.064,1.064,0,0,0,.33.781,1.119,1.119,0,0,0,.781.329A1.113,1.113,0,0,0,2.222,1.111a1.064,1.064,0,0,0-.33-.781A1.119,1.119,0,0,0,1.111,0Z" transform="translate(136.153 127.923)" fill="#fe5244"/>
      <path id="Vector-113" data-name="Vector" d="M.876,0a.88.88,0,0,1,.876.875A.876.876,0,0,1,0,.875.88.88,0,0,1,.876,0Z" transform="translate(133.159 128.158)" fill="#fff"/>
      <path id="Vector-114" data-name="Vector" d="M1.111.235V.471A.643.643,0,1,1,.659.659.64.64,0,0,1,1.111.471V0A1.065,1.065,0,0,0,.33.329,1.119,1.119,0,0,0,0,1.111a1.064,1.064,0,0,0,.33.781,1.119,1.119,0,0,0,.781.329,1.065,1.065,0,0,0,.781-.329,1.119,1.119,0,0,0,.33-.781A1.113,1.113,0,0,0,1.111,0Z" transform="translate(132.924 127.923)" fill="#fe5244"/>
      <path id="Vector-115" data-name="Vector" d="M1.751.875A.876.876,0,1,1,.876,0,.875.875,0,0,1,1.751.875Z" transform="translate(139.627 131.415)" fill="#fff"/>
      <path id="Vector-116" data-name="Vector" d="M1.111.235V.471A.643.643,0,1,1,.659.659.64.64,0,0,1,1.111.471V0A1.111,1.111,0,1,0,2.222,1.111,1.113,1.113,0,0,0,1.111,0Z" transform="translate(139.392 131.18)" fill="#fe5244"/>
      <path id="Vector-117" data-name="Vector" d="M.876,0a.88.88,0,0,1,.876.875A.876.876,0,0,1,0,.875.88.88,0,0,1,.876,0Z" transform="translate(136.388 131.415)" fill="#fe5244"/>
      <path id="Vector-118" data-name="Vector" d="M1.111.235V.471A.643.643,0,1,1,.659.659.64.64,0,0,1,1.111.471V0A1.065,1.065,0,0,0,.33.329,1.119,1.119,0,0,0,0,1.111a1.064,1.064,0,0,0,.33.781,1.119,1.119,0,0,0,.781.329,1.065,1.065,0,0,0,.781-.329,1.119,1.119,0,0,0,.33-.781,1.064,1.064,0,0,0-.33-.781A1.119,1.119,0,0,0,1.111,0Z" transform="translate(136.153 131.18)" fill="#fe5244"/>
      <path id="Vector-119" data-name="Vector" d="M1.751.875A.876.876,0,1,1,.876,0,.875.875,0,0,1,1.751.875Z" transform="translate(133.159 131.415)" fill="#fff"/>
      <path id="Vector-120" data-name="Vector" d="M1.111.235V.471A.643.643,0,1,1,.659.659.64.64,0,0,1,1.111.471V0A1.065,1.065,0,0,0,.33.329,1.119,1.119,0,0,0,0,1.111a1.064,1.064,0,0,0,.33.781,1.119,1.119,0,0,0,.781.329A1.111,1.111,0,1,0,1.111,0Z" transform="translate(132.924 131.18)" fill="#fe5244"/>
      <path id="Vector-121" data-name="Vector" d="M108.418,56.738H64.97l.038-5.064H38.835L31.219,29.366,23.066,44.379,46.084,64.013,35.079,78.922,7.889,61.5A17.353,17.353,0,0,1,2.175,38.544L14.866,15.6A30.231,30.231,0,0,1,41.32,0H82.076a20.86,20.86,0,0,1,17.04,8.829l19.761,27.5A12.877,12.877,0,0,1,108.418,56.738Z" transform="translate(78.687 70.489)" fill="#fff"/>
      <path id="Vector-122" data-name="Vector" d="M108.71,57.029v-.282H65.544l.038-5.064H39.325L31.567,28.962,23,44.737,45.99,64.352,35.3,78.838,8.332,61.557a17.075,17.075,0,0,1-5.62-22.58L15.4,16.029A29.969,29.969,0,0,1,41.612.574H82.368a20.566,20.566,0,0,1,16.8,8.706l19.761,27.5a12.408,12.408,0,0,1,2.4,7.313,12.832,12.832,0,0,1-3.521,8.772,12.4,12.4,0,0,1-9.113,3.868v.574a12.975,12.975,0,0,0,9.518-4.047,13.38,13.38,0,0,0,3.681-9.158,12.925,12.925,0,0,0-2.514-7.643L99.634,8.951A21.154,21.154,0,0,0,82.358,0H41.6A30.512,30.512,0,0,0,14.9,15.737L2.212,38.685A17.631,17.631,0,0,0,8.021,62.018L35.436,79.581,46.753,64.249,23.706,44.6l7.739-14.241L38.92,52.248H65.007l-.038,5.064H108.7v-.282Z" transform="translate(78.395 70.197)" fill="#fe5244"/>
      <path id="Vector-123" data-name="Vector" d="M9.621,10.251C6.4,14.581,2.437,17.066.752,15.814S.31,10.044,3.52,5.714,10.327-.912,12.012.34,12.831,5.931,9.621,10.251Z" transform="translate(113.07 134.021)" fill="#fe5244"/>
      <path id="Vector-124" data-name="Vector" d="M.555.282.33.452,13.6,18.843,26.153,0H0L.33.452.555.282V.565H25.1L13.585,17.846.781.113.555.282v0Z" transform="translate(122.963 70.244)" fill="#fe5244"/>
      <path id="Vector-125" data-name="Vector" d="M1.648.282V.565A1.078,1.078,0,0,1,2.41,2.41a1.069,1.069,0,0,1-1.525,0A1.082,1.082,0,0,1,1.648.565V0A1.684,1.684,0,0,0,.48.48,1.643,1.643,0,0,0,0,1.647,1.684,1.684,0,0,0,.48,2.814a1.644,1.644,0,0,0,1.167.48,1.684,1.684,0,0,0,1.167-.48A1.643,1.643,0,0,0,3.3,1.647,1.683,1.683,0,0,0,2.815.48,1.644,1.644,0,0,0,1.648,0Z" transform="translate(135.051 92.156)" fill="#fe5244"/>
      <path id="Vector-126" data-name="Vector" d="M1.648.282V.565A1.078,1.078,0,0,1,2.41,2.41a1.069,1.069,0,0,1-1.525,0A1.082,1.082,0,0,1,1.648.565V0A1.684,1.684,0,0,0,.48.48,1.643,1.643,0,0,0,0,1.647,1.683,1.683,0,0,0,.48,2.814a1.644,1.644,0,0,0,1.167.48,1.684,1.684,0,0,0,1.167-.48A1.643,1.643,0,0,0,3.3,1.647,1.683,1.683,0,0,0,2.815.48,1.644,1.644,0,0,0,1.648,0Z" transform="translate(135.051 100.816)" fill="#fe5244"/>
      <path id="Vector-127" data-name="Vector" d="M20,.3l5.941,9.215H0V29H.565V10.081H26.973L20.467,0Z" transform="translate(143.741 98.557)" fill="#fe5244"/>
      <path id="Vector-128" data-name="Vector" d="M0,.565H6.863V0H0" transform="translate(170.196 108.072)" fill="#fe5244"/>
      <path id="Vector-129" data-name="Vector" d="M3.8,0c2.1,0,3.8,4.367,3.8,9.761s-1.7,9.761-3.8,9.761S0,15.154,0,9.761,1.7,0,3.8,0Z" transform="translate(140.22 108.035)" fill="#fe5244"/>
      <path id="Vector-130" data-name="Vector" d="M.009.565a1.463,1.463,0,0,1,.64.16A3.1,3.1,0,0,1,1.751,1.8a10.45,10.45,0,0,1,1.29,3.275,20.939,20.939,0,0,1,.5,4.621,18.173,18.173,0,0,1-1.092,6.551A6.4,6.4,0,0,1,1.3,18.175a2.279,2.279,0,0,1-.64.489,1.463,1.463,0,0,1-.64.16v.565a1.883,1.883,0,0,0,.894-.226,3.567,3.567,0,0,0,1.309-1.271,10.617,10.617,0,0,0,1.365-3.454A21,21,0,0,0,4.1,9.695,18.635,18.635,0,0,0,2.956,2.937,6.635,6.635,0,0,0,1.685.828a2.943,2.943,0,0,0-.791-.6A2,2,0,0,0,0,0V.565Z" transform="translate(147.78 108.101)" fill="#fe5244"/>
      <path id="Vector-131" data-name="Vector" d="M1.205,15.86A1.342,1.342,0,0,1,.734,15.2a2.876,2.876,0,0,1-.169-1.054,6.873,6.873,0,0,1,.226-1.638A14.709,14.709,0,0,1,1.958,9.488,23.335,23.335,0,0,1,4.029,6.156,22.527,22.527,0,0,1,7.88,2.024,8.824,8.824,0,0,1,9.6.922,3.454,3.454,0,0,1,11.015.555a1.68,1.68,0,0,1,.5.075,1.293,1.293,0,0,1,.424.216L12.277.4a1.96,1.96,0,0,0-.593-.3A2.208,2.208,0,0,0,11.015,0,3.89,3.89,0,0,0,9.367.424a11.379,11.379,0,0,0-2.806,2,25,25,0,0,0-2.984,3.4A22.779,22.779,0,0,0,.941,10.335a14.194,14.194,0,0,0-.7,2.042A7.449,7.449,0,0,0,0,14.156a3.51,3.51,0,0,0,.207,1.261,1.952,1.952,0,0,0,.659.9Z" transform="translate(109.858 131.5)" fill="#fe5244"/>
      <path id="Vector-132" data-name="Vector" d="M23.819,11.154C23.885,1.873,30.051-.668,40.181.141c10.921.875,6.449,15.9,12.512,16.4,2.542.207,5.442-2.673,9.3-5.045A19.972,19.972,0,0,1,93.11,28.058a21.023,21.023,0,0,1-5.479,13.5S75.853,25.018,71.287,23.465c-8.981-3.05-11.834,4.838-18.066,6.062a8.509,8.509,0,0,1-2.655.094C41.7,28.6,43.392,13.987,43.392,13.987c-2.3-.941-2.8-3.323-2.881-4.763a9.963,9.963,0,0,0,.019-1.158,7.358,7.358,0,0,0-.019,1.158c-.188,2.711-1.845,9.2-11.081,6.871v3.153c0,19.1.311,22.806-3.559,27.606-.574.715-4.415,6.485,2.467,9.6,8.868,4.01,2.608,14.561,2.608,14.561H12.182S1.045,69.039.075,58.931c-1.384-14.448,16.739-18.316,19.1-18.759a11.205,11.205,0,0,1-9.085-10.721c0-4.866,3.738-8.979,7.579-10.335.009,0,.009,0,.019-.009l.339-.113a8.236,8.236,0,0,0,5.705-6.071Z" transform="translate(99.794 51.57)" fill="#ffcf2d"/>
      <path id="Vector-133" data-name="Vector" d="M.235,5.28h0A.239.239,0,0,1,0,5.045L.075.235A.233.233,0,0,1,.311,0,.239.239,0,0,1,.546.235L.471,5.045A.246.246,0,0,1,.235,5.28Z" transform="translate(140.117 57.547)" fill="#a0505a"/>
      <path id="Vector-134" data-name="Vector" d="M2.915,2.811A.251.251,0,0,1,2.8,2.783,5.728,5.728,0,0,1,.015.317a.234.234,0,0,1,.141-.3.237.237,0,0,1,.3.132A5.4,5.4,0,0,0,3.019,2.368a.245.245,0,0,1,.1.32A.234.234,0,0,1,2.915,2.811Z" transform="translate(126.723 65.494)" fill="#a0505a"/>
      <path id="Vector-135" data-name="Vector" d="M5.649,2.824A2.824,2.824,0,1,1,2.824,0,2.824,2.824,0,0,1,5.649,2.824Z" transform="translate(158.437 54.479)" fill="#ffcf2d"/>
      <path id="Vector-136" data-name="Vector" d="M2.269,0A2.268,2.268,0,1,1,0,2.268,2.27,2.27,0,0,1,2.269,0Z" transform="translate(125.75 100.241)" fill="#ffcf2d"/>
      <path id="Vector-137" data-name="Vector" d="M28.084,2.24l-.009,1.713a1.116,1.116,0,0,1-.094.433l-4.124,9.186a3.741,3.741,0,0,1-3.4,2.174H11.636a9.859,9.859,0,0,1-6.072-2.1L5.253,13.4,0,9.271A22.521,22.521,0,0,1,2.372,5.337,18.075,18.075,0,0,1,8.2,0H20.863c1.007,2.25-2.269,4.057-2.269,4.057h5.724l2.071-2.25A.994.994,0,0,1,28.084,2.24Z" transform="translate(114.227 134.408)" fill="#a0505a"/>
      <path id="Vector-138" data-name="Vector" d="M10.846.14A3.5,3.5,0,0,1,7.663,2.173H.235a.235.235,0,1,0,0,.471H7.663A3.979,3.979,0,0,0,11.279.329a.234.234,0,0,0-.113-.311A.249.249,0,0,0,10.846.14Z" transform="translate(127.991 144.951)" fill="#73325a"/>
      <path id="Vector-139" data-name="Vector" d="M10.845.14A3.5,3.5,0,0,1,7.663,2.173H.235a.235.235,0,1,0,0,.471H7.663A3.979,3.979,0,0,0,11.279.329a.234.234,0,0,0-.113-.311A.249.249,0,0,0,10.845.14Z" transform="translate(129.29 142.043)" fill="#73325a"/>
      <path id="Vector-140" data-name="Vector" d="M10.845.14A3.5,3.5,0,0,1,7.663,2.173H.235a.235.235,0,1,0,0,.471H7.663A3.979,3.979,0,0,0,11.279.329a.234.234,0,0,0-.113-.311A.249.249,0,0,0,10.845.14Z" transform="translate(130.693 138.805)" fill="#73325a"/>
      <path id="Vector-141" data-name="Vector" d="M8.379,9.685a18.338,18.338,0,0,1-3.116,3.727L5.253,13.4,0,9.271A22.521,22.521,0,0,1,2.372,5.337,18.075,18.075,0,0,1,8.2,0h2.721A15.63,15.63,0,0,1,8.379,9.685Z" transform="translate(114.217 134.399)" fill="#73325a"/>
      <path id="Vector-142" data-name="Vector" d="M0,11.967S4.575-.241,6.345,0,2.4,11.063,2.4,11.063Z" transform="translate(131.625 103.08)" fill="#fe5244"/>
      <path id="Vector-143" data-name="Vector" d="M23.461,4.358c0,5.224-1.6,9.478-3.606,9.742a1.391,1.391,0,0,1-.2.009H1.017A1.012,1.012,0,0,1,0,13.093V7.144A4.036,4.036,0,0,1,2.608,3.36L10.412.4A6.349,6.349,0,0,1,12.625,0H23.056A23.175,23.175,0,0,1,23.461,4.358Z" transform="translate(124.366 113.437)" fill="#a0505a"/>
      <path id="Vector-144" data-name="Vector" d="M8.012.017,2.118,2.247A3.288,3.288,0,0,0,0,5.316a.233.233,0,0,0,.235.235.233.233,0,0,0,.235-.235A2.833,2.833,0,0,1,2.288,2.68L8.181.449a.242.242,0,0,0,.141-.3A.243.243,0,0,0,8.012.017Z" transform="translate(124.46 117.882)" fill="#73325a"/>
      <path id="Vector-145" data-name="Vector" d="M8.012.017,2.118,2.247A3.288,3.288,0,0,0,0,5.316a.233.233,0,0,0,.235.235.233.233,0,0,0,.235-.235A2.833,2.833,0,0,1,2.288,2.68L8.181.449a.242.242,0,0,0,.141-.3A.243.243,0,0,0,8.012.017Z" transform="translate(124.46 121.44)" fill="#73325a"/>
      <path id="Vector-146" data-name="Vector" d="M6.046.016.153,2.247a.242.242,0,0,0-.141.3.242.242,0,0,0,.3.141L6.206.459a.242.242,0,0,0,.141-.3A.227.227,0,0,0,6.046.016Z" transform="translate(126.105 124.763)" fill="#73325a"/>
      <path id="Vector-147" data-name="Vector" d="M7.607,4.367c0,5.224-1.6,9.478-3.606,9.742a1.391,1.391,0,0,1-.2.009C1.7,14.118,0,9.751,0,4.358A26.574,26.574,0,0,1,.442,0H7.155A25.778,25.778,0,0,1,7.607,4.367Z" transform="translate(140.22 113.428)" fill="#73325a"/>
      <path id="Vector-148" data-name="Vector" d="M17.021,6.871a2.424,2.424,0,0,1-.5,1.468,2.39,2.39,0,0,1-1.3.857l-1.3.339v1.45a6.331,6.331,0,0,1-6.336,6.335H6.336A6.338,6.338,0,0,1,0,11.012V6.871C9.236,9.205,10.893,2.711,11.081,0c.075,1.374.537,3.6,2.57,4.621l.358-.094A2.427,2.427,0,0,1,17.021,6.871Z" transform="translate(129.243 60.785)" fill="#a0505a"/>
      <path id="Vector-149" data-name="Vector" d="M.257.48C.266.48.417.471.633.471A5.542,5.542,0,0,1,1.829.6a3.073,3.073,0,0,1,1.28.593.234.234,0,1,0,.3-.358,3.437,3.437,0,0,0-1.478-.7A6.128,6.128,0,0,0,.633,0C.379,0,.219.019.21.019A.226.226,0,0,0,0,.273.239.239,0,0,0,.257.48Z" transform="translate(138.175 68.578)" fill="#73325a"/>
      <path id="Vector-150" data-name="Vector" d="M.341.791A3.492,3.492,0,0,1,1.819.461,3.2,3.2,0,0,1,3.128.734a.917.917,0,0,1,.264.188,2.347,2.347,0,0,1,.461.715A7.43,7.43,0,0,1,4.37,3.511a16.273,16.273,0,0,1,.2,2.588.235.235,0,0,0,.471,0,14.729,14.729,0,0,0-.452-3.793,5.168,5.168,0,0,0-.518-1.271A2.381,2.381,0,0,0,3.73.593a1.432,1.432,0,0,0-.4-.282A3.65,3.65,0,0,0,1.828,0a3.866,3.866,0,0,0-1.7.386A.235.235,0,0,0,.03.706.227.227,0,0,0,.341.791Z" transform="translate(130.728 68.776)" fill="#73325a"/>
      <path id="Vector-151" data-name="Vector" d="M.367,0C.574,0,.734.32.734.706s-.16.706-.367.706S0,1.092,0,.706.16,0,.367,0Z" transform="translate(132.396 70.818)" fill="#73325a"/>
      <path id="Vector-152" data-name="Vector" d="M.367,0C.574,0,.734.32.734.706s-.16.706-.367.706S0,1.092,0,.706.16,0,.367,0Z" transform="translate(139.231 70.818)" fill="#73325a"/>
      <path id="Vector-153" data-name="Vector" d="M.48,1.935A1.51,1.51,0,0,1,1.666.467.231.231,0,0,0,1.845.185.231.231,0,0,0,1.563.006,1.963,1.963,0,0,0,0,1.926a.233.233,0,0,0,.235.235A.223.223,0,0,0,.48,1.935Z" transform="translate(143.28 66.633)" fill="#73325a"/>
      <path id="Vector-154" data-name="Vector" d="M0,.565H126.192V0H0" transform="translate(0 270.351)" fill="#66b0f0"/>
    </g>
  </g>
</svg>
