<svg xmlns="http://www.w3.org/2000/svg" xmlns:xlink="http://www.w3.org/1999/xlink" width="284.066" height="330.514" viewBox="0 0 284.066 330.514">
  <defs>
    <filter id="Rectangle_32" x="0" y="5.362" width="284.066" height="323.413" filterUnits="userSpaceOnUse">
      <feOffset dx="-4" dy="4" input="SourceAlpha"/>
      <feGaussianBlur stdDeviation="6" result="blur"/>
      <feFlood flood-opacity="0.149"/>
      <feComposite operator="in" in2="blur"/>
      <feComposite in="SourceGraphic"/>
    </filter>
  </defs>
  <g id="finishQuiz" transform="translate(-34.709 -302.393)">
    <rect id="Rectangle_30" data-name="Rectangle 30" width="199.264" height="250.748" rx="14" transform="translate(120.284 360.914) rotate(6.601)" fill="#e45865"/>
    <g id="Group_52" data-name="Group 52">
      <g transform="matrix(1, 0, 0, 1, 34.71, 302.39)" filter="url(#Rectangle_32)">
        <rect id="Rectangle_32-2" data-name="Rectangle 32" width="199.264" height="250.748" rx="14" transform="matrix(0.98, -0.21, 0.21, 0.98, 22, 61.77)" fill="#edf3fe"/>
      </g>
      <g id="Frame" transform="translate(85.055 320.332) rotate(-12.306)">
        <g id="Group">
          <path id="Vector" d="M66.346,23.608V67.683H0L12.927,0c-.414,2.672,7.861,7.682,19.183,12.706,4.064,1.8,8.6,3.594,13.435,5.291a130.386,130.386,0,0,0,20.8,5.611Z" transform="translate(29.544 216.851)" fill="#9a3b82"/>
          <path id="Vector-2" data-name="Vector" d="M52.716,13.632v11.8a131.049,131.049,0,0,1-20.814-5.6C13.441,13.352-.77,5.349.032,1.755c.013-.053.027-.107.04-.147C1.316-1.906,17.665.526,36.381,7.086c6.016,2.111,11.443,4.289,16,6.386C52.489,13.525,52.6,13.579,52.716,13.632Z" transform="translate(43.174 213.573)" fill="#ffcf2d"/>
          <path id="Vector-3" data-name="Vector" d="M70.3,0A11.7,11.7,0,0,0,58.593,11.69V43.728a11.7,11.7,0,0,1-11.7,11.69H0a11.689,11.689,0,0,0,11.7-11.69V11.69A11.689,11.689,0,0,1,23.394,0Z" transform="translate(16.483 125.079)" fill="#fff"/>
          <path id="Vector-4" data-name="Vector" d="M70.3.334V0A12.032,12.032,0,0,0,58.259,12.024V44.062A11.361,11.361,0,0,1,46.9,55.418H0v.668A12.02,12.02,0,0,0,12.031,44.062V12.024A11.361,11.361,0,0,1,23.394.668H70.3V0H23.394A12.02,12.02,0,0,0,11.363,12.024V44.062a11.3,11.3,0,0,1-3.329,8.03A11.318,11.318,0,0,1,0,55.418v.668H46.9A12.029,12.029,0,0,0,58.927,44.062V12.024A11.361,11.361,0,0,1,70.3.668V.334Z" transform="translate(16.483 124.745)" fill="#ffcf2d"/>
          <path id="Vector-5" data-name="Vector" d="M0,0H29.865V27.7H0Z" transform="translate(36.415 141.659)" fill="#fff"/>
          <path id="Vector-6" data-name="Vector" d="M.334.334V.668h29.53V27.7H.668V.334H.334v0H0v28.03H30.533V0H0V.334Z" transform="translate(36.081 141.325)" fill="#ffcf2d"/>
          <path id="Vector-7" data-name="Vector" d="M29.851,0H0V.668H29.851" transform="translate(36.415 145.28)" fill="#ffcf2d"/>
          <path id="Vector-8" data-name="Vector" d="M29.851,0H0V.668H29.851" transform="translate(36.415 149.234)" fill="#ffcf2d"/>
          <path id="Vector-9" data-name="Vector" d="M29.851,0H0V.668H29.851" transform="translate(36.415 153.202)" fill="#ffcf2d"/>
          <path id="Vector-10" data-name="Vector" d="M29.851,0H0V.668H29.851" transform="translate(36.415 157.157)" fill="#ffcf2d"/>
          <path id="Vector-11" data-name="Vector" d="M29.851,0H0V.668H29.851" transform="translate(36.415 161.125)" fill="#ffcf2d"/>
          <path id="Vector-12" data-name="Vector" d="M29.851,0H0V.668H29.851" transform="translate(36.415 165.08)" fill="#ffcf2d"/>
          <path id="Vector-13" data-name="Vector" d="M0,11.69A11.693,11.693,0,0,1,11.59,0,11.684,11.684,0,0,1,23.18,11.69Z" transform="translate(75.076 125.079)" fill="#66b0f0"/>
          <path id="Vector-14" data-name="Vector" d="M.334,12.024H.668A11.362,11.362,0,0,1,11.924.668v0A11.353,11.353,0,0,1,23.18,12.024h.334V11.69H.334v.334h0v.334H23.849v-.334A12.015,12.015,0,0,0,11.924,0,12.024,12.024,0,0,0,0,12.024v.334H.334v-.334Z" transform="translate(74.742 124.745)" fill="#ffcf2d"/>
          <path id="Vector-15" data-name="Vector" d="M57.5,7.228H10.641A11.7,11.7,0,0,1,0,0H46.816A11.745,11.745,0,0,0,57.5,7.228Z" transform="translate(5.936 173.564)" fill="#ffcf2d"/>
          <path id="Vector-16" data-name="Vector" d="M5.4,4.329H0V0H2.54V2.4a.119.119,0,0,0,.053.107l.013.013Z" transform="translate(32.966 134.151)" fill="#fe5244"/>
          <path id="Vector-17" data-name="Vector" d="M4.666.013V.588c0,.107-.013.214-.013.321,0,.027-.013.067-.013.094-.013.053-.013.107-.027.16A2.107,2.107,0,0,1,3.476,2.725l-.12.04a1.252,1.252,0,0,1-.214.053c-.027,0-.053.013-.08.013L0,.842C.027.374.321,0,.668,0Z" transform="translate(35.8 135.634)" fill="#fe5244"/>
          <path id="Vector-18" data-name="Vector" d="M5.4,0V4.329H0l2.781-1.8.013-.013c.013-.013.013-.013.027-.013s.013-.013.013-.027a.013.013,0,0,1,.013-.013c0-.013,0-.013.013-.013V0Z" transform="translate(64.889 134.151)" fill="#fe5244"/>
          <path id="Vector-19" data-name="Vector" d="M4.666.829,1.6,2.819l-.241-.04c-.027-.013-.053-.013-.08-.027s-.067-.027-.107-.04-.067-.027-.094-.04A2.1,2.1,0,0,1,.147,1.457a1.615,1.615,0,0,1-.067-.24C.067,1.189.067,1.149.053,1.109A3.447,3.447,0,0,1,0,.575V0H4.01C4.345-.013,4.639.361,4.666.829Z" transform="translate(62.817 135.66)" fill="#fe5244"/>
          <path id="Vector-20" data-name="Vector" d="M31.7.908V4.676c-.027-.027-.053-.067-.08-.094a1.416,1.416,0,0,0-.16-.134.846.846,0,0,0-.428-.134H.668a.773.773,0,0,0-.428.134,1.416,1.416,0,0,0-.16.134A.581.581,0,0,0,0,4.676V.908C0,.4.294,0,.668,0H31.028C31.389,0,31.7.414,31.7.908Z" transform="translate(35.787 131.051)" fill="#fe5244"/>
          <path id="Vector-21" data-name="Vector" d="M41.883,31.37V83.742h-.013a131.049,131.049,0,0,1-20.814-5.6c-4.839-1.7-9.371-3.5-13.435-5.291L9.8,60.7l3.7-20.642A19.979,19.979,0,0,1,0,25.251H9.344a11.689,11.689,0,0,0,11.7-11.69V9.713h-6c-4.211,0-7.633-4.142-7.633-8.35V0H20.747a7.852,7.852,0,0,1,6.283,3.14l9.759,13.026A25.171,25.171,0,0,1,41.883,31.37Z" transform="translate(54.008 155.26)" fill="#a0505a"/>
          <path id="Vector-22" data-name="Vector" d="M34.263,11.249v11.8h-.013a131.049,131.049,0,0,1-20.814-5.6C8.6,15.752,4.064,13.948,0,12.158L2.179,0C6.992,1.176,12.339,2.766,17.9,4.716,23.916,6.827,29.343,9,33.888,11.1A2.428,2.428,0,0,1,34.263,11.249Z" transform="translate(61.627 215.956)" fill="#73325a"/>
          <path id="Vector-23" data-name="Vector" d="M14.077,9.713H7.633C3.422,9.713,0,5.571,0,1.363V0H14.077Z" transform="translate(61.587 155.26)" fill="#a0505a"/>
          <path id="Vector-24" data-name="Vector" d="M0,.628a15.156,15.156,0,0,1,4.692,3.22A16.952,16.952,0,0,1,8.034,8.51a19.677,19.677,0,0,1,1.885,7.308l.668-.053a20.22,20.22,0,0,0-1.978-7.6A17.609,17.609,0,0,0,3.3,1.777,13.7,13.7,0,0,0,.241,0Z" transform="translate(71.493 177.665)" fill="#73325a"/>
          <path id="Vector-25" data-name="Vector" d="M0,.668H6.323V0H0" transform="translate(67.536 195.261)" fill="#73325a"/>
          <path id="Vector-26" data-name="Vector" d="M.441,5.023,4.679,2.218A8.226,8.226,0,0,1,9.224.828a8.385,8.385,0,0,1,5.534,2.1A8.169,8.169,0,0,1,17.5,8.457l.922,11.664a8.976,8.976,0,0,0,2.994,6.052,9.179,9.179,0,0,0,6.069,2.311A8.928,8.928,0,0,0,32.1,27.2l2.674-1.59-.414-.695-2.674,1.59a8.19,8.19,0,0,1-4.211,1.162,8.4,8.4,0,0,1-5.534-2.111A8.126,8.126,0,0,1,19.21,20.04L18.288,8.377A8.992,8.992,0,0,0,15.28,2.311,9.171,9.171,0,0,0,9.224,0,8.969,8.969,0,0,0,4.238,1.523L0,4.329Z" transform="translate(61.427 41.11)" fill="#ffcf2d"/>
          <path id="Vector-27" data-name="Vector" d="M0,0,54.449,31.584,81.867,93.108,50.412,71.932,16.229,31.9Z" transform="translate(0.053 2.472)" fill="#9a3b82"/>
          <path id="Vector-28" data-name="Vector" d="M0,.695l55.491,32.2,27.953,62.7.722-.321L56.12,32.332.4,0Z" fill="#ffcf2d"/>
          <path id="Vector-29" data-name="Vector" d="M.608.369C3.148-1.782,13,5.687,22.585,17.056s15.32,22.312,12.767,24.463S22.96,36.2,13.375,24.832-1.945,2.52.608.369Z" transform="translate(14.538 34.247)" fill="#fff"/>
          <path id="Vector-30" data-name="Vector" d="M.59.358c2.5-2.1,12.138,5.224,21.55,16.366S37.165,38.609,34.665,40.707,22.527,35.483,13.116,24.34-1.9,2.469.59.358Z" transform="translate(13.674 35.714)" fill="#fff"/>
          <path id="Vector-31" data-name="Vector" d="M.922.695l.214.254A1.209,1.209,0,0,1,1.524.735a1.609,1.609,0,0,1,.535-.08A4.592,4.592,0,0,1,3.516.949a16.974,16.974,0,0,1,3.6,1.924,56.327,56.327,0,0,1,7.072,5.812,106.6,106.6,0,0,1,8.048,8.577,97.263,97.263,0,0,1,9.491,13.16,39.974,39.974,0,0,1,2.634,5.251,14.418,14.418,0,0,1,.682,2.084,7.281,7.281,0,0,1,.227,1.617,2.666,2.666,0,0,1-.12.868,1.155,1.155,0,0,1-.348.521,1.209,1.209,0,0,1-.388.214,1.609,1.609,0,0,1-.535.08,4.592,4.592,0,0,1-1.457-.294,16.974,16.974,0,0,1-3.6-1.924,56.327,56.327,0,0,1-7.072-5.812A106.6,106.6,0,0,1,13.7,24.449a97.263,97.263,0,0,1-9.491-13.16A39.974,39.974,0,0,1,1.577,6.039,14.418,14.418,0,0,1,.9,3.955,7.281,7.281,0,0,1,.668,2.338a2.666,2.666,0,0,1,.12-.868A1.155,1.155,0,0,1,1.136.949L.922.695.709.441a1.917,1.917,0,0,0-.548.815A3.1,3.1,0,0,0,0,2.351,7.012,7.012,0,0,0,.254,4.128,21.987,21.987,0,0,0,1.778,8.163,85.155,85.155,0,0,0,13.194,24.9a95.293,95.293,0,0,0,12.031,12.1,35.706,35.706,0,0,0,4.946,3.474,13.2,13.2,0,0,0,2.019.935,5.213,5.213,0,0,0,1.671.334,2.177,2.177,0,0,0,.735-.107,1.719,1.719,0,0,0,.615-.334,1.917,1.917,0,0,0,.548-.815,3.1,3.1,0,0,0,.16-1.1,7.012,7.012,0,0,0-.254-1.777,21.988,21.988,0,0,0-1.524-4.035,85.155,85.155,0,0,0-11.416-16.74,95.293,95.293,0,0,0-12.031-12.1A35.706,35.706,0,0,0,5.748,1.269,13.2,13.2,0,0,0,3.73.334,5.213,5.213,0,0,0,2.059,0a2.177,2.177,0,0,0-.735.107A1.719,1.719,0,0,0,.709.441Z" transform="translate(13.341 35.378)" fill="#ffcf2d"/>
          <path id="Vector-32" data-name="Vector" d="M39.944,41.536,34.757,45.9c.963-.815.749-2.872-.414-5.745-1.912-4.73-6.39-11.637-12.352-18.718S9.946,8.8,5.6,6.131C2.968,4.5.963,3.94,0,4.755L5.187.386C7.727-1.765,18.02,5.263,27.619,16.632S42.5,39.4,39.944,41.536Z" transform="translate(15.039 29.902)" fill="#ffcf2d"/>
          <path id="Vector-33" data-name="Vector" d="M11.683,1.857C13.154,1.149,14.584.521,15.961,0a11.867,11.867,0,0,1,2.072,2.979,11.476,11.476,0,0,1,1.056,3.46c-1.27.748-2.647,1.5-4.1,2.2-7.312,3.54-13.97,4.89-14.879,3.019S4.371,5.4,11.683,1.857Z" transform="translate(98.712 52.867)" fill="#ffcf2d"/>
          <path id="Vector-34" data-name="Vector" d="M2.019.4V.8a1.17,1.17,0,0,1,.856.361,1.191,1.191,0,0,1,.361.855,1.169,1.169,0,0,1-.361.855,1.193,1.193,0,0,1-.856.361,1.17,1.17,0,0,1-.856-.361A1.191,1.191,0,0,1,.8,2.017a1.169,1.169,0,0,1,.361-.855A1.193,1.193,0,0,1,2.019.8V0a2.008,2.008,0,1,0,1.43.588A2.021,2.021,0,0,0,2.019,0Z" transform="translate(95.462 63.435)" fill="#9a3b82"/>
        </g>
      </g>
    </g>
  </g>
</svg>
