<svg xmlns="http://www.w3.org/2000/svg" xmlns:xlink="http://www.w3.org/1999/xlink" width="266.276" height="317.261" viewBox="0 0 266.276 317.261">
  <defs>
    <filter id="Rectangle_32" x="0" y="6.657" width="266.276" height="310.603" filterUnits="userSpaceOnUse">
      <feOffset dx="-4" dy="4" input="SourceAlpha"/>
      <feGaussianBlur stdDeviation="6" result="blur"/>
      <feFlood flood-opacity="0.149"/>
      <feComposite operator="in" in2="blur"/>
      <feComposite in="SourceGraphic"/>
    </filter>
  </defs>
  <g id="goodSprint" transform="translate(-62.396 -321.491)">
    <g transform="matrix(1, 0, 0, 1, 62.4, 321.49)" filter="url(#Rectangle_32)">
      <rect id="Rectangle_32-2" data-name="Rectangle 32" width="199.264" height="250.748" rx="14" transform="matrix(0.99, 0.13, -0.13, 0.99, 54.72, 20.66)" fill="#edf3fe"/>
    </g>
    <rect id="Rectangle_30" data-name="Rectangle 30" width="199.264" height="250.748" rx="14" transform="matrix(0.997, -0.083, 0.083, 0.997, 78.58, 342.149)" fill="#fec55f"/>
    <ellipse id="Ellipse_52" data-name="Ellipse 52" cx="34.5" cy="5.5" rx="34.5" ry="5.5" transform="translate(136.329 581.188) rotate(7.636)" fill="#c4c4c4"/>
    <path id="Vector" d="M13.145,0C7.19,2.911,7.751,8.5,7.7,12.247,7.637,16.242,0,18.331,0,18.331A28.2,28.2,0,0,0,.587,5.359Z" transform="translate(157.136 541.043) rotate(7.636)" fill="#a0505a"/>
    <path id="Vector-2" data-name="Vector" d="M23.69,15.245l-1.357.734L19.486,9.485a.9.9,0,0,0-.823-.542,1,1,0,0,0-.35.07.883.883,0,0,0-.534.708l-1.252,9.415L.053,28.087c-.49-1.171,2.566-4.109,4.186-9.222,0,0,7.646-2.089,7.7-6.084.053-3.75-.5-9.345,5.447-12.247L18.637,0C25.468,3.138,23.69,15.245,23.69,15.245Z" transform="translate(153.014 539.952) rotate(7.636)" fill="#ffcf2d"/>
    <path id="Vector-3" data-name="Vector" d="M23.839,0V46.121l-13.627,5.9L0,5.717C4.572,5.892,12.191,4.93,23.839,0Z" transform="translate(153.979 493.548) rotate(7.636)" fill="#fff"/>
    <path id="Vector-4" data-name="Vector" d="M24.11.332h-.219V46.313l-13.25,5.734L.49,6.005l-.21.044-.009.219c.324.009.666.017,1.025.017,4.694,0,12.059-1.163,22.91-5.752l-.1-.2h0l-.088-.2C13.215,4.7,5.9,5.848,1.287,5.848.937,5.848.6,5.839.28,5.831L0,5.822,10.325,52.659l14-6.067V0l-.307.131Z" transform="translate(153.753 493.183) rotate(7.636)" fill="#9a3b82"/>
    <path id="Vector-5" data-name="Vector" d="M0,.026l2.689,45.22.438-.026L.438,0" transform="translate(166.922 499.359) rotate(7.636)" fill="#9a3b82"/>
    <path id="Vector-6" data-name="Vector" d="M23.839,0V12.072L.648,8.724,0,5.717C4.572,5.892,12.191,4.93,23.839,0Z" transform="translate(153.979 493.548) rotate(7.636)" fill="#9a3b82"/>
    <path id="Vector-7" data-name="Vector" d="M17.787,5.158,8.977,7.011a.853.853,0,0,1-1.033-.83.828.828,0,0,1,.271-.621L13.119.97,12.033,0S.648,2.229,0,9.318l.867.944c4.475,4.388,9.3,2.124,12.672.988,3.223-1.084,7.068,3.907,7.829,4.939H21.4c5.079-.166,8.679,1.635,9.563.822Z" transform="translate(232.889 467.349) rotate(7.636)" fill="#ffcf2d"/>
    <path id="Vector-8" data-name="Vector" d="M0,0C4.475,4.388,9.3,2.124,12.672.988c3.591-1.206,7.873,4.939,7.873,4.939A26.718,26.718,0,0,0,8.767,9.493Z" transform="translate(232.394 477.637) rotate(7.636)" fill="#a0505a"/>
    <path id="Vector-9" data-name="Vector" d="M0,27.475s2.216,14.939,19.214,14.66S62.986,10.3,62.986,10.3L53.571,0Z" transform="translate(178.592 469.525) rotate(7.636)" fill="#fff"/>
    <path id="Vector-10" data-name="Vector" d="M.245,27.728l-.219.035a18.958,18.958,0,0,0,3.2,7.43A16.871,16.871,0,0,0,8.968,40.3,20.718,20.718,0,0,0,19,42.615h.473c4.318-.07,9.2-2.115,14.117-5.123,7.374-4.511,14.827-11.207,20.432-16.775S63.4,10.708,63.4,10.708l.123-.149L53.86,0,0,27.623l.026.157.219-.052.1.192L53.764.524l9.3,10.175.158-.149-.166-.14s-.026.026-.079.087A184.578,184.578,0,0,1,46.731,26.942,97.426,97.426,0,0,1,32.885,37.388c-4.729,2.832-9.388,4.72-13.443,4.782h-.464a20.279,20.279,0,0,1-9.817-2.264,16.348,16.348,0,0,1-4.528-3.628A19.216,19.216,0,0,1,.6,28.463c-.061-.245-.1-.437-.123-.568a1.212,1.212,0,0,0-.026-.149c0-.017-.009-.026-.009-.035V27.7l-.2.026.1.192Z" transform="translate(178.382 469.241) rotate(7.636)" fill="#9a3b82"/>
    <path id="Vector-11" data-name="Vector" d="M0,17.815a9.5,9.5,0,0,0,.858,2.867,7.71,7.71,0,0,0,3.416,3.444,14.552,14.552,0,0,0,6.8,1.381h.412a24.177,24.177,0,0,0,9.8-2.727,78.055,78.055,0,0,0,15.44-10.49A169.372,169.372,0,0,0,49.49.306L49.175,0A153.572,153.572,0,0,1,31.405,15.936a65.205,65.205,0,0,1-10.317,6.443,23.73,23.73,0,0,1-9.616,2.684h-.412a16.855,16.855,0,0,1-4.826-.621,8.168,8.168,0,0,1-4.23-2.727A8.275,8.275,0,0,1,.412,17.745Z" transform="translate(187.339 476.377) rotate(7.636)" fill="#9a3b82"/>
    <path id="Vector-12" data-name="Vector" d="M101.047,102.189c-1.55-.586-5.237,1.425-8.013,4.921-2.986,3.75-4.195,7.736-2.881,8.777L48.089,93.561a2.683,2.683,0,0,0-3.862,3.033L56.96,144.743C13.828,172.681,0,164.307,0,164.307V6.084c0,.009,0,.009.009.017.368.935,4.318.28,8.828-1.477C12.988,3.016,16.158,1.04,16.359.009L16.368,0V49.853a8.63,8.63,0,0,0,4.423,7.535Z" transform="translate(169.606 334.471) rotate(7.636)" fill="#fe5244"/>
    <path id="Vector-13" data-name="Vector" d="M101.047,102.189c-1.55-.586-5.237,1.425-8.013,4.922-2.986,3.75-4.195,7.736-2.881,8.777L48.089,93.561a2.683,2.683,0,0,0-3.862,3.033L56.96,144.935a177.206,177.206,0,0,1-27.473,14.817c-11.648,4.921-19.267,5.892-23.839,5.717C1.664,165.321,0,164.307,0,164.307V6.084c0,.009,0,.009.009.017.368.935,4.318.28,8.828-1.477C12.988,3.016,16.158,1.04,16.359.009L16.368,0V49.853a8.63,8.63,0,0,0,4.423,7.535Z" transform="translate(169.606 334.471) rotate(7.636)" fill="#fe5244"/>
    <path id="Vector-14" data-name="Vector" d="M.136.495,49.574,27.261a.264.264,0,1,0,.254-.463L.39.031a.269.269,0,0,0-.359.1A.268.268,0,0,0,.136.495Z" transform="translate(197.814 428.465) rotate(7.636)" fill="#fff"/>
    <path id="Vector-15" data-name="Vector" d="M5.544,0,0,32.16,28.3,12.71Z" transform="translate(178.17 394.174) rotate(7.636)" fill="#ffcf2d"/>
    <path id="Vector-16" data-name="Vector" d="M5.649.223,0,33,28.813,13.2a.264.264,0,1,0-.3-.437L.736,31.859,6.174.31A.266.266,0,0,0,5.964,0,.27.27,0,0,0,5.649.223Z" transform="translate(177.841 393.86) rotate(7.636)" fill="#fff"/>
    <path id="Vector-17" data-name="Vector" d="M39.714,6.355,3.186,13.829c-1.349.28-2.741-.918-3.1-2.675s.447-3.4,1.8-3.68L38.409,0Z" transform="translate(153.169 321.781) rotate(7.636)" fill="#fff"/>
    <path id="Vector-18" data-name="Vector" d="M39.935,6.617l-.044-.21L3.363,13.873a1.588,1.588,0,0,1-.35.035,1.833,1.833,0,0,1-.8-.184,2.714,2.714,0,0,1-1.051-.892,3.734,3.734,0,0,1-.639-1.469,4.151,4.151,0,0,1-.079-.8A3.179,3.179,0,0,1,.928,8.82a2.02,2.02,0,0,1,.543-.577,1.849,1.849,0,0,1,.683-.306L38.464.507l1.261,6.145.21-.035-.044-.21.044.21.21-.044L38.8,0,2.058,7.518A2.182,2.182,0,0,0,1.2,7.9,2.773,2.773,0,0,0,.315,9.03,3.876,3.876,0,0,0,0,10.577a4.374,4.374,0,0,0,.088.883,4.038,4.038,0,0,0,1.077,2.063,3.125,3.125,0,0,0,.858.6A2.393,2.393,0,0,0,3,14.345a2.4,2.4,0,0,0,.438-.044L40.181,6.783l-.044-.21Z" transform="translate(152.985 321.491) rotate(7.636)" fill="#3fb1b5"/>
    <path id="Vector-19" data-name="Vector" d="M1.881.041c1.349-.28,2.741.918,3.1,2.675s-.438,3.4-1.8,3.68S.445,5.478.085,3.721.532.312,1.881.041Z" transform="translate(189.361 326.601) rotate(7.636)" fill="#fff"/>
    <path id="Vector-20" data-name="Vector" d="M2.1.254l.044.21A1.537,1.537,0,0,1,2.5.428a1.833,1.833,0,0,1,.8.184A2.714,2.714,0,0,1,4.344,1.5a3.734,3.734,0,0,1,.639,1.469,4.151,4.151,0,0,1,.079.8,3.17,3.17,0,0,1-.482,1.74,2.121,2.121,0,0,1-.534.577,1.787,1.787,0,0,1-.683.306,1.537,1.537,0,0,1-.35.035,1.833,1.833,0,0,1-.8-.184A2.714,2.714,0,0,1,1.165,5.35,3.734,3.734,0,0,1,.525,3.881a4.151,4.151,0,0,1-.079-.8,3.17,3.17,0,0,1,.482-1.74A2.121,2.121,0,0,1,1.463.769,1.787,1.787,0,0,1,2.146.463L2.1.254,2.058.044A2.166,2.166,0,0,0,1.2.42,2.848,2.848,0,0,0,.315,1.547,3.876,3.876,0,0,0,0,3.095a4.374,4.374,0,0,0,.088.883A4.1,4.1,0,0,0,1.165,6.04a3.125,3.125,0,0,0,.858.6A2.393,2.393,0,0,0,3,6.862a2.479,2.479,0,0,0,.438-.044A2.166,2.166,0,0,0,4.3,6.443a2.848,2.848,0,0,0,.885-1.128A3.876,3.876,0,0,0,5.5,3.768a4.374,4.374,0,0,0-.088-.883A4.1,4.1,0,0,0,4.335.822a3.125,3.125,0,0,0-.858-.6A2.393,2.393,0,0,0,2.5,0a2.479,2.479,0,0,0-.438.044Z" transform="translate(189.17 326.36) rotate(7.636)" fill="#3fb1b5"/>
    <path id="Vector-21" data-name="Vector" d="M14.163,1.5S2.349,14.756,3.636,17.675c1.681,1.67,3.048,2.4,2.846,3.025-.219.673-3.048,4.738-3.048,4.738l-.28-3.016-2.706.892S3.3,19.153,3.487,17.877C2.314,16.985-.077,15.132,0,13.838c.088-1.372,4.274-6.25,7.313-9.616L2.734,5.734l-.9-4.222L10.073,0Z" transform="translate(156.768 330.368) rotate(7.636)" fill="#fe5244"/>
    <path id="Vector-22" data-name="Vector" d="M2.487,0A2.483,2.483,0,1,1,0,2.483,2.483,2.483,0,0,1,2.487,0Z" transform="translate(167.135 328.848) rotate(7.636)" fill="#fff"/>
    <path id="Vector-23" data-name="Vector" d="M2.706.219V.437A2.261,2.261,0,1,1,.438,2.7,2.243,2.243,0,0,1,1.1,1.1a2.267,2.267,0,0,1,1.6-.664V0A2.7,2.7,0,1,0,5.412,2.7,2.7,2.7,0,0,0,2.706,0Z" transform="translate(166.947 328.602) rotate(7.636)" fill="#fe5244"/>
    <path id="Vector-24" data-name="Vector" d="M16.38.669c-.2,1.032-3.372,3.007-7.523,4.616C4.347,7.033.4,7.7.029,6.762c0-.009,0-.009-.009-.017C-.295,5.8,3.051,3.641,7.535,1.9,12.045.153,15.995-.511,16.363.424A.447.447,0,0,1,16.38.669Z" transform="translate(169.674 333.814) rotate(7.636)" fill="#9a3b82"/>
    <path id="Vector-25" data-name="Vector" d="M10.676.018l-.482,6.941-.228,3.322a37.03,37.03,0,0,1-3.775,1.7A31.739,31.739,0,0,1,0,13.76V7.413L6.647,6.05A28.373,28.373,0,0,1,7.716,1.7,2.759,2.759,0,0,1,10.676.018Z" transform="translate(173.205 327.535) rotate(7.636)" fill="#a0505a"/>
    <path id="Vector-26" data-name="Vector" d="M2.986.141l.061.017L2.986.132V.141l.061.017L2.986.132l.026.009L2.986.123l.026.009L2.986.115,2.943.158C2.89.2,2.8.263,2.7.333,2.5.456,2.233.613,1.953.8a5.941,5.941,0,0,0-1.3,1.093,2.843,2.843,0,0,0-.473.761A2.462,2.462,0,0,0,0,3.576a.175.175,0,0,0,.35,0,2.151,2.151,0,0,1,.42-1.259,5.142,5.142,0,0,1,1.5-1.3c.254-.166.49-.3.674-.42A2.767,2.767,0,0,0,3.179.421.825.825,0,0,0,3.267.333.27.27,0,0,0,3.328.211.168.168,0,0,0,3.2,0,.2.2,0,0,0,2.986.141Z" transform="translate(176.101 333.55) rotate(7.636)" fill="#73325a"/>
    <path id="Vector-27" data-name="Vector" d="M10.194,0,9.966,3.322a37.03,37.03,0,0,1-3.775,1.7A31.739,31.739,0,0,1,0,6.8V3.934a35.112,35.112,0,0,1,4.869-2.3A33.3,33.3,0,0,1,10.194,0Z" transform="translate(172.28 334.433) rotate(7.636)" fill="#73325a"/>
    <path id="Vector-28" data-name="Vector" d="M8.18,7.184.762,8.88A.643.643,0,0,1,0,8.215V3.722a1.353,1.353,0,0,1,.9-1.3L8.232.033a.729.729,0,0,1,.928.734V5.89A1.322,1.322,0,0,1,8.18,7.184Z" transform="translate(171.378 323.562) rotate(7.636)" fill="#a0505a"/>
    <path id="Vector-29" data-name="Vector" d="M.928,6.2a.427.427,0,0,1-.105.009.479.479,0,0,1-.333-.14.467.467,0,0,1-.14-.341v-4.3A1.133,1.133,0,0,1,1.156.343.164.164,0,0,0,1.27.125.164.164,0,0,0,1.051.011,1.482,1.482,0,0,0,0,1.427v4.31a.838.838,0,0,0,.245.594.823.823,0,0,0,.578.236A1.189,1.189,0,0,0,1,6.55a.168.168,0,0,0,.131-.21A.175.175,0,0,0,.928,6.2Z" transform="translate(172.788 325.573) rotate(7.636)" fill="#73325a"/>
    <path id="Vector-30" data-name="Vector" d="M.92,6.383a.393.393,0,0,1-.1.009.479.479,0,0,1-.333-.14.494.494,0,0,1-.14-.358V1.462a1.135,1.135,0,0,1,.228-.7,1.122,1.122,0,0,1,.578-.42A.164.164,0,0,0,1.27.125.164.164,0,0,0,1.051.011,1.432,1.432,0,0,0,.289.562,1.541,1.541,0,0,0,0,1.471V5.911a.875.875,0,0,0,.245.6.831.831,0,0,0,.578.245A1.189,1.189,0,0,0,1,6.742a.168.168,0,0,0,.131-.21A.188.188,0,0,0,.92,6.383Z" transform="translate(175 325.217) rotate(7.636)" fill="#73325a"/>
    <path id="Vector-31" data-name="Vector" d="M.928,6.6a.36.36,0,0,1-.1.009A.453.453,0,0,1,.5,6.459.537.537,0,0,1,.35,6.092V1.5A1.275,1.275,0,0,1,.578.777,1.153,1.153,0,0,1,1.156.34.174.174,0,1,0,1.051.007,1.462,1.462,0,0,0,.289.576,1.615,1.615,0,0,0,0,1.5V6.1a.9.9,0,0,0,.245.612.808.808,0,0,0,.587.254A1.075,1.075,0,0,0,1,6.948a.168.168,0,0,0,.131-.21A.175.175,0,0,0,.928,6.6Z" transform="translate(177.457 324.818) rotate(7.636)" fill="#73325a"/>
    <path id="Vector-32" data-name="Vector" d="M8.173,8.8c-2.986,3.759-6.332,6.04-7.646,5S.422,8.781,3.408,5.022C6.193,1.526,9.872-.485,11.422.1l.307.175C13.051,1.325,11.159,5.048,8.173,8.8Z" transform="translate(244.864 447.553) rotate(7.636)" fill="#9a3b82"/>
    <path id="Vector-33" data-name="Vector" d="M20.581,12.736l-1.988,1.049a1.62,1.62,0,0,1-2.189-.664L14.31,9.24,11.14,8.156c.35.131,1.717.83,1.287,3.374L4.983,8.759,2.426,7.806,0,6.259a20.092,20.092,0,0,1,2.321-3.61A18.168,18.168,0,0,1,4.9,0L7.435,1.766l2.592.28,4.212.446a4.41,4.41,0,0,1,1.892.656l3.363,2.386A2.147,2.147,0,0,1,20.388,7l.683,4.773A.927.927,0,0,1,20.581,12.736Z" transform="translate(245.643 450.062) rotate(7.636)" fill="#a0505a"/>
    <path id="Vector-34" data-name="Vector" d="M.072.292,2.988,2.364A1.756,1.756,0,0,1,3.7,3.527l.6,3.855.175-.026-.175.026c0,.026.009.061.009.087a.648.648,0,0,1-.342.568.176.176,0,1,0,.158.315.992.992,0,0,0,.534-.874.66.66,0,0,0-.009-.131l-.6-3.855A2.106,2.106,0,0,0,3.2,2.1L.282.03A.181.181,0,0,0,.037.074.144.144,0,0,0,.072.292Z" transform="translate(260.374 456.892) rotate(7.636)" fill="#73325a"/>
    <path id="Vector-35" data-name="Vector" d="M.072.3,2.988,2.373A1.756,1.756,0,0,1,3.7,3.535l.6,3.855.175-.026-.175.026c0,.026.009.061.009.087a.648.648,0,0,1-.342.568.176.176,0,1,0,.158.315.992.992,0,0,0,.534-.874.66.66,0,0,0-.009-.131l-.6-3.864A2.106,2.106,0,0,0,3.2,2.1L.282.03A.181.181,0,0,0,.037.074.152.152,0,0,0,.072.3Z" transform="translate(258.495 457.328) rotate(7.636)" fill="#73325a"/>
    <path id="Vector-36" data-name="Vector" d="M2.346.728.226.011A.167.167,0,0,0,.008.125.17.17,0,0,0,.121.343l2.119.717A.167.167,0,0,0,2.46.946.17.17,0,0,0,2.346.728Z" transform="translate(253.447 458.426) rotate(7.636)" fill="#73325a"/>
    <path id="Vector-37" data-name="Vector" d="M10.028,2.046A29.8,29.8,0,0,1,7.076,6.425,25.38,25.38,0,0,1,4.983,8.759L2.426,7.806,0,6.259a20.092,20.092,0,0,1,2.321-3.61A18.168,18.168,0,0,1,4.9,0L7.435,1.766Z" transform="translate(245.643 450.062) rotate(7.636)" fill="#73325a"/>
    <path id="Vector-38" data-name="Vector" d="M0,0,18.733,8.3l6.682,19.511L11.84,18.121,5.509,10.4Z" transform="translate(189.057 372.084) rotate(7.636)" fill="#fe5244"/>
    <path id="Vector-39" data-name="Vector" d="M0,1.783A12.036,12.036,0,0,1,8.6,9.651l1.3-1.311S7.532,1.7,1.261,0Z" transform="translate(193.372 381.359) rotate(7.636)" fill="#9a3b82"/>
    <path id="Vector-40" data-name="Vector" d="M41.523,19.864c-2.1-1.189-4.046-1.844-4.668-1.608a.777.777,0,0,0,.061-.35.733.733,0,0,0-.727-.673h-.061a.74.74,0,0,0-.674.787c0,.026.009.052.009.07l-2.224,1.425a1.607,1.607,0,0,1-2.47-1.355V14.968a4.134,4.134,0,0,0-5.763-3.794l-4.239,1.888L19.156,8.351.327.02A.231.231,0,0,0,.02.143.23.23,0,0,0,.143.449L18.779,8.7l6.647,19.415a.234.234,0,0,0,.219.157c.026,0,.053-.009.079-.009a.242.242,0,0,0,.149-.3L20.925,13.508,25.2,11.6A3.66,3.66,0,0,1,30.3,14.968v3.191a2.091,2.091,0,0,0,2.076,2.08,2.065,2.065,0,0,0,1.112-.332L35.7,18.5a.72.72,0,0,0,.49.192h.061a.646.646,0,0,0,.4-.166c0,.621,1.594,2.011,3.783,3.252.473.271.946.516,1.392.726a2.978,2.978,0,0,0,.683-.822,2.812,2.812,0,0,0,.35-1.005C42.443,20.414,42,20.135,41.523,19.864Zm-5.316-1.539A.355.355,0,0,1,35.822,18a.356.356,0,1,1,.385.323Z" transform="translate(189.707 371.172) rotate(7.636)" fill="#ffcf2d"/>
    <path id="Vector-41" data-name="Vector" d="M3.24,1.722,0,19.712l11.044-8.5V0Z" transform="translate(187.418 392.221) rotate(7.636)" fill="#a0505a"/>
    <path id="Vector-42" data-name="Vector" d="M.4,1.722,0,3.977l4.887,9.791,3.319-2.553V0Z" transform="translate(190.23 392.598) rotate(7.636)" fill="#73325a"/>
    <path id="Vector-43" data-name="Vector" d="M11.437.293S5.911-1.08,4.186,2.12,7.5,6.2,7.715,5.083c.1-.49-9.082-.481-7.54,6.451C1.777,18.755,9,16.272,9,16.272L9.843,11.6Z" transform="translate(181.996 381.523) rotate(7.636)" fill="#fff"/>
    <path id="Vector-44" data-name="Vector" d="M11.613.463,11.657.3A12.447,12.447,0,0,0,8.994,0,7.512,7.512,0,0,0,6.332.428,4.69,4.69,0,0,0,5.123,1.1a3.515,3.515,0,0,0-.928,1.11,2.805,2.805,0,0,0-.377,1.337,1.931,1.931,0,0,0,.315,1.058,2.8,2.8,0,0,0,1.244.979,3.888,3.888,0,0,0,1.48.315,2.013,2.013,0,0,0,.762-.131.865.865,0,0,0,.28-.184A.585.585,0,0,0,8.057,5.3V5.254a.176.176,0,0,0-.026-.1.239.239,0,0,0-.088-.1.612.612,0,0,0-.175-.07,2.751,2.751,0,0,0-.359-.061,4.361,4.361,0,0,0-.5-.017,9.645,9.645,0,0,0-1.962.219,7.566,7.566,0,0,0-3.3,1.495A4.527,4.527,0,0,0,.464,8.121,4.8,4.8,0,0,0,0,10.236a7.009,7.009,0,0,0,.175,1.53,8.153,8.153,0,0,0,1.068,2.666,5.456,5.456,0,0,0,2.478,2.107,6.919,6.919,0,0,0,2.724.516,9.6,9.6,0,0,0,2.785-.42l.1-.035.858-4.773L11.805.358,11.657.323l-.044.14L11.438.437,9.844,11.749,9,16.417l.175.035-.061-.166a9.309,9.309,0,0,1-2.671.4,6.162,6.162,0,0,1-3.433-.944,5.24,5.24,0,0,1-1.48-1.521A7.845,7.845,0,0,1,.517,11.67,6.833,6.833,0,0,1,.35,10.219a4.277,4.277,0,0,1,.727-2.483A4.628,4.628,0,0,1,2.338,6.521,7.508,7.508,0,0,1,4.747,5.516,9.828,9.828,0,0,1,6.91,5.245a4.226,4.226,0,0,1,.674.044,1.5,1.5,0,0,1,.158.044l.009.009.018-.026-.018.026.018-.026-.018.026.07-.079-.088.052a.108.108,0,0,0,.018.026l.07-.079-.088.052.114-.061H7.716a.1.1,0,0,0,.018.061l.114-.061h0l-.131-.026v.026h.131l-.131-.026a.209.209,0,0,1-.061.114.628.628,0,0,1-.289.149,2.049,2.049,0,0,1-.5.061,3.643,3.643,0,0,1-.885-.122,3.036,3.036,0,0,1-1.252-.664,1.825,1.825,0,0,1-.4-.533,1.521,1.521,0,0,1-.149-.673,2.447,2.447,0,0,1,.342-1.171,3.366,3.366,0,0,1,.832-1.005A4.423,4.423,0,0,1,7.076.568,8.01,8.01,0,0,1,8.994.358a11.232,11.232,0,0,1,1.822.149c.236.035.42.07.552.1.061.017.114.026.149.035.018,0,.026.009.035.009h.009l.053-.184L11.438.437Z" transform="translate(181.845 381.331) rotate(7.636)" fill="#9a3b82"/>
    <path id="Vector-45" data-name="Vector" d="M3.981,2.08s-8.25,10.735-1,15.3c5.815,3.654,7.313-1.495,5.754-2.2-1.69-.769-5.57,13.742,6.376,13.7,11.972-.044,8.311-14.966,2.277-19.913C14.508,6.6,4.892,0,4.892,0Z" transform="translate(194.506 391.839) rotate(7.636)" fill="#fff"/>
    <path id="Vector-46" data-name="Vector" d="M4.16,2.343l-.14-.1a24.908,24.908,0,0,0-2.006,3.2A15.466,15.466,0,0,0,0,12.212a6.579,6.579,0,0,0,.683,3.042A6.385,6.385,0,0,0,3.065,17.78a7.348,7.348,0,0,0,3.748,1.329,3.118,3.118,0,0,0,1.261-.245,2.617,2.617,0,0,0,1.2-1.014,2.484,2.484,0,0,0,.385-1.3,1.672,1.672,0,0,0-.166-.761,1.1,1.1,0,0,0-.517-.516.565.565,0,0,0-.21-.044.6.6,0,0,0-.21.044,1.147,1.147,0,0,0-.35.254,3.088,3.088,0,0,0-.534.839,9.142,9.142,0,0,0-.648,2.019,12.721,12.721,0,0,0-.271,2.6,10.853,10.853,0,0,0,.385,2.928A7.049,7.049,0,0,0,9.625,27.7a9.011,9.011,0,0,0,5.6,1.608h.053A10.5,10.5,0,0,0,19,28.681a6.372,6.372,0,0,0,3.345-2.858,8.774,8.774,0,0,0,1.007-4.31A16.966,16.966,0,0,0,21.7,14.581a15.681,15.681,0,0,0-4.037-5.49c-.727-.594-1.865-1.451-3.179-2.4C10.562,3.829,5.15.122,5.15.122L4.974,0l-1,2.273.184.07-.14-.1.14.1.158.07L5.228.332,5.071.262l-.1.14L5.08.481c.534.367,2.951,2.037,5.579,3.89,1.314.927,2.68,1.9,3.88,2.78s2.251,1.661,2.916,2.212A15.407,15.407,0,0,1,21.4,14.73a16.626,16.626,0,0,1,1.62,6.783A9.343,9.343,0,0,1,22.6,24.4a6.1,6.1,0,0,1-2.373,3.269,8.677,8.677,0,0,1-4.931,1.3h-.053a10,10,0,0,1-3.976-.726A6.378,6.378,0,0,1,8,25.167,9.454,9.454,0,0,1,7.12,21a11.849,11.849,0,0,1,.622-3.838,4.955,4.955,0,0,1,.569-1.18,1.331,1.331,0,0,1,.271-.3.293.293,0,0,1,.114-.061.445.445,0,0,1,.079-.017.083.083,0,0,1,.061.017.753.753,0,0,1,.35.35,1.424,1.424,0,0,1,.131.6,2.2,2.2,0,0,1-.6,1.469,2.246,2.246,0,0,1-.771.533,2.88,2.88,0,0,1-1.121.21,6.955,6.955,0,0,1-3.564-1.268A6.03,6.03,0,0,1,1,15.123a6.265,6.265,0,0,1-.639-2.885,11.448,11.448,0,0,1,.613-3.47A21.858,21.858,0,0,1,3.056,4.336c.35-.577.657-1.04.885-1.372.114-.166.2-.288.263-.376.035-.044.053-.079.07-.1s.018-.017.018-.026L4.3,2.456l.009-.017.009-.017Z" transform="translate(194.364 391.556) rotate(7.636)" fill="#9a3b82"/>
    <path id="Vector-47" data-name="Vector" d="M10.107,8.27l.622.393a1.3,1.3,0,0,1,.4,1.783l-.123.184a1.3,1.3,0,0,1-1.787.4l-.666-.42c-.736.524-5.158,3.47-7.891.542C-1.987,8.313,4.143,0,4.143,0a12.425,12.425,0,0,1,7.234,6.241Z" transform="translate(189.372 382.19) rotate(7.636)" fill="#a0505a"/>
    <path id="Vector-48" data-name="Vector" d="M.132.388A2.33,2.33,0,0,1,.754.755a1.791,1.791,0,0,1,.4.446,1.2,1.2,0,0,1,.175.621.9.9,0,0,1-.009.149,3.857,3.857,0,0,1-.228.865c-.166.472-.4.97-.6,1.407-.1.219-.184.428-.245.6A1.663,1.663,0,0,0,.176,5.1c-.018.079-.026.157-.035.227a.764.764,0,0,0,.018.14A.294.294,0,0,0,.238,5.6a1.543,1.543,0,0,0,.534.367,1.261,1.261,0,0,0,.28.079.177.177,0,1,0,.053-.35L1.1,5.755,1.1,5.694,1.1,5.755,1.1,5.694a1.134,1.134,0,0,1-.219-.07,1.3,1.3,0,0,1-.4-.271l-.026.017.026-.017L.474,5.344l-.026.017.026-.017h0A.106.106,0,0,1,.465,5.3.9.9,0,0,1,.5,5.082a5.019,5.019,0,0,1,.236-.629c.158-.367.359-.8.534-1.233a5.326,5.326,0,0,0,.368-1.259,1.289,1.289,0,0,0,.009-.184A1.608,1.608,0,0,0,1.42.965,2.243,2.243,0,0,0,.675.239,2.753,2.753,0,0,0,.229.012.175.175,0,0,0,0,.117.245.245,0,0,0,.132.388Z" transform="translate(191.372 384.14) rotate(7.636)" fill="#73325a"/>
    <path id="Vector-49" data-name="Vector" d="M.091.327A4.346,4.346,0,0,0,2.035.764,4.789,4.789,0,0,0,2.727.711a.184.184,0,0,0,.149-.2.184.184,0,0,0-.2-.149,4.2,4.2,0,0,1-.639.052A4.411,4.411,0,0,1,.748.213,2.369,2.369,0,0,1,.389.073C.345.056.319.038.292.03A.032.032,0,0,0,.266.021H.257L.231.064.257.021.231.064.257.021a.173.173,0,0,0-.236.07A.172.172,0,0,0,.091.327Z" transform="translate(190.183 390.489) rotate(7.636)" fill="#73325a"/>
    <path id="Vector-50" data-name="Vector" d="M.07.477C.192.153.437-.056.613.013S.832.4.709.722s-.368.533-.543.463S-.053.8.07.477Z" transform="translate(194.501 388.756) rotate(7.636)" fill="#73325a"/>
    <path id="Vector-51" data-name="Vector" d="M.058.4C.163.126.365-.049.514.012S.7.336.592.607.286,1.052.137.991-.047.668.058.4Z" transform="translate(190.829 386.509) rotate(7.636)" fill="#73325a"/>
    <path id="Vector-52" data-name="Vector" d="M.308.656A.679.679,0,0,1,.859.35a.654.654,0,0,1,.35.1A.182.182,0,0,0,1.455.4.181.181,0,0,0,1.4.157,1,1,0,0,0,.868,0,.987.987,0,0,0,.027.463.181.181,0,0,0,.08.708.164.164,0,0,0,.308.656Z" transform="translate(197.556 392.583) rotate(7.636)" fill="#73325a"/>
    <path id="Vector-53" data-name="Vector" d="M.141.339.159.269.141.339.159.269.141.339A1.984,1.984,0,0,1,.7.627,2.665,2.665,0,0,1,1.639,1.8a.172.172,0,0,0,.315-.14A3.075,3.075,0,0,0,.877.33,2.15,2.15,0,0,0,.22.007.175.175,0,0,0,0,.129.2.2,0,0,0,.141.339Z" transform="translate(195.011 387.049) rotate(7.636)" fill="#73325a"/>
    <path id="Vector-54" data-name="Vector" d="M.2,0A6.261,6.261,0,0,0,2.369,6.486c1.962,1.547,2.076-.315,2.076-.315A8.442,8.442,0,0,0,.2,0Z" transform="translate(196.839 385.325) rotate(7.636)" fill="#fff"/>
    <path id="Vector-55" data-name="Vector" d="M.368.254.2.2A6.5,6.5,0,0,0,0,1.853,6.477,6.477,0,0,0,.464,4.292,6.3,6.3,0,0,0,2.443,6.88a3.691,3.691,0,0,0,.788.5,1.486,1.486,0,0,0,.613.149.805.805,0,0,0,.534-.184,1.007,1.007,0,0,0,.236-.28,1.482,1.482,0,0,0,.158-.42.99.99,0,0,0,.026-.2V6.425A7.306,7.306,0,0,0,4.16,4.17,9.089,9.089,0,0,0,.473.114L.28,0,.219.219.368.254.28.4A8.724,8.724,0,0,1,3.836,4.3a8.442,8.442,0,0,1,.517,1.53,3.465,3.465,0,0,1,.079.446c.009.052.009.087.018.122v.035l.175-.009-.175-.009h0a1.4,1.4,0,0,1-.105.411.755.755,0,0,1-.184.254.486.486,0,0,1-.315.1,1.211,1.211,0,0,1-.473-.122,3.447,3.447,0,0,1-.709-.455A5.87,5.87,0,0,1,.8,4.17,6.237,6.237,0,0,1,.359,1.862,6.13,6.13,0,0,1,.455.734C.482.594.5.49.517.42A.443.443,0,0,0,.534.341.03.03,0,0,1,.543.323V.315L.368.254.28.4Z" transform="translate(196.703 385.052) rotate(7.636)" fill="#9a3b82"/>
  </g>
</svg>
