<svg xmlns="http://www.w3.org/2000/svg" width="178.529" height="81.869" viewBox="0 0 178.529 81.869">
  <g id="Group" transform="translate(-97.945 -176.06)">
    <g id="Group-2" data-name="Group">
      <path id="Vector" d="M9.742.72A6.825,6.825,0,0,0,1.659,2.135a7.062,7.062,0,0,0,.163,9.282,2.156,2.156,0,0,0,.488.381,7.041,7.041,0,0,0,4.34,1.715,6.67,6.67,0,0,0,6.483-5.172A6.618,6.618,0,0,0,9.742.72ZM8.549,7.307c0,.027-.027.054-.054.082a1.273,1.273,0,0,0-.136.272L8.2,7.906a2.706,2.706,0,0,0-.38.408.39.39,0,0,1-.081.054c-.081.054-.163.082-.244.136a1.1,1.1,0,0,1-.19.054H7.247a.119.119,0,0,1-.081.027H6.758c-.109-.027-.3-.054-.3-.082l-.326-.082C6.053,8.4,6,8.4,5.972,8.369c-.163-.109-.38-.245-.434-.272-.109-.054-.3-.3-.081-.054.244.272-.054-.054-.136-.136A1.759,1.759,0,0,1,5.1,7.661c-.081-.082-.244-.408-.136-.163a.1.1,0,0,0-.027-.054c-.054-.109-.136-.245-.19-.354a2.533,2.533,0,0,1-.136-.272.1.1,0,0,0-.027-.082,2.45,2.45,0,0,0-.326-.653c.054-.163.109-.327.163-.517-.136.436.027-.054.136-.218.027-.027.027-.054.054-.082A.4.4,0,0,1,4.7,5.129c0-.027.027-.027.027-.054A.027.027,0,0,1,4.7,5.1a4.177,4.177,0,0,1,.353-.327c-.109.109.217-.136.353-.218h.027c-.027,0-.054.027-.108.027a.141.141,0,0,0,.108-.054c.081-.027.163-.054.136-.054.027,0,.027,0,.054-.027a3.556,3.556,0,0,0,.407-.136H6.46a1.316,1.316,0,0,1,.326.027h.109c.163.054.38.136.461.163.027,0,.054.027.108.027h.027c.19.109.38.218.543.327a.027.027,0,0,1,.027.027l.109.109a.733.733,0,0,1,.19.218,3.136,3.136,0,0,1,.19.3.1.1,0,0,0,.027.082c.027.109.054.191.081.3a.331.331,0,0,1,.027.136v.6a.465.465,0,0,0-.027.191A1.786,1.786,0,0,1,8.549,7.307Z" transform="matrix(1, -0.003, 0.003, 1, 150.696, 176.095)" fill="#fff"/>
      <path id="Vector-2" data-name="Vector" d="M0,.045H0C.027.045.054.018.109.018.109-.009.027-.009,0,.045Z" transform="matrix(1, -0.003, 0.003, 1, 157.857, 184.645)" fill="#fff"/>
      <path id="Vector-3" data-name="Vector" d="M.02.055h0C.075.027.129.027.156,0,.1.027.048.027.02.055Z" transform="matrix(1, -0.003, 0.003, 1, 156.117, 180.639)" fill="#fff"/>
      <path id="Vector-4" data-name="Vector" d="M.109,0C.082.055.027.109,0,.164A1.248,1.248,0,0,1,.109,0Z" transform="matrix(1, -0.003, 0.003, 1, 155.298, 181.267)" fill="#fff"/>
    </g>
    <g id="Group-3" data-name="Group">
      <path id="Vector-5" data-name="Vector" d="M.027,0h0Z" transform="matrix(1, -0.003, 0.003, 1, 137.246, 207.31)" fill="#fff"/>
      <path id="Vector-6" data-name="Vector" d="M.217.082A.1.1,0,0,1,.271.109L.19.027C.163.027.136,0,.109,0H0C.027.027.054.027.081.054A.516.516,0,0,0,.353.218L.326.191C.3.136.244.109.217.082Z" transform="matrix(1, -0.003, 0.003, 1, 137.219, 207.337)" fill="#fff"/>
      <path id="Vector-7" data-name="Vector" d="M0,0Z" transform="matrix(1, -0.003, 0.003, 1, 137.219, 207.31)" fill="#fff"/>
      <path id="Vector-8" data-name="Vector" d="M.054,0h0Z" transform="matrix(1, -0.003, 0.003, 1, 137.301, 207.31)" fill="#fff"/>
      <path id="Vector-9" data-name="Vector" d="M.027.464C.027.492,0,.492,0,.519.244-.053.244-.053.19.056.19.083.163.111.163.138A1.668,1.668,0,0,0,.027.464Z" transform="matrix(1, -0.003, 0.003, 1, 178.515, 211.583)" fill="#fff"/>
      <path id="Vector-10" data-name="Vector" d="M0,.327C0,.354.081.272.326,0A.937.937,0,0,1,0,.327Z" transform="matrix(1, -0.003, 0.003, 1, 183.001, 205.23)" fill="#fff"/>
      <path id="Vector-11" data-name="Vector" d="M0,0A1.856,1.856,0,0,0,.136.191.827.827,0,0,1,0,0Z" transform="matrix(1, -0.003, 0.003, 1, 194.878, 203.784)" fill="#fff"/>
      <path id="Vector-12" data-name="Vector" d="M124.282,13.465a12.912,12.912,0,0,0-.678-2.2,11.683,11.683,0,0,0-.841-1.769c-.109-.163-.217-.3-.326-.463-.217-.3-.9-1.17-.407-.544s-.38-.49-.488-.6a3.487,3.487,0,0,0-4.91,0,3.569,3.569,0,0,0,0,4.927c.163.163.326.3.461.436.027.027.108.136.163.191a.392.392,0,0,1,.054.082c.081.136.163.3.244.436v.027c.054.191.108.408.163.6a.206.206,0,0,0,.027.109c0,.136.027.327.027.381a7.67,7.67,0,0,1-.027,1.116v.027a3.174,3.174,0,0,1-.108.49,8.272,8.272,0,0,1-.326,1.17c-.054.191-.136.354-.19.544.027-.054.027-.136.054-.163a1.329,1.329,0,0,1-.081.191c-.19.381-.38.735-.6,1.089l-.326.49c-.027.027-.054.082-.081.109a7.627,7.627,0,0,1-.787.844,2.907,2.907,0,0,1-.434.381c-.027.027-.081.054-.108.082a22.471,22.471,0,0,1-2.468,1.443l-.651.245c-.515.163-1,.327-1.519.436-.3.082-.6.136-.868.191-.081.027-.163.027-.271.054a13.747,13.747,0,0,1-1.492.109,20.149,20.149,0,0,1-3.147-.136,26.3,26.3,0,0,1-4.53-1.143c-.434-.163-.868-.327-1.275-.49l-.163-.082c-.217-.082-.407-.191-.6-.272-.841-.408-1.682-.817-2.5-1.279a.027.027,0,0,1-.027-.027,12.5,12.5,0,0,0,7.948-6.669,10.236,10.236,0,0,0,.868-5.961,8.712,8.712,0,0,0-2.441-4.682A12.3,12.3,0,0,0,92.41.018,20.21,20.21,0,0,0,75.836,10.443c-1.275,2.368-2.143,4.954-3.553,7.241l-.488.735c.081-.082-.027.082-.136.191l-.027.027a1.652,1.652,0,0,0-.19.272l.163-.245a6.5,6.5,0,0,1-.6.626,1.757,1.757,0,0,1-.244.218c-.027,0-.054.027-.081.054-.217.136-.461.272-.678.408-.108.027-.244.082-.353.109-.081.027-.19.054-.271.082a5.774,5.774,0,0,0-.977.027c-.108-.027-.217-.054-.353-.082-.163-.054-.326-.082-.515-.136a2.818,2.818,0,0,1-.326-.136,1.734,1.734,0,0,1,.3.163c-.326-.191-.705-.327-1.031-.544-.136-.082-.244-.163-.38-.245a3.019,3.019,0,0,1-.407-.327,2.755,2.755,0,0,1,.38.354c-.3-.3-.651-.544-.949-.844-.136-.136-.244-.272-.38-.436l-.244-.245a.027.027,0,0,0-.027-.027c-.027-.027-.054-.082-.108-.109l.081.082c-.136-.191-.244-.354-.38-.544a10.127,10.127,0,0,1-.57-1.062,4.429,4.429,0,0,0-.3-.762c-.136-.408-.244-.817-.353-1.225-.109-.463-.19-.953-.271-1.443a4.876,4.876,0,0,1-.054-.626,38.29,38.29,0,0,1,.054-5.852,3.358,3.358,0,0,0-6.591-.871,58.142,58.142,0,0,1-1.926,7c-.19.544-.407,1.089-.6,1.66-.109.3-.217.572-.353.871-.109.245-.543,1.225-.136.381-.515,1.062-.949,2.123-1.438,3.185a23.134,23.134,0,0,1-1.519,2.94v.027l-.326.327a.027.027,0,0,0-.027.027l-.027.027h-.027l-.027.027h-.054a2.687,2.687,0,0,0-.461-.3l-.108-.109c-.054-.054-.217-.245-.326-.381a1.856,1.856,0,0,0-.136-.191c-.054-.109-.136-.218-.19-.327a3.2,3.2,0,0,1-.136-.3c0-.027-.027-.054-.027-.082-.081-.3-.163-.6-.217-.9-.054-.218-.081-.463-.136-.708,0,0-.054-.354-.054-.463-.163-1.415-.244-2.831-.434-4.246a11.14,11.14,0,0,0-3.065-6.478,7.371,7.371,0,0,0-7.568-2.014c-2.658.98-4.367,3.1-5.886,5.417a28.579,28.579,0,0,0-2.36,4.41c-.488-1.252-.977-2.531-1.438-3.784a15.758,15.758,0,0,0-2.306-4.573,6.207,6.207,0,0,0-.6-.6l-.38-.3a4.94,4.94,0,0,0-.814-.572A6.171,6.171,0,0,0,19.009,4.7a8.728,8.728,0,0,0-4.638,2.831,24.631,24.631,0,0,0-1.736,2.042,8.907,8.907,0,0,0-2.17-3.348,6.3,6.3,0,0,0-6.51-1.552C1.351,5.734-.521,8.211.13,11.124a2.476,2.476,0,0,0,2.74,1.8,2.466,2.466,0,0,0,2.17-2.45V10.2a2.858,2.858,0,0,0,.3-.191h.027a.385.385,0,0,0,.163-.054c.081,0,.163-.027.217-.027.054.027.109.027.163.054a.824.824,0,0,0,.19.136c.054.054.109.136.163.191.027.054.081.109.109.163.136.245.353.9.081.054.109.327.217.653.3,1.007a3.636,3.636,0,0,1,.136.517,1.183,1.183,0,0,1,.027.136c0,.109.027.354.027.436v.653a6.215,6.215,0,0,1-.054.708c0,.082-.027.136-.027.218a47.933,47.933,0,0,0-1.112,6.506,13.512,13.512,0,0,0,.271,3.62,9.727,9.727,0,0,0,1.953,3.838,3.4,3.4,0,0,0,3.743.708,3.416,3.416,0,0,0,2.089-3.13c.027-.327.027-.626.054-.953,0-.109.027-.218.027-.3a.1.1,0,0,1-.027.082.1.1,0,0,1,.027-.082V24.38a1.361,1.361,0,0,1,.081-.327c.081-.436.136-.9.217-1.334a24.143,24.143,0,0,1,1.085-3.62,1.894,1.894,0,0,0,.136-.354.694.694,0,0,1,.054-.191c.027-.054.054-.082.054-.136,0-.027.027-.082.027-.109,0,.027-.027.054-.027.082.054-.109.081-.218.136-.327.271-.572.57-1.143.868-1.688a31.548,31.548,0,0,1,2.062-3.158.827.827,0,0,0,.136-.191L18.738,13c.19-.218.353-.436.543-.653a6.5,6.5,0,0,1,.6-.626.72.72,0,0,1,.163-.136c.054.109.108.245.163.354.081.191.163.408.19.49.136.381.3.789.434,1.17.515,1.388,1.031,2.749,1.546,4.137,1.194,3.185,2.441,6.37,3.581,9.581a3.321,3.321,0,0,0,3.635,2.368,3.382,3.382,0,0,0,2.875-3.266c.027-.245.054-.517.081-.762,0-.054.027-.109.027-.191.081-.572.19-1.143.3-1.715a31.913,31.913,0,0,1,.814-3.266c.163-.517.326-1.034.515-1.552.054-.163.136-.354.19-.517a2.677,2.677,0,0,0,.217-.49,31.443,31.443,0,0,1,1.573-2.994c.271-.463.57-.925.868-1.388.136-.218.271-.408.407-.6a.376.376,0,0,0,.081-.109c-.109.136-.163.191.027-.027a.827.827,0,0,0,.136-.191.827.827,0,0,1-.136.191.1.1,0,0,0,.027-.054,10.727,10.727,0,0,1,.949-.98c.027-.027.054-.027.108-.054.081-.054.163-.082.244-.136.027,0,.054-.027.081-.027h0c.027,0,.054-.027.081-.027s.054,0,.054.027a.1.1,0,0,0-.054-.027h.027c.027,0,.027.027.054.027h.027a.027.027,0,0,0-.027-.027h.054c.027,0,.027.027.054.054h0l.027.027.027.027c.109.054.163.109.081.082l.054.054a.1.1,0,0,0,.081.027h-.054l.244.245c.027.027.027.054.054.054a6.157,6.157,0,0,1,.434.708c.027.027.054.136.109.218a3.059,3.059,0,0,1,.136.354,5.386,5.386,0,0,1,.19.708,1.384,1.384,0,0,1,.054.354v.027c.027,1.143.163,2.314.244,3.457a16.526,16.526,0,0,0,.705,4.137,10.9,10.9,0,0,0,2.143,3.675A7.654,7.654,0,0,0,51.234,28.3c2.6-.626,4.34-2.858,5.506-5.117.434-.817.841-1.66,1.221-2.5a12.4,12.4,0,0,0,2.984,3.457,12.137,12.137,0,0,0,8.816,2.913,10.089,10.089,0,0,0,4.693-1.688,13.784,13.784,0,0,0,3.364-3.511,18.938,18.938,0,0,0,1.655-3.212c.3-.708.624-1.443.922-2.178a.027.027,0,0,1-.027.027c0-.027.027-.054.027-.082a.388.388,0,0,0,.054-.163A2.162,2.162,0,0,1,80.556,16c.108-.272.244-.544.353-.817a25.032,25.032,0,0,1,1.953-3.294c-.6.925.054-.054.244-.272.217-.245.434-.463.651-.681.353-.354.76-.653,1.112-.98a.808.808,0,0,1,.271-.272c.027,0,.027-.027.054-.027l.027-.027-.027.027.326-.245c.271-.191.515-.354.787-.517a15.46,15.46,0,0,1,1.736-.953l.163-.082.163-.082c.027,0,.054-.027.109-.027.027-.027.054-.027.081-.054a.084.084,0,0,1-.054.027c.244-.109.515-.191.76-.272a15.446,15.446,0,0,1,1.926-.517c.136-.027.3-.054.434-.082.081,0,.244-.027.3-.027.136,0,.3-.027.434-.027h.868c.136,0,.3.027.434.027.109,0,.244.027.353.027l-.543-.082a6.639,6.639,0,0,1,1.763.408c.054.027.136.054.19.082.244.136.488.245.705.381a.942.942,0,0,1,.244.163c.054.054.136.082.19.136L96.4,7.857l.3.3a1.185,1.185,0,0,1-.108-.191.956.956,0,0,0,.136.218c.163.191.271.381.109.191.054.109.136.218.19.327a2.045,2.045,0,0,1,.136.436v.027c0,.082.027.163.027.218V9.79a7.319,7.319,0,0,1-.19.735l-.081.245a.027.027,0,0,1-.027.027,6.754,6.754,0,0,1-.488.844,2.467,2.467,0,0,0-.3.436.6.6,0,0,1,.081-.136,9.338,9.338,0,0,1-.732.735.592.592,0,0,1-.136.109c-.054.027-.081.082-.136.109-.3.191-.6.381-.9.544a1.6,1.6,0,0,0-.217.109l-.244.082a11.707,11.707,0,0,1-2.143.517,31.985,31.985,0,0,1-7.731-.381,3.032,3.032,0,0,0-2.116.762,3.417,3.417,0,0,0-1.248,1.824,4.386,4.386,0,0,0,0,1.878,3.765,3.765,0,0,0,1.6,2.1,82.143,82.143,0,0,0,10.2,6.805,32.072,32.072,0,0,0,12.342,3.865,21.01,21.01,0,0,0,12.044-2.45,15.115,15.115,0,0,0,6.944-8.765A11.5,11.5,0,0,0,124.282,13.465ZM12.5,21.93v-.054a.756.756,0,0,0-.027-.245,1.537,1.537,0,0,1,.054.381C12.5,22.012,12.5,21.957,12.5,21.93Zm7.3-10.97c.027,0,.027.027,0,0C19.416,10.688,19.687,10.824,19.8,10.96Zm19.232.517a.457.457,0,0,0-.136.054C38.783,11.477,38.865,11.423,39.028,11.477Zm30.353,8.765c-.081.027-.136.027-.217.054C68.919,20.351,68.73,20.242,69.381,20.242Z" transform="matrix(1, -0.003, 0.003, 1, 97.945, 195.881)" fill="#fff"/>
      <path id="Vector-13" data-name="Vector" d="M0,0A.027.027,0,0,1,.027.028.027.027,0,0,0,0,0Z" transform="matrix(1, -0.003, 0.003, 1, 137.274, 207.31)" fill="#fff"/>
      <path id="Vector-14" data-name="Vector" d="M.114.136C-.049.218-.1.3.412,0H.385C.3.054.2.082.114.136Z" transform="matrix(1, -0.003, 0.003, 1, 186.246, 203.316)" fill="#fff"/>
      <path id="Vector-15" data-name="Vector" d="M.307.187A.951.951,0,0,0,.09.051.027.027,0,0,1,.062.024C-.046-.031-.046,0,.334.241.361.214.334.187.307.187Z" transform="matrix(1, -0.003, 0.003, 1, 194.191, 203.244)" fill="#fff"/>
      <path id="Vector-16" data-name="Vector" d="M.021.021Z" transform="matrix(1, -0.003, 0.003, 1, 163.692, 214.651)" fill="#fff"/>
      <path id="Vector-17" data-name="Vector" d="M.109.109C.136.082.163.027.19,0A2.882,2.882,0,0,0,0,.272L.054.218A.207.207,0,0,1,.109.109Z" transform="matrix(1, -0.003, 0.003, 1, 169.652, 214.166)" fill="#fff"/>
      <path id="Vector-18" data-name="Vector" d="M0,.357c.108-.3.19-.626,0,0Z" transform="matrix(1, -0.003, 0.003, 1, 215.193, 213.526)" fill="#fff"/>
      <path id="Vector-19" data-name="Vector" d="M.185.094c-.3-.163-.19-.082,0,0Z" transform="matrix(1, -0.003, 0.003, 1, 165.076, 215.499)" fill="#fff"/>
      <path id="Vector-20" data-name="Vector" d="M.271.3C.353.354.326.327,0,0A.027.027,0,0,0,.027.027C.108.109.19.218.271.3Z" transform="matrix(1, -0.003, 0.003, 1, 162.489, 213.423)" fill="#fff"/>
      <path id="Vector-21" data-name="Vector" d="M0,.321H0C.217.1.38-.277,0,.321Z" transform="matrix(1, -0.003, 0.003, 1, 194.345, 207.165)" fill="#fff"/>
      <path id="Vector-22" data-name="Vector" d="M0,.028.027,0,0,.028Z" transform="matrix(1, -0.003, 0.003, 1, 135.622, 208.566)" fill="#fff"/>
      <path id="Vector-23" data-name="Vector" d="M0,0H0Z" transform="matrix(1, -0.003, 0.003, 1, 137.138, 207.31)" fill="#fff"/>
      <path id="Vector-24" data-name="Vector" d="M.054.055c.027,0,.027,0,.054-.027A.027.027,0,0,0,.136,0,.244.244,0,0,0,0,.027C.027.027.027.027.054.055Z" transform="matrix(1, -0.003, 0.003, 1, 147.581, 217.436)" fill="#fff"/>
      <path id="Vector-25" data-name="Vector" d="M.009.354C-.018.463.009.463.145,0A.027.027,0,0,1,.118.027C.091.136.037.245.009.354Z" transform="matrix(1, -0.003, 0.003, 1, 113.466, 214.15)" fill="#fff"/>
      <path id="Vector-26" data-name="Vector" d="M0,.449C.109.068.108-.041.081.013.054.149.027.285,0,.449Z" transform="matrix(1, -0.003, 0.003, 1, 111.944, 219.83)" fill="#fff"/>
    </g>
    <path id="Vector-27" data-name="Vector" d="M48.507,12.782a2.754,2.754,0,0,0-3.065,1.252,17.012,17.012,0,0,1-1.031,1.8l-.027.027a2.378,2.378,0,0,1-.217.272c-.244.245-.488.49-.732.708a1.537,1.537,0,0,1-.353.218c-.326.191-.624.381-.976.544-.027,0-.054.027-.081.027a1.114,1.114,0,0,1-.217.082,7.864,7.864,0,0,1-1.058.327c-.19.054-.38.082-.6.136a1.171,1.171,0,0,1-.136.027h-.136c-.19,0-.407.027-.6.027-.271,0-.651-.109-.949-.082-.163-.027-.325-.082-.461-.109-.326-.082-.624-.191-.949-.3l-.488-.245a6.491,6.491,0,0,1-.922-.572c-.027-.027-.054-.027-.109-.054-.081-.082-.19-.163-.271-.245a10.414,10.414,0,0,1-.787-.762c-.136-.136-.244-.272-.38-.408a1.362,1.362,0,0,0-.19-.218c-.3-.354.136.218.19.272a3.691,3.691,0,0,1-.624-.925c-.217-.327-.434-.681-.624-1.034l-.244-.49a.652.652,0,0,1-.081-.191,1.329,1.329,0,0,0-.081-.191,7.047,7.047,0,0,1-.217-.708c-.271-.925-.488-1.878-.814-2.776-.027-.027-.027-.082-.054-.109a2.1,2.1,0,0,0-.326-.953c-.163-.245-.325-.517-.488-.762a8.5,8.5,0,0,0-1.709-2.1,16.552,16.552,0,0,0-17.55-4.3,17.555,17.555,0,0,0-8.87,7.213C.007,11.938-.97,17,1.255,21a8.606,8.606,0,0,0,5.154,4.083,7.765,7.765,0,0,0,6.646-1.415,15.694,15.694,0,0,0,4.232-5.281c.461-.871.9-1.742,1.383-2.586L19.4,14.66c.109-.136.217-.3.326-.436a1.653,1.653,0,0,0,.19-.272,27.93,27.93,0,0,1,1.926-2.1c.326-.327.678-.626,1-.925.054-.054.325-.272.434-.354a1.824,1.824,0,0,1,.3-.191c.217-.136.434-.272.651-.381.027,0,.054-.027.081-.027h.081c.054.054.108.136.163.191a1.748,1.748,0,0,1,.163.272,2.456,2.456,0,0,0,.136.245,3.441,3.441,0,0,1,.136.408,14.879,14.879,0,0,1,.38,1.579A18.279,18.279,0,0,0,26.1,15.4a15.738,15.738,0,0,0,3.364,5.5c2.658,2.831,6.7,4.791,10.633,4.355A11.772,11.772,0,0,0,49.646,18.8a7.88,7.88,0,0,0,.787-3.348A2.643,2.643,0,0,0,48.507,12.782Zm-36.131,1.47c-.434.844-.814,1.715-1.275,2.559-.217.381-.434.762-.678,1.116-.027.027-.027.054-.054.054a3.73,3.73,0,0,0-.434.49c-.136.136-.271.272-.434.408-.027.027-.054.027-.081.054-.163.082-.3.191-.434.272-.054.027-.081.054-.136.082-.136.027-.38.136-.488.163H8.334c-.136,0-.326-.027-.461-.027-.027,0-.081-.027-.108-.027a.457.457,0,0,1-.136-.054c-.109-.054-.244-.136-.353-.191-.027-.027-.081-.054-.108-.082a2.172,2.172,0,0,1-.353-.354l-.054-.054c-.054-.136-.217-.272-.271-.408a3.254,3.254,0,0,0-.217-.436l-.081-.245-.163-.653v-.109c0-.463-.027-.925,0-1.415v-.109a2.531,2.531,0,0,0,.108-.653,9.411,9.411,0,0,1,.326-1.252c.054-.163.109-.354.163-.517.027-.054.081-.218.108-.3.054-.082.081-.191.108-.218a5.767,5.767,0,0,1,.3-.572c.353-.653.841-1.225,1.194-1.878V9.87c.108-.136.244-.272.353-.408.271-.3.543-.572.814-.844l.814-.735.027-.027c.163-.109.326-.218.461-.327a14.2,14.2,0,0,1,1.98-1.116c.027-.027.081-.027.136-.054a2.121,2.121,0,0,1,.38-.136c.38-.136.76-.245,1.139-.354.353-.082.678-.163,1.031-.218H15.5c.217-.027.434-.027.651-.054.76-.027,1.492.082,2.251.082h.081c.19.027.38.082.543.109h.027A26.368,26.368,0,0,0,12.376,14.252Zm22.7,2.368c0-.027.19.136.3.245C35.269,16.811,35.107,16.7,35.08,16.62Z" transform="matrix(1, -0.003, 0.003, 1, 223.61, 198.411)" fill="#fff"/>
    <g id="Group-4" data-name="Group">
      <path id="Vector-28" data-name="Vector" d="M.027,0h0Z" transform="matrix(1, -0.003, 0.003, 1, 139.606, 238.335)" fill="#fff"/>
      <path id="Vector-29" data-name="Vector" d="M.217.082A.1.1,0,0,1,.271.109L.19.027C.163.027.136,0,.108,0H0C.027.027.054.027.081.054A.516.516,0,0,0,.353.218L.325.191A.212.212,0,0,0,.217.082Z" transform="matrix(1, -0.003, 0.003, 1, 139.579, 238.362)" fill="#fff"/>
      <path id="Vector-30" data-name="Vector" d="M.054,0h0Z" transform="matrix(1, -0.003, 0.003, 1, 139.661, 238.335)" fill="#fff"/>
      <path id="Vector-31" data-name="Vector" d="M.027.464C.027.492,0,.492,0,.519.244-.053.244-.053.19.056.19.083.163.111.163.138A1.668,1.668,0,0,0,.027.464Z" transform="matrix(1, -0.003, 0.003, 1, 180.875, 242.607)" fill="#fff"/>
      <path id="Vector-32" data-name="Vector" d="M0,.327C0,.354.081.272.326,0A1.845,1.845,0,0,1,0,.327Z" transform="matrix(1, -0.003, 0.003, 1, 185.388, 236.255)" fill="#fff"/>
      <path id="Vector-33" data-name="Vector" d="M0,0A1.856,1.856,0,0,0,.136.191C.081.136.054.054,0,0Z" transform="matrix(1, -0.003, 0.003, 1, 197.238, 234.808)" fill="#fff"/>
      <path id="Vector-34" data-name="Vector" d="M124.336,13.465a12.912,12.912,0,0,0-.678-2.2,11.682,11.682,0,0,0-.841-1.769c-.108-.163-.217-.3-.326-.463-.217-.3-.9-1.17-.407-.544s-.38-.49-.488-.6a3.487,3.487,0,0,0-4.91,0,3.569,3.569,0,0,0,0,4.927c.163.163.326.3.461.436.027.027.108.136.163.191a.392.392,0,0,1,.054.082c.081.136.163.3.244.436v.027c.054.191.109.408.163.6a.206.206,0,0,0,.027.109c0,.136.027.327.027.381a7.67,7.67,0,0,1-.027,1.116v.027a3.176,3.176,0,0,1-.108.49,8.271,8.271,0,0,1-.326,1.17c-.054.191-.136.354-.19.544.027-.054.027-.136.054-.163a1.329,1.329,0,0,1-.081.191c-.19.381-.38.735-.6,1.089l-.326.49c-.027.027-.054.082-.081.109a7.626,7.626,0,0,1-.787.844,2.907,2.907,0,0,1-.434.381c-.027.027-.081.054-.108.082a22.471,22.471,0,0,1-2.468,1.443l-.651.245c-.515.163-1,.327-1.519.436-.3.082-.6.136-.868.191-.081.027-.163.027-.271.054a13.747,13.747,0,0,1-1.492.109,20.149,20.149,0,0,1-3.147-.136,26.3,26.3,0,0,1-4.53-1.143c-.434-.163-.868-.327-1.275-.49l-.163-.082c-.217-.082-.407-.191-.6-.272-.841-.408-1.682-.817-2.5-1.279a.027.027,0,0,1-.027-.027,12.5,12.5,0,0,0,7.948-6.669,10.236,10.236,0,0,0,.868-5.961,8.712,8.712,0,0,0-2.441-4.682A12.3,12.3,0,0,0,92.464.018,20.21,20.21,0,0,0,75.89,10.443c-1.275,2.368-2.143,4.954-3.553,7.241l-.488.735c.081-.082-.027.082-.136.191l-.027.027a1.653,1.653,0,0,0-.19.272l.163-.245a6.5,6.5,0,0,1-.6.626,1.757,1.757,0,0,1-.244.218c-.027,0-.054.027-.081.054-.217.136-.461.272-.678.408-.109.027-.244.082-.353.109-.081.027-.19.054-.271.082a5.773,5.773,0,0,0-.977.027c-.109-.027-.217-.054-.353-.082-.163-.054-.326-.082-.515-.136a2.818,2.818,0,0,1-.325-.136,1.734,1.734,0,0,1,.3.163c-.326-.191-.705-.327-1.031-.544-.136-.082-.244-.163-.38-.245a3.019,3.019,0,0,1-.407-.327,2.755,2.755,0,0,1,.38.354c-.3-.3-.651-.544-.949-.844-.136-.136-.244-.272-.38-.436l-.244-.245a.027.027,0,0,0-.027-.027c-.027-.027-.054-.082-.109-.109l.081.082c-.136-.191-.244-.354-.38-.544a10.127,10.127,0,0,1-.57-1.062,4.429,4.429,0,0,0-.3-.762c-.136-.408-.244-.817-.353-1.225-.109-.463-.19-.953-.271-1.443a4.876,4.876,0,0,1-.054-.626,38.291,38.291,0,0,1,.054-5.852,3.358,3.358,0,0,0-6.591-.871,58.142,58.142,0,0,1-1.926,7c-.19.544-.407,1.089-.6,1.66-.109.3-.217.572-.353.871-.109.245-.543,1.225-.136.381-.515,1.062-.949,2.123-1.438,3.185a23.134,23.134,0,0,1-1.519,2.94v.027l-.326.327a.027.027,0,0,0-.027.027l-.027.027H49.66l-.027.027h-.054a2.687,2.687,0,0,0-.461-.3l-.109-.109c-.054-.054-.217-.245-.326-.381a1.856,1.856,0,0,0-.136-.191c-.054-.109-.136-.218-.19-.327a3.2,3.2,0,0,1-.136-.3c0-.027-.027-.054-.027-.082-.081-.3-.163-.6-.217-.9-.054-.218-.081-.463-.136-.708,0,0-.054-.354-.054-.463-.163-1.415-.244-2.831-.434-4.246A11.14,11.14,0,0,0,44.29,7.258a7.371,7.371,0,0,0-7.568-2.014c-2.658.98-4.367,3.1-5.886,5.417a28.58,28.58,0,0,0-2.36,4.41c-.488-1.252-.977-2.531-1.438-3.784a15.758,15.758,0,0,0-2.306-4.573,6.207,6.207,0,0,0-.6-.6l-.38-.3a4.94,4.94,0,0,0-.814-.572A6.171,6.171,0,0,0,19.063,4.7a8.728,8.728,0,0,0-4.638,2.831,24.631,24.631,0,0,0-1.736,2.042,8.907,8.907,0,0,0-2.17-3.348,6.3,6.3,0,0,0-6.51-1.552C1.351,5.68-.521,8.157.13,11.069a2.476,2.476,0,0,0,2.74,1.8,2.466,2.466,0,0,0,2.17-2.45v-.272a2.858,2.858,0,0,0,.3-.191h.027A.385.385,0,0,0,5.528,9.9c.081,0,.163-.027.217-.027.054.027.109.027.163.054a.824.824,0,0,0,.19.136c.054.054.109.136.163.191.027.054.081.109.109.163.136.245.353.9.081.054.109.327.217.653.3,1.007a3.636,3.636,0,0,1,.136.517,1.183,1.183,0,0,1,.027.136c0,.109.027.354.027.436v.653a6.214,6.214,0,0,1-.054.708c0,.082-.027.136-.027.218a47.933,47.933,0,0,0-1.112,6.506,13.512,13.512,0,0,0,.271,3.62,9.727,9.727,0,0,0,1.953,3.838,3.4,3.4,0,0,0,3.743.708,3.416,3.416,0,0,0,2.089-3.13c.027-.327.027-.626.054-.953,0-.109.027-.218.027-.3a.1.1,0,0,1-.027.082.1.1,0,0,1,.027-.082v-.109A1.361,1.361,0,0,1,13.964,24c.081-.436.136-.9.217-1.334a24.143,24.143,0,0,1,1.085-3.62,1.894,1.894,0,0,0,.136-.354.694.694,0,0,1,.054-.191c.027-.054.054-.082.054-.136,0-.027.027-.082.027-.109,0,.027-.027.054-.027.082.054-.109.081-.218.136-.327.271-.572.57-1.143.868-1.688a31.548,31.548,0,0,1,2.062-3.158.827.827,0,0,0,.136-.191l.027-.027c.19-.218.353-.436.543-.653a6.5,6.5,0,0,1,.6-.626.72.72,0,0,1,.163-.136c.054.109.108.245.163.354.081.191.163.408.19.49.136.381.3.789.434,1.17.515,1.388,1.031,2.749,1.546,4.137,1.194,3.185,2.441,6.37,3.581,9.581a3.321,3.321,0,0,0,3.635,2.368,3.382,3.382,0,0,0,2.875-3.266c.027-.245.054-.517.081-.762,0-.054.027-.109.027-.191.081-.572.19-1.143.3-1.715a31.912,31.912,0,0,1,.814-3.266c.163-.517.326-1.034.515-1.552.054-.163.136-.354.19-.517a2.678,2.678,0,0,0,.217-.49,31.443,31.443,0,0,1,1.573-2.994c.271-.463.57-.925.868-1.388.136-.218.271-.408.407-.6a.376.376,0,0,0,.081-.109c-.109.136-.163.191.027-.027a.827.827,0,0,0,.136-.191.827.827,0,0,1-.136.191.1.1,0,0,0,.027-.054,10.726,10.726,0,0,1,.949-.98c.027-.027.054-.027.109-.054.081-.054.163-.082.244-.136.027,0,.054-.027.081-.027h0c.027,0,.054-.027.081-.027s.054,0,.054.027a.1.1,0,0,0-.054-.027h.027c.027,0,.027.027.054.027h.027a.027.027,0,0,0-.027-.027h.054c.027,0,.027.027.054.054h0l.027.027.027.027c.108.054.163.109.081.082l.054.054a.1.1,0,0,0,.081.027h-.054l.244.245c.027.027.027.054.054.054a6.157,6.157,0,0,1,.434.708c.027.027.054.136.109.218a3.059,3.059,0,0,1,.136.354,5.387,5.387,0,0,1,.19.708,1.384,1.384,0,0,1,.054.354v.027c.027,1.143.163,2.314.244,3.457a16.526,16.526,0,0,0,.705,4.137,10.9,10.9,0,0,0,2.143,3.675,7.654,7.654,0,0,0,7.459,2.559c2.6-.626,4.34-2.858,5.506-5.117.434-.817.841-1.66,1.221-2.5a12.4,12.4,0,0,0,2.984,3.457,12.137,12.137,0,0,0,8.816,2.913,10.089,10.089,0,0,0,4.693-1.688,13.784,13.784,0,0,0,3.364-3.511,18.938,18.938,0,0,0,1.655-3.212c.3-.708.624-1.443.922-2.178a.027.027,0,0,1-.027.027c0-.027.027-.054.027-.082a.388.388,0,0,0,.054-.163,2.164,2.164,0,0,1,.109-.245c.109-.272.244-.544.353-.817a25.033,25.033,0,0,1,1.953-3.294c-.6.925.054-.054.244-.272.217-.245.434-.463.651-.681.353-.354.76-.653,1.112-.98a.808.808,0,0,1,.271-.272c.027,0,.027-.027.054-.027l.027-.027-.027.027.326-.245c.271-.191.515-.354.787-.517a15.46,15.46,0,0,1,1.736-.953l.163-.082.163-.082c.027,0,.054-.027.108-.027.027-.027.054-.027.081-.054a.084.084,0,0,1-.054.027c.244-.109.515-.191.759-.272a15.447,15.447,0,0,1,1.926-.517c.136-.027.3-.054.434-.082.081,0,.244-.027.3-.027.136,0,.3-.027.434-.027h.868c.136,0,.3.027.434.027.109,0,.244.027.353.027l-.543-.082a6.639,6.639,0,0,1,1.763.408c.054.027.136.054.19.082.244.136.488.245.705.381a.942.942,0,0,1,.244.163c.054.054.136.082.19.136L96.4,7.8l.3.3a1.185,1.185,0,0,1-.109-.191.955.955,0,0,0,.136.218c.163.191.271.381.136.191.054.109.136.218.19.327a2.045,2.045,0,0,1,.136.436v.027c0,.082.027.163.027.218v.408a7.317,7.317,0,0,1-.19.735l-.081.245a.027.027,0,0,1-.027.027,6.752,6.752,0,0,1-.488.844,2.467,2.467,0,0,0-.3.436.6.6,0,0,1,.081-.136,9.338,9.338,0,0,1-.732.735.592.592,0,0,1-.136.109c-.054.027-.081.082-.136.109-.3.191-.6.381-.9.544a1.6,1.6,0,0,0-.217.109l-.244.082a11.707,11.707,0,0,1-2.143.517,31.985,31.985,0,0,1-7.731-.381,3.032,3.032,0,0,0-2.116.762A3.417,3.417,0,0,0,80.61,16.3a4.386,4.386,0,0,0,0,1.878,3.765,3.765,0,0,0,1.6,2.1,82.145,82.145,0,0,0,10.2,6.805,32.072,32.072,0,0,0,12.342,3.865A21.01,21.01,0,0,0,116.8,28.49a15.115,15.115,0,0,0,6.944-8.765A11.032,11.032,0,0,0,124.336,13.465ZM12.553,21.93v-.054a.756.756,0,0,0-.027-.245,1.537,1.537,0,0,1,.054.381C12.553,22.012,12.553,21.957,12.553,21.93Zm7.324-10.97h0C19.47,10.688,19.741,10.824,19.877,10.96Zm19.232.517a.457.457,0,0,0-.136.054C38.838,11.477,38.919,11.423,39.109,11.477Zm30.326,8.765c-.081.027-.136.027-.217.054C68.974,20.351,68.784,20.242,69.435,20.242Z" transform="matrix(1, -0.003, 0.003, 1, 100.25, 226.906)" fill="#fff"/>
      <path id="Vector-35" data-name="Vector" d="M0,0A.027.027,0,0,1,.027.028C.027,0,.027,0,0,0Z" transform="matrix(1, -0.003, 0.003, 1, 139.633, 238.335)" fill="#fff"/>
      <path id="Vector-36" data-name="Vector" d="M.114.136C-.049.218-.1.3.412,0H.385A2.517,2.517,0,0,1,.114.136Z" transform="matrix(1, -0.003, 0.003, 1, 188.606, 234.341)" fill="#fff"/>
      <path id="Vector-37" data-name="Vector" d="M.307.187A.951.951,0,0,0,.09.051.027.027,0,0,1,.062.024C-.046-.031-.046,0,.334.241A.1.1,0,0,1,.307.187Z" transform="matrix(1, -0.003, 0.003, 1, 196.577, 234.242)" fill="#fff"/>
      <path id="Vector-38" data-name="Vector" d="M.032.021c-.055-.028-.027-.028,0,0Z" transform="matrix(1, -0.003, 0.003, 1, 166.068, 245.676)" fill="#fff"/>
      <path id="Vector-39" data-name="Vector" d="M.109.109C.136.082.163.027.19,0A2.882,2.882,0,0,0,0,.272L.054.218A.207.207,0,0,1,.109.109Z" transform="matrix(1, -0.003, 0.003, 1, 172.012, 245.191)" fill="#fff"/>
      <path id="Vector-40" data-name="Vector" d="M0,.357c.108-.3.19-.626,0,0Z" transform="matrix(1, -0.003, 0.003, 1, 217.553, 244.551)" fill="#fff"/>
      <path id="Vector-41" data-name="Vector" d="M.185.094c-.3-.163-.19-.082,0,0Z" transform="matrix(1, -0.003, 0.003, 1, 167.436, 246.524)" fill="#fff"/>
      <path id="Vector-42" data-name="Vector" d="M.271.3C.353.354.326.327,0,0A.027.027,0,0,0,.027.027C.109.109.19.218.271.3Z" transform="matrix(1, -0.003, 0.003, 1, 164.849, 244.448)" fill="#fff"/>
      <path id="Vector-43" data-name="Vector" d="M0,.321c.19-.218.38-.6,0,0Z" transform="matrix(1, -0.003, 0.003, 1, 196.732, 238.19)" fill="#fff"/>
      <path id="Vector-44" data-name="Vector" d="M0,.028.027,0,0,.028Z" transform="matrix(1, -0.003, 0.003, 1, 137.982, 239.591)" fill="#fff"/>
      <path id="Vector-45" data-name="Vector" d="M0,0H0Z" transform="matrix(1, -0.003, 0.003, 1, 139.498, 238.335)" fill="#fff"/>
      <path id="Vector-46" data-name="Vector" d="M.054.055c.027,0,.027,0,.054-.027A.027.027,0,0,0,.136,0,.244.244,0,0,0,0,.027C.027.027.027.027.054.055Z" transform="matrix(1, -0.003, 0.003, 1, 149.94, 248.461)" fill="#fff"/>
      <path id="Vector-47" data-name="Vector" d="M.009.354C-.018.463.009.463.145,0A.027.027,0,0,1,.118.027,1.538,1.538,0,0,1,.009.354Z" transform="matrix(1, -0.003, 0.003, 1, 115.826, 245.175)" fill="#fff"/>
      <path id="Vector-48" data-name="Vector" d="M0,.449C.109.068.109-.041.081.013A3.016,3.016,0,0,1,0,.449Z" transform="matrix(1, -0.003, 0.003, 1, 114.304, 250.855)" fill="#fff"/>
    </g>
    <path id="Vector-49" data-name="Vector" d="M48.507,12.782a2.754,2.754,0,0,0-3.065,1.252,17.013,17.013,0,0,1-1.031,1.8l-.027.027a2.379,2.379,0,0,1-.217.272c-.244.245-.488.49-.732.708a1.537,1.537,0,0,1-.353.218c-.326.191-.624.381-.976.544-.027,0-.054.027-.081.027a1.114,1.114,0,0,1-.217.082,7.863,7.863,0,0,1-1.058.327c-.19.054-.38.082-.6.136a1.171,1.171,0,0,1-.136.027h-.136c-.19,0-.407.027-.6.027-.271,0-.651-.109-.949-.082-.163-.027-.326-.082-.461-.109-.326-.082-.624-.191-.949-.3l-.488-.245a6.491,6.491,0,0,1-.922-.572c-.027-.027-.054-.027-.108-.054-.081-.082-.19-.163-.271-.245a10.416,10.416,0,0,1-.787-.762c-.136-.136-.244-.272-.38-.408a1.362,1.362,0,0,0-.19-.218c-.3-.354.136.218.19.272a3.691,3.691,0,0,1-.624-.925c-.217-.327-.434-.681-.624-1.034l-.244-.49a.651.651,0,0,1-.081-.191,1.329,1.329,0,0,0-.081-.191,7.047,7.047,0,0,1-.217-.708c-.271-.925-.488-1.878-.814-2.776-.027-.027-.027-.082-.054-.109a2.1,2.1,0,0,0-.326-.953c-.163-.245-.325-.517-.488-.762a8.5,8.5,0,0,0-1.709-2.1,16.553,16.553,0,0,0-17.55-4.3,17.555,17.555,0,0,0-8.87,7.213C.007,11.938-.97,17,1.255,21a8.606,8.606,0,0,0,5.154,4.083,7.765,7.765,0,0,0,6.646-1.415,15.694,15.694,0,0,0,4.232-5.281c.461-.871.9-1.742,1.383-2.586L19.4,14.66c.108-.136.217-.3.326-.436a1.652,1.652,0,0,0,.19-.272,27.931,27.931,0,0,1,1.926-2.1c.326-.327.678-.626,1-.925.054-.054.325-.272.434-.354a1.824,1.824,0,0,1,.3-.191c.217-.136.434-.272.651-.381.027,0,.054-.027.081-.027h.081c.054.054.109.136.163.191a1.748,1.748,0,0,1,.163.272,2.456,2.456,0,0,0,.136.245,3.441,3.441,0,0,1,.136.408,14.879,14.879,0,0,1,.38,1.579A18.279,18.279,0,0,0,26.1,15.4a15.738,15.738,0,0,0,3.364,5.5c2.658,2.831,6.7,4.791,10.633,4.355A11.772,11.772,0,0,0,49.646,18.8a7.88,7.88,0,0,0,.787-3.348A2.614,2.614,0,0,0,48.507,12.782Zm-36.1,1.47c-.434.844-.814,1.715-1.275,2.559-.217.381-.434.762-.678,1.116-.027.027-.027.054-.054.054a3.73,3.73,0,0,0-.434.49c-.136.136-.271.272-.434.408-.027.027-.054.027-.081.054-.163.082-.3.191-.434.272-.054.027-.081.054-.136.082-.136.027-.38.136-.488.163H8.361c-.136,0-.326-.027-.461-.027-.027,0-.081-.027-.108-.027a.457.457,0,0,1-.136-.054c-.109-.054-.244-.136-.353-.191-.027-.027-.081-.054-.108-.082a2.172,2.172,0,0,1-.353-.354l-.054-.054c-.054-.136-.217-.272-.271-.408a3.254,3.254,0,0,0-.217-.436l-.081-.245-.163-.653v-.109c0-.463-.027-.925,0-1.415v-.109a2.531,2.531,0,0,0,.108-.653,9.411,9.411,0,0,1,.326-1.252c.054-.163.109-.354.163-.517.027-.054.081-.218.108-.3.054-.082.081-.191.108-.218a5.767,5.767,0,0,1,.3-.572c.353-.653.841-1.225,1.194-1.878V9.87c.109-.136.244-.272.353-.408.271-.3.543-.572.814-.844l.814-.735.027-.027c.163-.109.326-.218.461-.327a14.2,14.2,0,0,1,1.98-1.116c.027-.027.081-.027.136-.054a2.121,2.121,0,0,1,.38-.136c.38-.136.76-.245,1.139-.354.353-.082.678-.163,1.031-.218h.027c.217-.027.434-.027.651-.054.76-.027,1.492.082,2.251.082h.081c.19.027.38.082.543.109h.027A26,26,0,0,0,12.4,14.252ZM35.08,16.62c0-.027.19.136.3.245C35.269,16.784,35.107,16.7,35.08,16.62Z" transform="matrix(1, -0.003, 0.003, 1, 225.97, 229.436)" fill="#fff"/>
  </g>
</svg>
