<svg id="logout_1_" data-name="logout (1)" xmlns="http://www.w3.org/2000/svg" width="24" height="24" viewBox="0 0 24 24">
  <g id="Group_49" data-name="Group 49">
    <path id="Path_26" data-name="Path 26" d="M13.5,24H2.5A2.5,2.5,0,0,1,0,21.5V2.5A2.5,2.5,0,0,1,2.5,0h11A2.5,2.5,0,0,1,16,2.5v6a.5.5,0,0,1-1,0v-6A1.5,1.5,0,0,0,13.5,1H2.5A1.5,1.5,0,0,0,1,2.5v19A1.5,1.5,0,0,0,2.5,23h11A1.5,1.5,0,0,0,15,21.5v-6a.5.5,0,0,1,1,0v6A2.5,2.5,0,0,1,13.5,24Z" fill="#c14444"/>
  </g>
  <g id="Group_50" data-name="Group 50">
    <path id="Path_27" data-name="Path 27" d="M23.5,12.5H8.5a.5.5,0,0,1,0-1h15a.5.5,0,0,1,0,1Z" fill="#c14444"/>
  </g>
  <g id="Group_51" data-name="Group 51">
    <path id="Path_28" data-name="Path 28" d="M19.5,16.5a.5.5,0,0,1-.354-.853L22.793,12,19.147,8.354a.5.5,0,0,1,.707-.707l4,4a.5.5,0,0,1,0,.707l-4,4A.5.5,0,0,1,19.5,16.5Z" fill="#c14444"/>
  </g>
</svg>
