<svg xmlns="http://www.w3.org/2000/svg" width="127.672" height="185.602" viewBox="0 0 127.672 185.602">
  <g id="Group_173" data-name="Group 173" transform="translate(-123.663 -297.441)">
    <g id="Group_144" data-name="Group 144" transform="translate(125 311.065)">
      <ellipse id="Ellipse_7" data-name="Ellipse 7" cx="51.162" cy="5.949" rx="51.162" ry="5.949" transform="translate(12.131 160.08)" fill="#c7ece8"/>
      <g id="Group_143" data-name="Group 143" transform="translate(0 0)">
        <g id="Group_124" data-name="Group 124" transform="translate(0 86.964)">
          <g id="Group_122" data-name="Group 122">
            <path id="Path_37" data-name="Path 37" d="M200.808,358.514c-6.649-.1-12.295-1.19-16.657,6.742-3.173,5.949-2.38,12.691-2.38,19.433" transform="translate(-176.545 -358.41)" fill="none" stroke="#000" stroke-miterlimit="10" stroke-width="1"/>
            <path id="Path_38" data-name="Path 38" d="M185.845,392.336a2.148,2.148,0,0,1-2.28,1.983h-6.078a2.147,2.147,0,0,1-2.28-1.983h0a2.148,2.148,0,0,1,2.28-1.983h6.078a2.148,2.148,0,0,1,2.28,1.983Z" transform="translate(-175.206 -365.015)" fill="#b74964"/>
            <path id="Path_39" data-name="Path 39" d="M175.412,401.7c0-3.5,2.308-6.346,5.156-6.346s5.156,2.841,5.156,6.346" transform="translate(-175.249 -366.049)" fill="none" stroke="#000" stroke-miterlimit="10" stroke-width="3"/>
          </g>
          <g id="Group_123" data-name="Group 123" transform="translate(100.737)">
            <path id="Path_40" data-name="Path 40" d="M302.206,358.514c6.649-.1,12.295-1.19,16.657,6.742,3.173,5.949,2.38,12.691,2.38,19.433" transform="translate(-302.206 -358.41)" fill="none" stroke="#000" stroke-miterlimit="10" stroke-width="1"/>
            <path id="Path_41" data-name="Path 41" d="M319.381,392.336a2.147,2.147,0,0,0,2.28,1.983h6.079a2.147,2.147,0,0,0,2.28-1.983h0a2.148,2.148,0,0,0-2.28-1.983h-6.079a2.148,2.148,0,0,0-2.28,1.983Z" transform="translate(-305.758 -365.015)" fill="#b74964"/>
            <path id="Path_42" data-name="Path 42" d="M329.9,401.7c0-3.5-2.308-6.346-5.156-6.346s-5.156,2.841-5.156,6.346" transform="translate(-305.801 -366.049)" fill="none" stroke="#000" stroke-miterlimit="10" stroke-width="3"/>
          </g>
        </g>
        <g id="Group_127" data-name="Group 127" transform="translate(31.171 118.003)">
          <g id="Group_125" data-name="Group 125">
            <path id="Path_43" data-name="Path 43" d="M230.436,435.813c0,2.519-1.775,4.561-3.966,4.561h0c-2.191,0-3.966-2.042-3.966-4.561V402.1c0-2.519,1.775-4.561,3.966-4.561h0c2.191,0,3.966,2.042,3.966,4.561Z" transform="translate(-216.158 -397.541)" fill="#85d3c5"/>
            <ellipse id="Ellipse_8" data-name="Ellipse 8" cx="5.949" cy="5.949" rx="5.949" ry="5.949" transform="translate(4.363 17.45)" fill="#b74964"/>
            <path id="Path_44" data-name="Path 44" d="M235.127,449.007a3.966,3.966,0,0,1-3.966,3.966H218.47a3.966,3.966,0,0,1-3.966-3.966h0a3.966,3.966,0,0,1,3.966-3.966h12.691a3.966,3.966,0,0,1,3.966,3.966Z" transform="translate(-214.504 -407.364)"/>
            <ellipse id="Ellipse_9" data-name="Ellipse 9" cx="2.38" cy="2.38" rx="2.38" ry="2.38" transform="translate(7.932 21.02)" fill="#d15741"/>
          </g>
          <g id="Group_126" data-name="Group 126" transform="translate(42.04)">
            <path id="Path_45" data-name="Path 45" d="M283.436,435.813c0,2.519-1.775,4.561-3.966,4.561h0c-2.191,0-3.966-2.042-3.966-4.561V402.1c0-2.519,1.775-4.561,3.966-4.561h0c2.191,0,3.966,2.042,3.966,4.561Z" transform="translate(-269.158 -397.541)" fill="#85d3c5"/>
            <ellipse id="Ellipse_10" data-name="Ellipse 10" cx="5.949" cy="5.949" rx="5.949" ry="5.949" transform="translate(4.363 17.45)" fill="#b74964"/>
            <ellipse id="Ellipse_11" data-name="Ellipse 11" cx="2.38" cy="2.38" rx="2.38" ry="2.38" transform="translate(7.932 21.02)" fill="#d15741"/>
            <path id="Path_46" data-name="Path 46" d="M288.127,449.007a3.965,3.965,0,0,1-3.966,3.966H271.47a3.965,3.965,0,0,1-3.966-3.966h0a3.966,3.966,0,0,1,3.966-3.966h12.691a3.965,3.965,0,0,1,3.966,3.966Z" transform="translate(-267.504 -407.364)"/>
          </g>
        </g>
        <g id="Group_133" data-name="Group 133" transform="translate(37.913)">
          <g id="Group_128" data-name="Group 128" transform="translate(0 10.128)">
            <rect id="Rectangle_18" data-name="Rectangle 18" width="49.179" height="84.476" rx="22" fill="#85d3c5"/>
            <path id="Path_47" data-name="Path 47" d="M258.051,267.435c9.152,0,14.746,3.051,17.8,11.7" transform="translate(-231.458 -259.14)" fill="none" stroke="#fff" stroke-miterlimit="10" stroke-width="3"/>
          </g>
          <g id="Group_129" data-name="Group 129" transform="translate(15.864)">
            <path id="Path_48" data-name="Path 48" d="M256.056,257.3a2.776,2.776,0,0,1-2.776,2.776h0A2.775,2.775,0,0,1,250.5,257.3v-5.751a2.776,2.776,0,0,1,2.776-2.776h0a2.776,2.776,0,0,1,2.776,2.776Z" transform="translate(-244.555 -248.773)"/>
            <path id="Path_49" data-name="Path 49" d="M260.454,259.252a2.479,2.479,0,0,1-2.479,2.479H245.483A2.479,2.479,0,0,1,243,259.252h0a2.479,2.479,0,0,1,2.479-2.479h12.493a2.479,2.479,0,0,1,2.479,2.479Z" transform="translate(-243.004 -250.427)" fill="#b74964"/>
          </g>
          <g id="Group_132" data-name="Group 132" transform="translate(10.51 33.91)">
            <rect id="Rectangle_19" data-name="Rectangle 19" width="28.159" height="35.694" rx="4"/>
            <g id="Group_131" data-name="Group 131" transform="translate(5.354 7.833)">
              <g id="Group_130" data-name="Group 130">
                <ellipse id="Ellipse_12" data-name="Ellipse 12" cx="2.38" cy="2.38" rx="2.38" ry="2.38" fill="#d15741"/>
                <ellipse id="Ellipse_13" data-name="Ellipse 13" cx="2.38" cy="2.38" rx="2.38" ry="2.38" transform="translate(12.692)" fill="#d15741"/>
              </g>
              <line id="Line_11" data-name="Line 11" x2="7.932" transform="translate(4.757 9.221)" fill="none" stroke="#fff" stroke-miterlimit="10" stroke-width="1.953"/>
            </g>
          </g>
        </g>
        <g id="Group_139" data-name="Group 139" transform="translate(21.058 61.686)">
          <rect id="Rectangle_20" data-name="Rectangle 20" width="82.89" height="63.06" rx="14" fill="#e6ae55"/>
          <g id="Group_138" data-name="Group 138" transform="translate(8.433 7.747)">
            <g id="Group_134" data-name="Group 134" transform="translate(0 20.61)">
              <ellipse id="Ellipse_14" data-name="Ellipse 14" cx="3.966" cy="3.966" rx="3.966" ry="3.966" fill="#b74964"/>
              <ellipse id="Ellipse_15" data-name="Ellipse 15" cx="3.966" cy="3.966" rx="3.966" ry="3.966" transform="translate(0 11.105)" fill="#d15741"/>
            </g>
            <g id="Group_135" data-name="Group 135" transform="translate(17.148 27.833)">
              <path id="Path_50" data-name="Path 50" d="M265.732,372.588c0,.658-.8,1.19-1.792,1.19H235.8c-.99,0-1.792-.531-1.792-1.19h0c0-.658.8-1.19,1.792-1.19H263.94c.989,0,1.792.532,1.792,1.19Z" transform="translate(-234.004 -371.398)"/>
              <path id="Path_51" data-name="Path 51" d="M265.732,377.588c0,.658-.8,1.19-1.792,1.19H235.8c-.99,0-1.792-.531-1.792-1.19h0c0-.658.8-1.19,1.792-1.19H263.94c.989,0,1.792.532,1.792,1.19Z" transform="translate(-234.004 -372.432)"/>
              <path id="Path_52" data-name="Path 52" d="M265.732,382.588c0,.658-.8,1.19-1.792,1.19H235.8c-.99,0-1.792-.531-1.792-1.19h0c0-.658.8-1.19,1.792-1.19H263.94c.989,0,1.792.532,1.792,1.19Z" transform="translate(-234.004 -373.466)"/>
              <path id="Path_53" data-name="Path 53" d="M265.732,387.588c0,.658-.8,1.19-1.792,1.19H235.8c-.99,0-1.792-.531-1.792-1.19h0c0-.658.8-1.19,1.792-1.19H263.94c.989,0,1.792.532,1.792,1.19Z" transform="translate(-234.004 -374.5)"/>
            </g>
            <path id="Path_54" data-name="Path 54" d="M295.513,336.308" transform="translate(-229.576 -336.308)" fill="none" stroke="#000" stroke-miterlimit="10" stroke-width="1"/>
            <g id="Group_137" data-name="Group 137" transform="translate(8.422 2.168)">
              <path id="Path_55" data-name="Path 55" d="M272.183,348.163a9.122,9.122,0,0,1-9.122,9.122H232.126A9.122,9.122,0,0,1,223,348.163h0a9.122,9.122,0,0,1,9.122-9.122h30.935a9.122,9.122,0,0,1,9.122,9.122Z" transform="translate(-223.004 -339.041)" fill="#fff"/>
              <g id="Group_136" data-name="Group 136" transform="translate(9.386 4.825)">
                <ellipse id="Ellipse_16" data-name="Ellipse 16" cx="4.296" cy="4.296" rx="4.296" ry="4.296"/>
                <ellipse id="Ellipse_17" data-name="Ellipse 17" cx="4.296" cy="4.296" rx="4.296" ry="4.296" transform="translate(21.416)"/>
              </g>
            </g>
          </g>
          <path id="Path_56" data-name="Path 56" d="M253.754,326.541h30.538a11.1,11.1,0,0,1,11.1,11.1V378.5a11.1,11.1,0,0,1-11.1,11.1H253.754" transform="translate(-212.507 -326.541)" opacity="0.1"/>
        </g>
        <g id="Group_142" data-name="Group 142" transform="translate(18.407 56.516)">
          <g id="Group_140" data-name="Group 140" transform="translate(0 22.812)">
            <path id="Path_57" data-name="Path 57" d="M202.378,362.252a1.983,1.983,0,0,1-1.983,1.983h0a1.983,1.983,0,0,1-1.983-1.983V350.766a1.983,1.983,0,0,1,1.983-1.983h0a1.983,1.983,0,0,1,1.983,1.983Z" transform="translate(-198.412 -348.783)" fill="#85d3c5"/>
            <path id="Path_58" data-name="Path 58" d="M304.588,362.252a1.983,1.983,0,0,0,1.983,1.983h0a1.983,1.983,0,0,0,1.983-1.983V350.766a1.983,1.983,0,0,0-1.983-1.983h0a1.983,1.983,0,0,0-1.983,1.983Z" transform="translate(-220.369 -348.783)" fill="#85d3c5"/>
          </g>
          <path id="Path_59" data-name="Path 59" d="M274.122,323.1a3.073,3.073,0,0,1-3.074,3.074h-48.28A3.073,3.073,0,0,1,219.7,323.1h0a3.074,3.074,0,0,1,3.074-3.074h48.28a3.073,3.073,0,0,1,3.074,3.074Z" transform="translate(-202.813 -320.023)" fill="#d15741"/>
          <g id="Group_141" data-name="Group 141" transform="translate(16.135 67.224)">
            <path id="Path_60" data-name="Path 60" d="M232.635,406.657a1.885,1.885,0,0,1-1.884,1.884H220.638a1.884,1.884,0,0,1-1.884-1.884h0a1.884,1.884,0,0,1,1.884-1.884h10.113a1.884,1.884,0,0,1,1.884,1.884Z" transform="translate(-218.754 -404.773)" fill="#d15741"/>
            <path id="Path_61" data-name="Path 61" d="M285.635,406.657a1.884,1.884,0,0,1-1.884,1.884H273.638a1.884,1.884,0,0,1-1.884-1.884h0a1.884,1.884,0,0,1,1.884-1.884h10.113a1.884,1.884,0,0,1,1.884,1.884Z" transform="translate(-229.714 -404.773)" fill="#d15741"/>
          </g>
        </g>
      </g>
    </g>
    <g id="Group_147" data-name="Group 147" transform="translate(192.358 297.441)">
      <rect id="Rectangle_21" data-name="Rectangle 21" width="1.433" height="2.866" transform="translate(0)" fill="#d15741"/>
      <rect id="Rectangle_25" data-name="Rectangle 25" width="2.866" height="2.866" transform="translate(1.433 4.299)" fill="#d15741"/>
      <rect id="Rectangle_26" data-name="Rectangle 26" width="2.866" height="1.433" transform="translate(1.433 8.599)" fill="#d15741"/>
      <rect id="Rectangle_22" data-name="Rectangle 22" width="1.433" height="5.733" transform="translate(4.299)" fill="#d15741"/>
      <rect id="Rectangle_23" data-name="Rectangle 23" width="5.733" height="1.433" transform="translate(0)" fill="#d15741"/>
      <rect id="Rectangle_24" data-name="Rectangle 24" width="4.299" height="1.433" transform="translate(1.433 4.299)" fill="#d15741"/>
    </g>
  </g>
</svg>
