<svg xmlns="http://www.w3.org/2000/svg" width="125.997" height="169.167" viewBox="0 0 125.997 169.167">
  <g id="Group_198" data-name="Group 198" transform="translate(226.105 -322.975)">
    <ellipse id="Ellipse_20" data-name="Ellipse 20" cx="46.401" cy="7.685" rx="46.401" ry="7.685" transform="translate(-221.937 476.771)" fill="#c7ece8"/>
    <g id="Group_176" data-name="Group 176" transform="translate(-224.937 384.787)">
      <g id="Group_174" data-name="Group 174" transform="translate(49.813 23.189)">
        <path id="Path_96" data-name="Path 96" d="M-118.79,467.055c5.611,5.859-5.821,16.742-9.056,21.169-4.7,6.255-9.816,12.185-14.56,18.076" transform="translate(148.647 -454.2)" fill="none" stroke="#000" stroke-miterlimit="10" stroke-width="1"/>
        <path id="Path_97" data-name="Path 97" d="M-128.637,453.309a1.622,1.622,0,0,0,.24,2.282l10.817,8.714a1.624,1.624,0,0,0,2.283-.251l3.685-4.575a1.623,1.623,0,0,0-.242-2.282l-10.817-8.714a1.623,1.623,0,0,0-2.28.251Z" transform="translate(144.346 -448.127)" fill="#e6ae55"/>
        <path id="Path_98" data-name="Path 98" d="M-145.871,531.588a3.684,3.684,0,0,0-.547-5.182,3.683,3.683,0,0,0-5.177.571" transform="translate(151.595 -472.981)" fill="none" stroke="#000" stroke-miterlimit="10" stroke-width="3"/>
        <path id="Path_99" data-name="Path 99" d="M-146.963,521.813a.91.91,0,0,0,.135,1.28l4.167,3.357a.909.909,0,0,0,1.279-.141h0a.909.909,0,0,0-.134-1.28l-4.167-3.357a.911.911,0,0,0-1.28.141Z" transform="translate(150.174 -471.658)" fill="#85d3c5"/>
      </g>
      <g id="Group_175" data-name="Group 175">
        <path id="Path_100" data-name="Path 100" d="M-182.42,419.106c-6.92-4.235-15.119,9.252-18.756,13.354-5.111,5.928-9.816,12.185-14.56,18.075" transform="translate(221.985 -415.367)" fill="none" stroke="#000" stroke-miterlimit="10" stroke-width="1"/>
        <path id="Path_101" data-name="Path 101" d="M-157.682,429.912a1.624,1.624,0,0,1-2.281.251l-10.817-8.713a1.624,1.624,0,0,1-.241-2.284l3.685-4.575a1.624,1.624,0,0,1,2.282-.249l10.817,8.714a1.623,1.623,0,0,1,.241,2.281Z" transform="translate(207.756 -413.985)" fill="#e6ae55"/>
        <path id="Path_102" data-name="Path 102" d="M-224.937,467.9a3.684,3.684,0,0,1,5.179-.57,3.683,3.683,0,0,1,.545,5.181" transform="translate(224.937 -430.838)" fill="none" stroke="#000" stroke-miterlimit="10" stroke-width="3"/>
        <path id="Path_103" data-name="Path 103" d="M-214.723,467.229a.908.908,0,0,1-1.278.141l-4.167-3.356a.908.908,0,0,1-.135-1.278h0a.908.908,0,0,1,1.278-.141l4.167,3.357a.908.908,0,0,1,.134,1.279Z" transform="translate(223.515 -429.515)" fill="#85d3c5"/>
      </g>
    </g>
    <path id="Path_104" data-name="Path 104" d="M-150.565,442.639a2.835,2.835,0,0,1,3.995-.27l3,2.419a2.836,2.836,0,0,1,.586,3.961l-8.627,10.709a2.836,2.836,0,0,1-3.995.27l-3-2.419a2.836,2.836,0,0,1-.586-3.961Z" transform="translate(-20.911 -38.082)"/>
    <g id="Group_177" data-name="Group 177" transform="translate(-133.154 342)">
      <path id="Path_105" data-name="Path 105" d="M-65.19,355.024a1.562,1.562,0,0,1,2.2-.148l3.035,2.445a1.561,1.561,0,0,1,.322,2.181l-24.3,30.163a1.563,1.563,0,0,1-2.2.15l-3.035-2.444a1.564,1.564,0,0,1-.323-2.184Z" transform="translate(89.799 -352.112)" fill="#e6ae55"/>
      <path id="Path_106" data-name="Path 106" d="M-54.348,350.987a5.473,5.473,0,0,0,.886,7.69,5.473,5.473,0,0,0,7.7-.774" transform="translate(78.807 -350.987)" fill="#85d3c5"/>
      <path id="Path_107" data-name="Path 107" d="M-72.494,373.989a2.836,2.836,0,0,1,3.995-.27l3.149,2.536a2.835,2.835,0,0,1,.584,3.96l-1.244,1.544A2.835,2.835,0,0,1-70,382.03l-3.148-2.536a2.837,2.837,0,0,1-.587-3.961Z" transform="translate(84.827 -358.058)"/>
    </g>
    <g id="Group_178" data-name="Group 178" transform="translate(-146.685 322.975)">
      <path id="Path_108" data-name="Path 108" d="M-105.7,325.827a1.562,1.562,0,0,1,1.765-1.32l3.877.4a1.562,1.562,0,0,1,1.457,1.656l-4.015,38.524a1.562,1.562,0,0,1-1.767,1.321l-3.877-.4a1.564,1.564,0,0,1-1.455-1.658Z" transform="translate(109.722 -323.463)" fill="#e6ae55"/>
      <path id="Path_109" data-name="Path 109" d="M-106.329,322.975a5.474,5.474,0,0,0,4.92,5.975,5.475,5.475,0,0,0,6.048-4.833" transform="translate(108.643 -322.975)" fill="#85d3c5"/>
      <path id="Path_110" data-name="Path 110" d="M-108.665,351.226a2.835,2.835,0,0,1,3.205-2.4l4.023.419a2.835,2.835,0,0,1,2.642,3.007L-99,354.227a2.835,2.835,0,0,1-3.206,2.4l-4.023-.419a2.835,2.835,0,0,1-2.642-3.007Z" transform="translate(109.453 -331.264)"/>
    </g>
    <g id="Group_186" data-name="Group 186" transform="translate(-208.946 404.564)">
      <g id="Group_179" data-name="Group 179" transform="translate(0 4.103)">
        <ellipse id="Ellipse_21" data-name="Ellipse 21" cx="15.282" cy="16.539" rx="15.282" ry="16.539" transform="translate(0 23.801) rotate(-51.147)" fill="#85d3c5"/>
        <path id="Path_111" data-name="Path 111" d="M-180.183,471.6c3.071-3.812,8.905-4.208,13.03-.885s4.982,9.109,1.911,12.92-8.907,4.208-13.031.885S-183.254,475.413-180.183,471.6Z" transform="translate(195.179 -455.341)"/>
        <path id="Path_112" data-name="Path 112" d="M-182.678,489.317c-3.051-2.458-5.349-6.545-4.248-10.689" transform="translate(196.841 -458.603)" fill="none" stroke="#fff" stroke-miterlimit="10" stroke-width="3"/>
      </g>
      <g id="Group_181" data-name="Group 181" transform="translate(7.448 0.766)">
        <path id="Path_113" data-name="Path 113" d="M-189.3,447.34a5.422,5.422,0,0,1,7.637-.522l30.5,24.571a5.419,5.419,0,0,1,1.117,7.573h0a5.421,5.421,0,0,1-7.637.522l-30.5-24.57a5.423,5.423,0,0,1-1.117-7.574Z" transform="translate(190.411 -444.638)" fill="#d15741"/>
        <g id="Group_180" data-name="Group 180">
          <path id="Path_114" data-name="Path 114" d="M-139.507,479.283a1.562,1.562,0,0,1,2.2-.149l1.318,1.062a1.561,1.561,0,0,1,.322,2.18L-143.417,492a1.563,1.563,0,0,1-2.2.15l-1.318-1.062a1.563,1.563,0,0,1-.323-2.182Z" transform="translate(176.676 -455.306)" fill="#e6ae55"/>
          <path id="Path_115" data-name="Path 115" d="M-190.114,454.382a1.562,1.562,0,0,0,.323,2.182l1.318,1.061a1.562,1.562,0,0,0,2.2-.148l7.751-9.622a1.56,1.56,0,0,0-.325-2.181l-1.317-1.061a1.561,1.561,0,0,0-2.2.147Z" transform="translate(190.425 -444.231)" fill="#e6ae55"/>
        </g>
      </g>
      <path id="Path_116" data-name="Path 116" d="M-177.1,443.634a1.56,1.56,0,0,1,2.2-.15l25.371,20.437a1.561,1.561,0,0,1,.322,2.18l-11.511,14.29a1.561,1.561,0,0,1-2.2.15l-25.37-20.437a1.559,1.559,0,0,1-.321-2.18Z" transform="translate(197.391 -443.103)" fill="#b74964"/>
      <g id="Group_185" data-name="Group 185" transform="translate(18.406 9.809)">
        <g id="Group_184" data-name="Group 184">
          <g id="Group_182" data-name="Group 182" transform="translate(10.303 8.3)">
            <path id="Path_117" data-name="Path 117" d="M-153.466,470.3a1.56,1.56,0,0,1,2.2-.15l.914.736a1.562,1.562,0,0,1,.321,2.181l-5.343,6.633a1.562,1.562,0,0,1-2.2.15l-.914-.737a1.559,1.559,0,0,1-.321-2.18Z" transform="translate(159.121 -469.766)" fill="#fff"/>
            <path id="Path_118" data-name="Path 118" d="M-152.834,473.882a.781.781,0,0,1,1.1-.075l.458.368a.781.781,0,0,1,.16,1.09l-2.672,3.317a.781.781,0,0,1-1.1.075l-.458-.369a.78.78,0,0,1-.161-1.09Z" transform="translate(158.011 -471.002)"/>
          </g>
          <g id="Group_183" data-name="Group 183">
            <path id="Path_119" data-name="Path 119" d="M-168.637,458.076a1.561,1.561,0,0,1,2.2-.15l.914.737a1.56,1.56,0,0,1,.321,2.179l-5.343,6.634a1.561,1.561,0,0,1-2.2.15l-.914-.736a1.561,1.561,0,0,1-.322-2.181Z" transform="translate(174.291 -457.546)" fill="#fff"/>
            <path id="Path_120" data-name="Path 120" d="M-168,461.661a.781.781,0,0,1,1.1-.075l.457.368a.781.781,0,0,1,.16,1.09l-2.672,3.317a.782.782,0,0,1-1.1.075l-.457-.368a.782.782,0,0,1-.16-1.091Z" transform="translate(173.181 -458.781)"/>
          </g>
        </g>
        <path id="Path_121" data-name="Path 121" d="M-157.718,459.061a.82.82,0,0,1,1.134.041l4.931,3.972a.821.821,0,0,1,.283,1.1h0a.82.82,0,0,1-1.135-.042l-4.931-3.972a.819.819,0,0,1-.281-1.1Z" transform="translate(169.012 -457.966)"/>
      </g>
      <path id="Path_122" data-name="Path 122" d="M-168.878,450.255" transform="translate(190.961 -445.398)" fill="none" stroke="#000" stroke-miterlimit="10" stroke-width="1"/>
    </g>
    <g id="Group_197" data-name="Group 197" transform="translate(-185.786 354.907)">
      <g id="Group_187" data-name="Group 187" transform="translate(0.836)">
        <path id="Path_123" data-name="Path 123" d="M-133.93,370.521a1.563,1.563,0,0,1,2.2-.149l30.423,24.508a1.56,1.56,0,0,1,.322,2.18l-31.82,39.5a1.56,1.56,0,0,1-2.2.15L-165.427,412.2a1.56,1.56,0,0,1-.323-2.181Z" transform="translate(166.061 -369.991)" fill="#d15741"/>
        <path id="Path_124" data-name="Path 124" d="M-150.343,424.355-165.427,412.2a1.56,1.56,0,0,1-.323-2.181l31.82-39.5a1.563,1.563,0,0,1,2.2-.149l15.084,12.151" transform="translate(166.061 -369.991)" opacity="0.1"/>
      </g>
      <g id="Group_196" data-name="Group 196" transform="translate(0 1.777)">
        <g id="Group_190" data-name="Group 190">
          <g id="Group_188" data-name="Group 188" transform="translate(37.674)">
            <path id="Path_125" data-name="Path 125" d="M-88.014,391.976a1.063,1.063,0,0,1,1.495-.1l7.673,6.181a1.062,1.062,0,0,1,.219,1.481h0a1.061,1.061,0,0,1-1.494.1l-7.673-6.181a1.063,1.063,0,0,1-.22-1.482Z" transform="translate(104.253 -378.706)" fill="#85d3c5"/>
            <path id="Path_126" data-name="Path 126" d="M-111.613,372.966a1.063,1.063,0,0,1,1.495-.1l7.673,6.181a1.062,1.062,0,0,1,.219,1.481h0a1.062,1.062,0,0,1-1.494.1l-7.673-6.181a1.063,1.063,0,0,1-.22-1.482Z" transform="translate(111.824 -372.607)" fill="#85d3c5"/>
          </g>
          <g id="Group_189" data-name="Group 189" transform="translate(0 27.265)">
            <path id="Path_127" data-name="Path 127" d="M-110.1,453.78a1.33,1.33,0,0,1,1.873-.126h0a1.327,1.327,0,0,1,.273,1.856l-6.559,8.142a1.327,1.327,0,0,1-1.871.128h0a1.33,1.33,0,0,1-.275-1.857Z" transform="translate(151.132 -425.769)" fill="#85d3c5"/>
            <path id="Path_128" data-name="Path 128" d="M-158.322,414.932a1.329,1.329,0,0,0-.275-1.857h0a1.327,1.327,0,0,0-1.871.128l-6.56,8.143a1.328,1.328,0,0,0,.274,1.856h0a1.33,1.33,0,0,0,1.873-.126Z" transform="translate(167.293 -412.751)" fill="#85d3c5"/>
          </g>
        </g>
        <path id="Path_129" data-name="Path 129" d="M-151.508,444.732a1.461,1.461,0,0,1,2.059-.141l8.222,6.623a1.461,1.461,0,0,1,.3,2.041h0a1.461,1.461,0,0,1-2.059.141l-8.221-6.623a1.461,1.461,0,0,1-.3-2.041Z" transform="translate(162.322 -395.587)" fill="#e6ae55"/>
        <g id="Group_195" data-name="Group 195" transform="translate(8.889 13.822)">
          <g id="Group_191" data-name="Group 191" transform="translate(0 17.86)">
            <path id="Path_130" data-name="Path 130" d="M-154.043,427.331c.353-.438,1.168-.368,1.819.157l8.221,6.623c.652.525.894,1.305.541,1.743h0c-.353.438-1.167.368-1.819-.157l-8.221-6.623c-.651-.525-.894-1.306-.541-1.743Z" transform="translate(154.205 -421.754)" fill="#fff"/>
            <path id="Path_131" data-name="Path 131" d="M-150.906,423.437c.352-.438,1.168-.368,1.819.157l8.222,6.623c.651.525.893,1.305.541,1.743h0c-.353.438-1.167.368-1.819-.157l-8.222-6.623c-.651-.524-.894-1.305-.541-1.743Z" transform="translate(153.199 -420.505)" fill="#fff"/>
            <path id="Path_132" data-name="Path 132" d="M-147.77,419.543c.353-.438,1.168-.368,1.819.157l8.221,6.623c.652.525.894,1.306.541,1.743h0c-.353.438-1.167.368-1.819-.157l-8.221-6.623c-.651-.524-.893-1.305-.541-1.743Z" transform="translate(152.192 -419.255)" fill="#fff"/>
          </g>
          <g id="Group_193" data-name="Group 193" transform="translate(15.446 5.112)">
            <rect id="Rectangle_34" data-name="Rectangle 34" width="40.46" height="9.897" rx="4" transform="translate(0 31.509) rotate(-51.147)" fill="#e6ae55"/>
            <g id="Group_192" data-name="Group 192" transform="translate(7.497 17.428)">
              <path id="Path_133" data-name="Path 133" d="M-120.425,444.837" transform="translate(120.425 -432.142)" fill="none" stroke="#b74964" stroke-miterlimit="10" stroke-width="1"/>
              <path id="Path_134" data-name="Path 134" d="M-115.407,438.606" transform="translate(118.815 -430.143)" fill="none" stroke="#fff" stroke-miterlimit="10" stroke-width="1"/>
              <path id="Path_135" data-name="Path 135" d="M-110.388,432.376" transform="translate(117.205 -428.145)" fill="none" stroke="#b74964" stroke-miterlimit="10" stroke-width="1"/>
              <path id="Path_136" data-name="Path 136" d="M-105.37,426.146" transform="translate(115.595 -426.146)" fill="none" stroke="#fff" stroke-miterlimit="10" stroke-width="1"/>
            </g>
          </g>
          <g id="Group_194" data-name="Group 194" transform="translate(11.246)">
            <path id="Path_137" data-name="Path 137" d="M-134.337,394.719a5.189,5.189,0,0,1,7.308-.5l5.764,4.643a5.189,5.189,0,0,1,1.071,7.247l-2.277,2.826a5.189,5.189,0,0,1-7.309.5l-5.764-4.643a5.189,5.189,0,0,1-1.07-7.246Z" transform="translate(137.647 -392.958)" fill="#85d3c5"/>
            <path id="Path_138" data-name="Path 138" d="M-130.012,399.465a3.009,3.009,0,0,1,4.238-.289l3.343,2.693a3.009,3.009,0,0,1,.621,4.2l-1.32,1.639a3.009,3.009,0,0,1-4.239.289l-3.343-2.693a3.01,3.01,0,0,1-.62-4.2Z" transform="translate(135.814 -394.718)" fill="#b74964"/>
          </g>
        </g>
      </g>
    </g>
  </g>
</svg>
