<svg id="settings" xmlns="http://www.w3.org/2000/svg" width="28.444" height="28.444" viewBox="0 0 28.444 28.444">
  <g id="Group_42" data-name="Group 42" transform="translate(0 9.481)">
    <g id="Group_41" data-name="Group 41">
      <path id="Path_22" data-name="Path 22" d="M17.54,167.111h-.521a.466.466,0,0,1-.439-.306c-.058-.152-.12-.3-.187-.447a.467.467,0,0,1,.095-.529l.372-.372a1.425,1.425,0,0,0,0-2.01l-1.34-1.34a1.425,1.425,0,0,0-2.01,0l-.372.371a.469.469,0,0,1-.529.095c-.147-.067-.3-.129-.448-.19a.466.466,0,0,1-.308-.44v-.521A1.422,1.422,0,0,0,10.429,160h-1.9a1.422,1.422,0,0,0-1.422,1.422v.521a.467.467,0,0,1-.306.439c-.152.058-.3.12-.447.187a.469.469,0,0,1-.529-.095l-.372-.372a1.426,1.426,0,0,0-2.01,0l-1.34,1.344a1.425,1.425,0,0,0,0,2.01l.371.372a.467.467,0,0,1,.095.529c-.067.147-.129.3-.187.448a.466.466,0,0,1-.442.306H1.422A1.422,1.422,0,0,0,0,168.533v1.9a1.422,1.422,0,0,0,1.422,1.422h.521a.467.467,0,0,1,.439.306c.058.152.12.3.187.447a.467.467,0,0,1-.095.529l-.372.372a1.426,1.426,0,0,0,0,2.01l1.34,1.34a1.425,1.425,0,0,0,2.01,0l.372-.371a.469.469,0,0,1,.529-.095c.147.067.3.129.448.19a.466.466,0,0,1,.31.44v.521a1.422,1.422,0,0,0,1.422,1.422h1.9a1.422,1.422,0,0,0,1.422-1.422v-.521a.467.467,0,0,1,.306-.439c.152-.058.3-.12.447-.187a.469.469,0,0,1,.529.095l.372.372a1.426,1.426,0,0,0,2.01,0l1.34-1.34a1.425,1.425,0,0,0,0-2.01l-.371-.372a.467.467,0,0,1-.095-.529c.067-.147.129-.3.19-.448a.466.466,0,0,1,.44-.308h.521a1.422,1.422,0,0,0,1.422-1.422v-1.9A1.422,1.422,0,0,0,17.54,167.111Zm.474,3.318a.474.474,0,0,1-.474.474h-.521a1.427,1.427,0,0,0-1.327.917q-.075.2-.163.392a1.426,1.426,0,0,0,.284,1.591l.371.371a.474.474,0,0,1,0,.67h0l-1.34,1.34a.474.474,0,0,1-.67,0l-.372-.371a1.425,1.425,0,0,0-1.591-.284c-.128.058-.259.113-.391.163a1.426,1.426,0,0,0-.916,1.326v.521a.474.474,0,0,1-.474.474h-1.9a.474.474,0,0,1-.474-.474v-.521a1.427,1.427,0,0,0-.917-1.327q-.2-.075-.392-.163a1.427,1.427,0,0,0-1.591.284l-.371.371a.474.474,0,0,1-.67,0h0l-1.34-1.338a.474.474,0,0,1,0-.67l.371-.372a1.426,1.426,0,0,0,.284-1.591c-.058-.128-.113-.259-.163-.391a1.426,1.426,0,0,0-1.326-.918H1.422a.474.474,0,0,1-.474-.474v-1.9a.474.474,0,0,1,.474-.474h.521a1.427,1.427,0,0,0,1.327-.917q.075-.2.163-.392a1.427,1.427,0,0,0-.284-1.591l-.373-.371a.474.474,0,0,1,0-.67h0l1.34-1.34a.474.474,0,0,1,.67,0l.372.371a1.425,1.425,0,0,0,1.591.284c.128-.058.259-.113.391-.163a1.426,1.426,0,0,0,.918-1.326v-.521a.474.474,0,0,1,.474-.474h1.9a.474.474,0,0,1,.474.474v.521a1.427,1.427,0,0,0,.917,1.327q.2.075.392.163a1.425,1.425,0,0,0,1.591-.284l.371-.371a.477.477,0,0,1,.671,0l1.34,1.34a.474.474,0,0,1,0,.67l-.371.372a1.426,1.426,0,0,0-.284,1.591c.058.128.113.259.163.391a1.426,1.426,0,0,0,1.326.916h.521a.474.474,0,0,1,.474.474v1.9Z" transform="translate(0 -160)" fill="#75797c"/>
    </g>
  </g>
  <g id="Group_44" data-name="Group 44" transform="translate(5.212 14.696)">
    <g id="Group_43" data-name="Group 43">
      <path id="Path_23" data-name="Path 23" d="M96.485,252.077c0-.114-.013-.227-.027-.34s-.033-.242-.058-.36c-.017-.077-.038-.154-.059-.23q-.04-.146-.09-.289-.035-.1-.072-.2a4.222,4.222,0,0,0-.209-.444c-.006-.011-.01-.023-.016-.034a4.207,4.207,0,0,0-.427-.621c-.014-.017-.029-.033-.044-.05-.065-.077-.133-.152-.2-.224-.037-.038-.076-.074-.115-.111s-.095-.088-.142-.129-.116-.1-.176-.145l-.078-.058A4.237,4.237,0,0,0,92.228,248c-.047,0-.095.007-.142.009-.1,0-.2.009-.3.019-.054.006-.108.012-.161.019a4.352,4.352,0,0,0-.459.086,4.269,4.269,0,0,0,0,8.267.109.109,0,0,1,.024,0,4.52,4.52,0,0,0,.5.095c.11.014.221.017.332.022.074,0,.142.015.219.015.135,0,.275-.009.419-.023a.459.459,0,0,0,.047-.006c.115-.013.232-.03.351-.054.047-.009.091-.021.137-.031.083-.019.166-.04.252-.065.066-.02.131-.043.2-.066s.132-.047.2-.073.124-.055.185-.083c.08-.036.159-.073.237-.115h0a5.612,5.612,0,0,0,1.215-.878,1.492,1.492,0,0,0,.254-.311,5.06,5.06,0,0,0,.714-1.948c.013-.091.025-.183.032-.276s.011-.171.013-.256c0-.027,0-.053,0-.08C96.494,252.2,96.488,252.141,96.485,252.077Zm-.945.31c0,.039,0,.079-.006.118-.009.115-.023.229-.043.345a3.325,3.325,0,0,1-1.666,2.323c-.059.031-.117.06-.174.086l-.039.019a3.425,3.425,0,0,1-.865.262l-.064.01c-.059.009-.118.016-.175.021-.076.007-.153.01-.231.012h-.1a3.325,3.325,0,0,1-.336-.021l-.057-.007a3.513,3.513,0,0,1-.387-.073,3.318,3.318,0,0,1,0-6.429h0a3.433,3.433,0,0,1,.833-.1,3.285,3.285,0,0,1,.405.027c.036,0,.072.011.107.016.1.016.2.036.3.062l.1.025a3.347,3.347,0,0,1,.723.3l.108.066c.075.047.147.095.219.149.038.028.077.055.114.085a3.418,3.418,0,0,1,.267.237c.034.034.064.072.1.107.055.059.108.12.158.184.035.044.069.09.1.136.047.068.095.139.137.211l.072.118a3.252,3.252,0,0,1,.163.347c.019.047.035.095.052.142.031.087.057.175.081.265.012.047.025.09.035.136a3.343,3.343,0,0,1,.06.388c0,.035,0,.07.005.1C95.542,252.168,95.544,252.277,95.54,252.387Z" transform="translate(-87.959 -248)" fill="#75797c"/>
    </g>
  </g>
  <g id="Group_46" data-name="Group 46" transform="translate(5.171)">
    <g id="Group_45" data-name="Group 45">
      <path id="Path_24" data-name="Path 24" d="M109.112,9.955h-1.491a.463.463,0,0,1-.442-.311,9.872,9.872,0,0,0-.532-1.285.464.464,0,0,1,.091-.535L107.8,6.765a1.422,1.422,0,0,0,0-2.011l-2.016-2.012a1.422,1.422,0,0,0-2.01,0L102.712,3.8a.464.464,0,0,1-.535.091,9.849,9.849,0,0,0-1.286-.535.463.463,0,0,1-.313-.442V1.422A1.422,1.422,0,0,0,99.157,0H96.312A1.422,1.422,0,0,0,94.89,1.422V2.913a.463.463,0,0,1-.311.442,9.879,9.879,0,0,0-1.285.535.463.463,0,0,1-.535-.091L91.7,2.742a1.425,1.425,0,0,0-2.01,0L87.678,4.753a1.422,1.422,0,0,0,0,2.011l1.554,1.557a.474.474,0,0,0,.671-.669L88.348,6.1a.474.474,0,0,1,0-.67L90.36,3.413a.474.474,0,0,1,.67,0L92.089,4.47a1.409,1.409,0,0,0,1.629.267,8.969,8.969,0,0,1,1.162-.483,1.41,1.41,0,0,0,.958-1.342V1.422a.474.474,0,0,1,.474-.474h2.844a.474.474,0,0,1,.474.474V2.913a1.41,1.41,0,0,0,.958,1.341,8.942,8.942,0,0,1,1.162.484,1.413,1.413,0,0,0,1.628-.268l1.059-1.057a.474.474,0,0,1,.67,0l2.012,2.012a.474.474,0,0,1,0,.67l-1.057,1.059a1.411,1.411,0,0,0-.267,1.629,8.972,8.972,0,0,1,.483,1.162,1.41,1.41,0,0,0,1.342.958h1.491a.474.474,0,0,1,.474.474v2.844a.474.474,0,0,1-.474.474h-1.491a1.41,1.41,0,0,0-1.341.958,8.934,8.934,0,0,1-.484,1.162,1.411,1.411,0,0,0,.268,1.628l1.057,1.059a.474.474,0,0,1,0,.67l-2.013,2.012a.474.474,0,0,1-.67,0l-1.558-1.554a.474.474,0,1,0-.681.66l.012.012,1.557,1.554a1.422,1.422,0,0,0,2.011,0l2.012-2.011a1.422,1.422,0,0,0,0-2.011l-1.056-1.058a.465.465,0,0,1-.091-.535,9.848,9.848,0,0,0,.535-1.286.463.463,0,0,1,.442-.313h1.491a1.422,1.422,0,0,0,1.422-1.422V11.378A1.422,1.422,0,0,0,109.112,9.955Z" transform="translate(-87.261)" fill="#75797c"/>
    </g>
  </g>
  <g id="Group_48" data-name="Group 48" transform="translate(11.153 6.64)">
    <g id="Group_47" data-name="Group 47">
      <path id="Path_25" data-name="Path 25" d="M197.067,113.852a6.169,6.169,0,0,0-8.715,0,.474.474,0,0,0,.67.67,5.215,5.215,0,1,1,7.424,7.325l-.049.049a.474.474,0,0,0,.659.682l.012-.012A6.169,6.169,0,0,0,197.067,113.852Z" transform="translate(-188.219 -112.049)" fill="#75797c"/>
    </g>
  </g>
</svg>
