<svg xmlns="http://www.w3.org/2000/svg" width="19.688" height="21" viewBox="0 0 19.688 21">
  <g id="shareOutlineWhite_" data-name="shareOutlineWhite " transform="translate(-16)">
    <g id="Group_18" data-name="Group 18" transform="translate(16)">
      <path id="Path_13" data-name="Path 13" d="M32,13.617a3.688,3.688,0,0,0-2.969,1.5l-5.794-2.961a3.691,3.691,0,0,0-.12-2.425l6.073-3.649a3.676,3.676,0,1,0-.631-1.056L22.467,8.684a3.691,3.691,0,1,0,.226,4.578l5.777,2.953A3.692,3.692,0,1,0,32,13.617ZM32,1.23a2.461,2.461,0,1,1-2.461,2.461A2.464,2.464,0,0,1,32,1.23Zm-12.3,12.346a2.461,2.461,0,1,1,2.461-2.461A2.464,2.464,0,0,1,19.691,13.576ZM32,19.77a2.461,2.461,0,1,1,2.461-2.461A2.464,2.464,0,0,1,32,19.77Z" transform="translate(-16)" fill="#fff"/>
    </g>
  </g>
</svg>
